<svg width="27" height="27" viewBox="0 0 27 27" fill="none" xmlns="http://www.w3.org/2000/svg">
<path d="M13.5 6.51172C17.1914 6.51172 20.2383 9.55859 20.2383 13.25C20.2383 17 17.1914 19.9883 13.5 19.9883C9.75 19.9883 6.76172 17 6.76172 13.25C6.76172 9.55859 9.75 6.51172 13.5 6.51172ZM13.5 17.6445C15.9023 17.6445 17.8359 15.7109 17.8359 13.25C17.8359 10.8477 15.9023 8.91406 13.5 8.91406C11.0391 8.91406 9.10547 10.8477 9.10547 13.25C9.10547 15.7109 11.0977 17.6445 13.5 17.6445ZM22.0547 6.27734C22.0547 7.15625 21.3516 7.85938 20.4727 7.85938C19.5938 7.85938 18.8906 7.15625 18.8906 6.27734C18.8906 5.39844 19.5938 4.69531 20.4727 4.69531C21.3516 4.69531 22.0547 5.39844 22.0547 6.27734ZM26.5078 7.85938C26.625 10.0273 26.625 16.5312 26.5078 18.6992C26.3906 20.8086 25.9219 22.625 24.3984 24.207C22.875 25.7305 21 26.1992 18.8906 26.3164C16.7227 26.4336 10.2188 26.4336 8.05078 26.3164C5.94141 26.1992 4.125 25.7305 2.54297 24.207C1.01953 22.625 0.550781 20.8086 0.433594 18.6992C0.316406 16.5312 0.316406 10.0273 0.433594 7.85938C0.550781 5.75 1.01953 3.875 2.54297 2.35156C4.125 0.828125 5.94141 0.359375 8.05078 0.242188C10.2188 0.125 16.7227 0.125 18.8906 0.242188C21 0.359375 22.875 0.828125 24.3984 2.35156C25.9219 3.875 26.3906 5.75 26.5078 7.85938ZM23.6953 20.9844C24.3984 19.2852 24.2227 15.1836 24.2227 13.25C24.2227 11.375 24.3984 7.27344 23.6953 5.51562C23.2266 4.40234 22.3477 3.46484 21.2344 3.05469C19.4766 2.35156 15.375 2.52734 13.5 2.52734C11.5664 2.52734 7.46484 2.35156 5.76562 3.05469C4.59375 3.52344 3.71484 4.40234 3.24609 5.51562C2.54297 7.27344 2.71875 11.375 2.71875 13.25C2.71875 15.1836 2.54297 19.2852 3.24609 20.9844C3.71484 22.1562 4.59375 23.0352 5.76562 23.5039C7.46484 24.207 11.5664 24.0312 13.5 24.0312C15.375 24.0312 19.4766 24.207 21.2344 23.5039C22.3477 23.0352 23.2852 22.1562 23.6953 20.9844Z" fill="#A36928"/>
</svg>
