<svg width="148" height="90" viewBox="0 0 148 90" fill="none" xmlns="http://www.w3.org/2000/svg">
<g clip-path="url(#clip0_968_338)">
<path d="M142.832 51.2081C142.764 51.5982 142.679 51.9883 142.594 52.3784C141.872 55.7477 140.648 58.9896 138.964 61.9959C135.979 67.3219 131.569 72.0034 125.853 75.9216C113.538 84.3686 95.6774 88.8296 74.1866 88.8296C52.6958 88.8296 34.8519 84.3686 22.5205 75.9216C16.8213 72.0034 12.4113 67.3219 9.42598 61.9959C7.74185 58.9896 6.51821 55.7477 5.79606 52.3784C5.71125 51.9883 5.62646 51.5982 5.55861 51.2081H4.37128C4.43912 51.5982 4.52398 51.9883 4.59183 52.3784C5.33497 55.9517 6.6221 59.3898 8.40827 62.5726C11.4784 68.0513 16.0072 72.8685 21.859 76.8884C34.3939 85.4542 52.4753 90 74.1866 90C95.8979 90 113.996 85.4542 126.514 76.8884C132.383 72.8685 136.912 68.0513 139.982 62.5726C141.761 59.3864 143.048 55.9495 143.798 52.3784C143.866 51.9883 143.951 51.5982 144.002 51.2081H142.832ZM5.98266 36.7565C6.72632 33.6958 7.88484 30.7511 9.42598 28.0041C12.4113 22.6781 16.8213 17.9966 22.5205 14.0784C34.8519 5.63136 52.7128 1.17037 74.1866 1.17037C95.6604 1.17037 113.538 5.63136 125.853 14.0784C131.569 17.9966 135.979 22.6781 138.964 28.0041C140.507 30.7484 141.66 33.6941 142.391 36.7565C142.492 37.1466 142.577 37.5368 142.662 37.9269H143.849C143.764 37.5368 143.697 37.1466 143.595 36.7565C142.844 33.4898 141.627 30.348 139.982 27.4274C136.912 21.9487 132.383 17.1315 126.514 13.1116C113.996 4.52884 95.9148 0 74.1866 0C52.4584 0 34.3939 4.52884 21.859 13.1116C16.0072 17.1315 11.4784 21.9487 8.40827 27.4274C6.76337 30.348 5.54659 33.4898 4.79533 36.7565C4.69355 37.1523 4.60874 37.5424 4.5409 37.9269H5.72823L5.98266 36.7565Z" fill="black"/>
<path d="M127.922 36.7565C127.417 35.6679 126.821 34.6239 126.141 33.6355C123.715 30.1074 120.153 26.9864 115.523 24.4082C105.634 18.8617 91.3521 15.9442 74.1866 15.9442C57.0211 15.9442 42.7561 18.8617 32.8673 24.4082C28.2367 26.9864 24.6747 30.1074 22.2491 33.6355C21.5688 34.6239 20.973 35.6679 20.4681 36.7565C20.2985 37.1297 20.1289 37.5198 19.9763 37.9269H20.6039C20.7529 37.5281 20.9227 37.1374 21.1127 36.7565C21.5809 35.791 22.1195 34.8612 22.7241 33.9747C25.0988 30.4975 28.6099 27.4614 33.1557 24.9171C42.9427 19.4214 57.1399 16.5209 74.1866 16.5209C91.2333 16.5209 105.447 19.4214 115.234 24.9171C119.78 27.4614 123.291 30.4975 125.649 33.9747C126.265 34.857 126.81 35.7873 127.277 36.7565C127.467 37.1374 127.637 37.5281 127.786 37.9269H128.414C128.261 37.5198 128.092 37.1297 127.922 36.7565ZM128.109 51.2081C127.544 52.8124 126.78 54.3396 125.836 55.7539C125.783 55.8507 125.721 55.9417 125.649 56.0253C123.291 59.5024 119.78 62.5386 115.234 65.0829C105.447 70.5786 91.2503 73.4791 74.1866 73.4791C57.1229 73.4791 42.9427 70.5786 33.1557 65.0829C28.6099 62.5386 25.0988 59.5024 22.7241 56.0253L22.4019 55.5334C21.5236 54.1822 20.8117 52.7299 20.2816 51.2081H19.654C19.7897 51.5982 19.9254 51.9883 20.095 52.3784C20.6722 53.7786 21.3941 55.1145 22.2491 56.3645C24.6747 59.8926 28.2367 63.0136 32.8673 65.5918C42.7561 71.1383 57.0381 74.0558 74.1866 74.0558C91.3351 74.0558 105.634 71.1383 115.523 65.5918C120.153 63.0136 123.715 59.8926 126.141 56.3645C126.996 55.1145 127.718 53.7786 128.295 52.3784C128.448 51.9883 128.6 51.5982 128.736 51.2081H128.109Z" fill="black"/>
<path d="M20.1798 20.6257C20.2771 20.8676 20.4148 21.0913 20.5869 21.2872L21.1805 21.9657C21.1636 21.9318 21.0279 22.0166 20.8752 22.1353C20.7226 22.2541 20.7395 23.1361 21.9099 24.5269C23.0802 25.9178 23.7248 25.9178 24.2507 25.4768L24.3015 25.4429C24.4881 25.2733 25.0818 24.5778 23.657 22.8986L23.5892 22.8138C22.2831 21.3211 21.8421 21.2703 21.6216 21.4568C21.4011 21.6434 21.401 21.7452 21.3332 21.7961C21.2653 21.847 20.9601 21.2194 20.7904 21.0158C20.6438 20.8331 20.4657 20.678 20.2646 20.5579L23.3177 17.9796C23.4454 18.2699 23.617 18.5388 23.8266 18.7769C23.9719 18.9477 24.1307 19.1065 24.3015 19.2518C24.2097 19.29 24.124 19.3414 24.0471 19.4044C23.9761 19.4618 23.9231 19.5383 23.8944 19.6249C23.8436 19.8455 23.8436 20.3034 24.5221 21.1685C24.6219 21.3046 24.7295 21.4349 24.8443 21.5586C25.9468 22.8816 26.6762 23.2378 26.6762 23.2378C25.879 24.2047 26.4727 25.5956 26.4727 25.5956L23.8096 27.8515C22.988 27.5204 22.07 27.5204 21.2484 27.8515C20.7998 27.0098 20.2777 26.2094 19.6879 25.4599C19.2299 24.934 18.755 24.51 18.331 24.493C18.2811 24.49 18.2312 24.4975 18.1844 24.5151C18.1377 24.5326 18.0951 24.5598 18.0596 24.5948C17.9656 24.6734 17.9001 24.7807 17.873 24.9001C17.7182 24.6577 17.5483 24.4255 17.3641 24.2047C17.1705 23.9614 16.935 23.7546 16.6686 23.594L20.1798 20.6257Z" fill="black"/>
<path d="M29.4579 14.5024C29.5206 14.7869 29.6234 15.0611 29.7633 15.3166C29.8934 15.577 30.0527 15.8217 30.2382 16.046C30.0752 16.0728 29.9159 16.1184 29.7633 16.1817C29.441 16.3513 29.6955 17.1146 30.2722 18.2341L30.3739 18.4376C31.239 20.0151 31.68 20.3373 32.2397 20.1168L32.4772 20.0151C33.1218 19.6758 33.1048 19.167 32.8843 18.7429C32.7512 18.5016 32.5793 18.2838 32.3754 18.0984C32.7662 18.0171 33.1432 17.88 33.4949 17.6913C33.8256 17.5234 34.1287 17.306 34.3939 17.0467C34.5541 17.5664 34.7584 18.0714 35.0045 18.5563C35.2669 19.071 35.6171 19.5359 36.0392 19.9303L29.2205 23.4753C29.1705 23.179 29.0732 22.8926 28.9322 22.6272C28.7992 22.3518 28.615 22.1043 28.3894 21.8978C28.5785 21.9098 28.7682 21.8868 28.9491 21.83C29.3562 21.6095 28.9152 20.5748 28.4063 19.5741C27.8975 18.5733 27.1511 17.5047 26.761 17.7082C26.6025 17.7989 26.4686 17.9271 26.3709 18.0814C26.3331 17.8321 26.2528 17.5911 26.1335 17.369C25.9793 17.0632 25.7791 16.7829 25.5398 16.5379L29.4579 14.5024Z" fill="black"/>
<path d="M41.5687 9.6174C41.7384 10.7369 41.7384 10.8556 41.925 11.3475C42.0951 11.8475 42.3536 12.3129 42.6882 12.7214C42.3107 12.7649 41.9403 12.8561 41.5857 12.9928C41.2235 13.1176 40.8764 13.2826 40.551 13.4847C40.5346 13.1955 40.4775 12.91 40.3814 12.6366C40.2457 12.2465 39.9743 11.8564 39.4655 12.043C38.9566 12.2295 39.1262 13.2642 39.2619 13.79C39.3298 13.9766 39.4655 14.4855 39.652 15.0113C39.9574 15.8594 40.3984 16.7414 40.9242 16.5548L41.1956 16.4531C41.2368 16.631 41.2878 16.8065 41.3482 16.9789C41.4627 17.2877 41.5988 17.5881 41.7553 17.8779L37.447 19.4044C37.4537 19.1033 37.4019 18.8038 37.2943 18.5224C37.185 18.2525 37.0545 17.9916 36.9042 17.7422C36.9961 17.7504 37.0886 17.7388 37.1756 17.7082C37.2529 17.6791 37.3225 17.6327 37.3792 17.5725C37.3792 17.5725 37.9898 17.2842 37.464 15.8085C36.9381 14.3328 36.4632 13.1794 35.7508 13.383H35.6999C35.1911 13.5695 35.2589 14.1462 35.3946 14.5533C35.4829 14.7889 35.6027 15.0115 35.7508 15.2148C35.4285 15.3336 35.0893 15.3845 34.784 15.4862C34.4787 15.588 33.9189 15.8424 33.6645 16.1308C33.6011 15.4826 33.4587 14.8446 33.2405 14.231C33.0707 13.7206 32.8123 13.244 32.4772 12.8232L41.5687 9.6174Z" fill="black"/>
<path d="M52.5431 15.1979L51.254 15.4693C50.6773 14.7908 50.1685 14.723 50.1685 14.723C50.303 14.449 50.3332 14.1355 50.2533 13.8409C50.2292 13.7121 50.1893 13.5868 50.1345 13.4678C49.8292 12.7214 49.2016 12.7214 49.0659 12.7384L47.9634 12.9928L47.9974 13.1625C48.1161 13.7392 48.3027 14.5703 48.9133 14.4516C49.0449 14.421 49.1636 14.3498 49.2525 14.248C49.2632 14.4078 49.2858 14.5666 49.3204 14.723C49.4078 15.0929 49.5508 15.4475 49.7444 15.7746L45.2835 16.7245C45.3312 16.3842 45.3081 16.0377 45.2156 15.7067C45.1806 15.4774 45.1121 15.2545 45.012 15.0452C45.1406 15.1344 45.2985 15.1708 45.4531 15.147L45.5379 15.1131C45.8771 14.9774 45.8771 14.1123 45.6227 12.8741C45.487 12.2974 45.046 10.5334 44.588 10.5334H44.4693C44.3833 10.5551 44.3048 10.5997 44.2421 10.6624C44.1794 10.7251 44.1348 10.8036 44.1131 10.8896C44.0991 10.6216 44.0651 10.3552 44.0113 10.0924C43.9408 9.72184 43.821 9.36244 43.6551 9.02375L44.2997 8.88805L49.473 7.80249C50.0437 8.32073 50.7885 8.60532 51.5594 8.5997C51.6272 8.93894 51.6272 9.39691 51.729 9.93969C51.8308 10.4825 51.8986 10.5164 52.0343 10.6012C51.4576 11.0083 51.254 11.3984 51.254 11.4154C51.254 11.4323 52.2548 12.009 52.2548 12.009C52.1879 12.3155 52.1764 12.6315 52.2209 12.942C52.2326 13.0238 52.2613 13.1023 52.3051 13.1724C52.3489 13.2425 52.4069 13.3026 52.4753 13.349C52.7398 13.493 53.0497 13.5294 53.3404 13.4508H53.4421C53.4591 13.6374 53.493 13.824 53.5269 14.0275C53.5799 14.3372 53.671 14.6392 53.7983 14.9265L52.5431 15.1979ZM47.5903 11.3984C47.5903 11.4323 47.6411 11.4493 47.726 11.4323L48.2518 11.3306L48.6758 11.2118C49.1677 11.0083 49.4391 10.6351 49.3543 10.1941V10.1432C49.2186 9.73615 48.8624 9.53261 48.3875 9.63438C48.3343 9.64366 48.2829 9.66081 48.2348 9.68526C47.4885 9.90577 47.4376 10.6351 47.5733 11.2627L47.5903 11.3984Z" fill="black"/>
<path d="M58.3272 12.7723L58.7851 12.6875C58.7759 12.9025 58.7816 13.1179 58.8021 13.3321C58.8349 13.6585 58.9149 13.9785 59.0396 14.282L54.9518 14.706C54.973 14.3329 54.9673 13.9588 54.9348 13.5865C54.9156 13.3628 54.8759 13.1414 54.8161 12.925C54.7991 12.8911 55.0535 13.0946 55.257 13.0777C55.9694 12.9929 57.0041 8.63364 57.038 6.58124C57.038 6.5982 60.3626 6.242 60.3626 6.242C60.3626 6.242 61.3973 9.39692 62.3641 10.6521C62.839 11.2797 63.3479 12.2465 64.0942 12.1617C64.06 12.3695 64.06 12.5815 64.0942 12.7893C64.1234 13.1036 64.1977 13.4121 64.3147 13.7053L59.5993 14.2141C59.6516 13.8946 59.663 13.5697 59.6332 13.2473C59.6067 13.0289 59.5613 12.8132 59.4975 12.6027H59.9894C60.2439 12.5688 60.3965 12.484 60.3796 12.2126C60.3626 11.9412 59.7689 11.7716 59.0905 11.8564C58.412 11.9412 57.8692 12.026 57.9201 12.4501C57.971 12.8741 58.1067 12.8063 58.3272 12.7723ZM58.8869 10.4995C59.1413 10.4655 59.3788 10.3298 59.3619 10.1432C59.3449 9.95667 58.7682 9.17642 58.7682 9.17642C58.7682 9.17642 58.3272 9.88882 58.3611 10.245C58.395 10.6012 58.6494 10.5334 58.8869 10.4995Z" fill="black"/>
<path d="M76.3577 5.5296C76.303 5.82597 76.2802 6.12736 76.2898 6.42859C76.2827 6.71471 76.317 7.00037 76.3916 7.27668C76.2681 7.22416 76.1357 7.19539 76.0015 7.19187C75.3739 7.20884 75.3909 8.20959 75.4078 8.78629V9.61743C75.4248 10.9065 75.4417 11.8055 76.205 11.8055C76.3096 11.7811 76.4079 11.7348 76.4934 11.6698C76.4256 11.7546 76.3916 12.0599 76.4086 12.3483C76.4112 12.6999 76.4684 13.049 76.5782 13.383L72.0154 13.4678C72.0947 13.1578 72.1234 12.837 72.1003 12.5179C72.0927 12.2818 72.0528 12.0478 71.9815 11.8225L72.3547 11.8564C72.7448 11.8564 73.0671 11.602 73.0332 10.3638V9.99059C73.0292 9.54272 73.0009 9.0954 72.9484 8.6506C72.1511 9.97363 71.4896 11.7377 71.4896 13.4678L69.8443 13.5017C69.8427 13.4561 69.8371 13.4106 69.8274 13.366C69.8274 13.0607 69.7765 12.2805 69.3524 10.9405C69.1269 10.1685 68.7524 9.44818 68.2499 8.82022L68.2838 10.3468C68.3008 11.3136 68.3686 11.9582 69.0132 11.9582C69.0884 11.9668 69.1645 11.955 69.2337 11.9243C69.1941 12.1367 69.177 12.3528 69.1828 12.5688C69.173 12.8909 69.2189 13.2122 69.3185 13.5187L65.3834 13.5865C65.4911 13.2524 65.5427 12.9028 65.536 12.5518C65.5332 12.3054 65.499 12.0603 65.4342 11.8225C65.566 11.9158 65.7165 11.9794 65.8752 12.0091C66.2484 11.9921 66.4519 11.6868 66.418 9.97363V9.85489C66.3841 8.27743 66.3163 7.39542 65.8074 7.41238C65.6469 7.42408 65.4934 7.48311 65.3664 7.582C65.3991 7.3175 65.4161 7.0513 65.4173 6.78479C65.4166 6.42877 65.3652 6.07467 65.2646 5.73315L69.6578 5.64834C70.1836 7.29364 70.9808 8.39617 70.9977 8.37921C71.4557 7.92124 72.0833 6.10631 72.1172 5.61441L76.3577 5.5296Z" fill="black"/>
<path d="M81.4124 12.043C81.5649 12.0515 81.7178 12.0515 81.8704 12.043C81.8228 12.2548 81.7944 12.4706 81.7855 12.6875C81.7585 13.0114 81.7814 13.3375 81.8534 13.6543L77.7486 13.3999C77.8355 13.032 77.8923 12.6576 77.9182 12.2804C77.9421 12.0545 77.9364 11.8264 77.9012 11.602C77.9012 11.568 78.1217 11.8225 78.3253 11.8225C79.0377 11.8733 80.7848 7.75159 81.158 5.73312L84.4995 5.95363C84.4995 5.95363 84.9914 9.22728 85.7377 10.6351C86.0939 11.3306 86.4331 12.3652 87.1964 12.3992C87.1277 12.6018 87.0877 12.813 87.0777 13.0268C87.0568 13.345 87.0796 13.6646 87.1455 13.9766L82.4131 13.6883C82.5179 13.3757 82.5807 13.0506 82.5997 12.7214C82.6209 12.5067 82.6152 12.2902 82.5827 12.0769L83.0746 12.1447C83.3291 12.1617 83.4987 12.0938 83.5157 11.8225C83.5326 11.5511 82.9898 11.2966 82.3113 11.2458C81.6329 11.1949 81.0731 11.2118 81.0562 11.6528C81.0392 12.0938 81.1749 12.043 81.4124 12.043ZM82.3283 9.90576C82.5827 9.92272 82.8372 9.82095 82.8542 9.63437C82.8711 9.44779 82.4301 8.58273 82.4301 8.58273C82.4301 8.58273 81.8873 9.21032 81.8534 9.56652C81.8195 9.92272 82.0909 9.8888 82.3283 9.90576Z" fill="black"/>
<path d="M95.5756 15.147L94.2865 14.9604C93.9812 14.1293 93.5232 13.8749 93.5232 13.8749C93.5232 13.8749 93.8285 13.6543 93.9133 13.0776C93.9282 12.9482 93.9339 12.8178 93.9303 12.6875C93.8963 11.8903 93.3197 11.6698 93.184 11.6359L92.0475 11.5002L92.0136 11.6528C91.9458 12.2465 91.827 13.0946 92.4376 13.1794C92.5716 13.1995 92.7084 13.1757 92.8277 13.1116C92.7794 13.2664 92.7454 13.4254 92.726 13.5865C92.6814 13.9644 92.6871 14.3465 92.7429 14.7229L88.2311 14.0445C88.4013 13.7479 88.5054 13.4181 88.5364 13.0776C88.5838 12.8491 88.6008 12.6152 88.5873 12.3822C88.6692 12.5093 88.7967 12.6003 88.9435 12.6366C88.9774 12.6366 89.0113 12.6536 89.0453 12.6366C89.4015 12.6366 89.7068 11.8055 89.8934 10.5673C89.9782 9.97361 90.1647 8.17564 89.7407 8.02299L89.6389 7.98906C89.5487 7.9756 89.4564 7.98751 89.3726 8.02345C89.2887 8.0594 89.2165 8.11796 89.164 8.19261C89.2543 7.94006 89.3168 7.67844 89.3505 7.41236C89.4229 7.03783 89.4344 6.65408 89.3845 6.27591L90.046 6.39464L95.2703 7.15793C95.4384 7.50483 95.6733 7.81521 95.9614 8.07133C96.2495 8.32744 96.5853 8.52428 96.9495 8.65058C96.8816 8.98982 96.729 9.41386 96.6442 9.95665C96.5594 10.4994 96.5933 10.5673 96.6951 10.686C96.3275 10.7748 95.9815 10.9363 95.6774 11.1609C95.6943 11.3645 96.4067 12.0769 96.4067 12.0769C96.2399 12.3473 96.1249 12.6464 96.0675 12.9589C96.0455 13.0366 96.0417 13.1184 96.0564 13.1978C96.0711 13.2772 96.1039 13.3522 96.1523 13.4169C96.346 13.6416 96.62 13.7816 96.9156 13.807H97.0343C96.9849 13.9971 96.9453 14.1896 96.9156 14.3837C96.8633 14.6918 96.8406 15.0042 96.8477 15.3166L95.5756 15.147ZM92.251 9.87184C92.251 9.90576 92.285 9.92272 92.3698 9.93968L92.9125 10.0245C93.0514 10.0581 93.1937 10.0752 93.3366 10.0754C93.8794 10.0415 94.2695 9.80399 94.3374 9.36298V9.29513C94.3543 8.85412 94.0829 8.54881 93.591 8.48096H93.4384C92.6581 8.44704 92.3698 9.10855 92.285 9.73614L92.251 9.87184Z" fill="black"/>
<path d="M104.158 8.98982C104.027 9.24736 103.93 9.52111 103.87 9.80399C103.786 10.0844 103.746 10.3763 103.751 10.669C103.649 10.5797 103.527 10.5158 103.395 10.4825C102.75 10.3298 102.411 11.6868 102.225 12.467C101.902 13.824 101.682 14.8247 102.462 15.0113C102.549 15.0407 102.643 15.0465 102.733 15.0283C102.608 15.2187 102.522 15.4319 102.479 15.6559C102.407 15.9785 102.384 16.3102 102.411 16.6396L98.035 15.6219C98.2227 15.3383 98.3551 15.0218 98.4251 14.689C98.4952 14.4465 98.5295 14.1951 98.5269 13.9427C98.6796 14.1293 98.7474 14.2141 98.8831 14.248C99.2733 14.2989 99.4598 13.9936 99.85 12.3144L99.8839 12.1956C100.24 10.669 100.444 9.7531 99.9517 9.63437C99.793 9.60591 99.6298 9.61757 99.4768 9.6683C99.5551 9.48901 99.612 9.30114 99.6464 9.10855C99.7526 8.73303 99.8096 8.34533 99.816 7.95514L104.158 8.98982Z" fill="black"/>
<path d="M110.01 10.7539C110.01 10.7539 110.248 14.0106 111.028 14.9604C111.125 14.768 111.21 14.5698 111.282 14.3668C111.469 13.8749 111.639 12.9589 111.028 12.7384C110.933 12.6922 110.827 12.6745 110.723 12.6875C110.853 12.4587 110.966 12.2206 111.062 11.9751C111.152 11.7157 111.221 11.449 111.265 11.1779L115.065 12.5349C114.912 12.8063 114.743 12.9589 114.59 13.3999C114.503 13.6547 114.435 13.9155 114.386 14.1802C114.318 14.0954 114.234 13.9258 114.149 13.9088C113.504 13.6713 113.114 14.4516 112.758 15.4693L112.436 16.4192C111.893 17.9288 111.418 19.5741 111.418 19.5741L108.925 18.6921C109.179 15.5371 107.754 13.5865 107.754 13.5865C107.754 13.5865 107.652 13.824 107.534 14.1632C107.415 14.5025 107.059 15.5711 107.042 15.9273C107.075 16.1169 107.171 16.2899 107.313 16.4192L107.415 16.4531C107.532 16.4766 107.652 16.4823 107.771 16.47C107.631 16.6818 107.517 16.9096 107.432 17.1485C107.322 17.4539 107.259 17.7742 107.245 18.0984L103.514 16.7754C103.74 16.4564 103.923 16.1084 104.057 15.7407C104.125 15.5579 104.182 15.371 104.226 15.1809C104.226 15.1809 104.345 15.4184 104.498 15.4693C104.65 15.5202 104.769 15.5032 105.057 15.2657C105.346 15.0283 106.126 12.925 106.346 12.2974L106.38 12.1787C106.482 11.8564 106.584 11.144 106.177 11.0083C105.77 10.8726 105.668 11.1101 105.668 11.0761C105.851 10.7375 106.01 10.386 106.143 10.0245C106.219 9.82706 106.276 9.62253 106.312 9.41388L110.01 10.7539Z" fill="black"/>
<path d="M122.155 16.2835C122.121 17.4538 122.46 18.251 122.935 18.709C122.326 19.3043 121.807 19.9841 121.392 20.7275C121.038 21.3031 120.802 21.9429 120.696 22.6103C119.695 22.4237 118.779 22.6781 118.389 23.17L114.98 21.2533C114.963 20.399 114.684 19.5704 114.183 18.8786C114.8 18.3671 115.318 17.7461 115.709 17.0467C116.083 16.3683 116.337 15.6728 116.371 15.0452C117.524 15.13 118.152 14.9095 118.898 14.4516L122.155 16.2835ZM117.355 20.948C117.931 21.2872 118.796 20.5409 119.441 19.4045C120.086 18.268 120.391 17.0637 119.797 16.7245C119.204 16.3852 118.288 17.2503 117.66 18.3867C117.032 19.5232 116.71 20.5918 117.355 20.948Z" fill="black"/>
<path d="M128.55 26.3249C128.142 26.5717 127.771 26.8743 127.447 27.2239C127.199 27.4909 127.014 27.8095 126.904 28.1568C126.192 27.8345 125.055 27.9194 124.784 28.072L122.63 26.1723C122.613 26.1553 122.749 25.6464 122.698 25.5447C122.647 25.4429 122.07 25.6634 122.07 25.6634L120.764 24.51C121.047 24.3378 121.299 24.12 121.51 23.8654C121.76 23.5825 121.982 23.2757 122.172 22.9495C122.356 23.1663 122.554 23.3703 122.766 23.5601C123.072 23.8212 123.401 24.0539 123.749 24.2556V24.2895C123.546 24.527 123.648 25.0358 124.258 25.5616C124.869 26.0875 125.479 26.4267 125.734 26.1383C125.988 25.85 125.395 24.9001 125.089 24.6287C124.784 24.3573 123.902 23.8654 123.512 23.8485C123.766 22.729 123.224 21.6774 123.224 21.6774C123.581 21.4721 123.902 21.2084 124.173 20.8971C124.497 20.5369 124.765 20.1312 124.971 19.6928C125.692 19.9781 126.492 19.9961 127.227 19.7437L128.753 21.1007C128.753 21.1007 128.685 21.6434 128.787 21.7452C128.889 21.847 129.364 21.6434 129.364 21.6434L130.805 22.9156C130.448 23.155 130.127 23.4466 129.856 23.7806C129.591 24.0798 129.347 24.3972 129.126 24.7305C129.023 24.3829 128.816 24.0752 128.533 23.8485C128.251 23.6165 127.943 23.4174 127.617 23.2548C127.6 23.2379 127.617 23.2039 127.651 23.17L127.752 23.0513C127.922 22.8647 128.092 22.5933 127.752 22.288L127.515 22.0675C126.955 21.5756 126.446 21.4399 126.26 21.6604C126.073 21.8809 126.005 22.3049 126.752 22.9495L126.989 23.153C127.651 23.6789 128.142 23.8146 128.261 23.7976C128.109 24.6501 128.209 25.5286 128.55 26.3249Z" fill="black"/>
<path d="M29 66.3551C28.8032 66.5215 28.6318 66.7158 28.4912 66.9318L28.0332 67.712C28.0501 67.6951 27.9314 67.5763 27.7618 67.4746C27.5921 67.3728 26.778 67.6442 25.7942 69.1877C24.8104 70.7312 25.014 71.3249 25.5907 71.6981L25.6415 71.732C25.8451 71.8677 26.6932 72.2239 27.8805 70.3581L27.9314 70.2733C28.983 68.5771 28.8982 68.1361 28.6438 67.9834C28.3894 67.8308 28.3046 67.8477 28.2198 67.7968C28.135 67.746 28.6608 67.288 28.8134 67.0505C28.944 66.861 29.0362 66.6478 29.0848 66.4229L32.4772 68.5601C32.2327 68.7705 32.0211 69.0163 31.8496 69.2895C31.7307 69.4781 31.6286 69.6767 31.5443 69.8832C31.4832 69.803 31.4086 69.7341 31.3238 69.6796C31.2507 69.6253 31.1597 69.601 31.0693 69.6118C30.8319 69.6287 30.4079 69.7644 29.7803 70.6804L29.4919 71.0875C28.576 72.5462 28.4572 73.3434 28.4572 73.3434C27.2868 72.8685 26.1335 73.8522 26.1335 73.8522L23.199 71.9864C23.2705 71.0989 22.9971 70.218 22.4357 69.527C23.1029 68.85 23.7049 68.1117 24.2337 67.3219C24.6069 66.7452 24.8783 66.1515 24.7595 65.7614C24.7326 65.6602 24.673 65.5708 24.5899 65.507C24.4786 65.4554 24.3562 65.4321 24.2337 65.4391C24.2846 65.3374 24.5221 65.0829 24.7426 64.7437C24.92 64.4853 25.0519 64.1985 25.1327 63.8956C26.4387 64.7437 29 66.3551 29 66.3551Z" fill="black"/>
<path d="M36.989 70.4599C36.8168 70.6958 36.6744 70.9522 36.565 71.2232C36.4447 71.4881 36.3592 71.7674 36.3106 72.0543C36.1827 71.9444 36.0399 71.853 35.8865 71.7829C35.5642 71.6472 35.1402 72.3257 34.6483 73.4791L34.5635 73.6996C33.9189 75.3788 33.9529 75.9216 34.4787 76.21C34.5488 76.2508 34.6226 76.2849 34.6992 76.3117C35.3946 76.6001 35.7678 76.2609 35.9544 75.8198C36.0509 75.559 36.1025 75.2837 36.107 75.0057C36.4174 75.2628 36.7666 75.4689 37.1417 75.6163C37.4805 75.7623 37.8421 75.8484 38.2103 75.8707C37.9173 76.3358 37.662 76.8236 37.447 77.3294C37.2181 77.8615 37.086 78.4302 37.0569 79.0087L29.9499 76.0573C30.1469 75.8291 30.3071 75.5716 30.4248 75.294C30.5441 75.0075 30.6184 74.7042 30.6453 74.395C30.7389 74.557 30.8735 74.6915 31.0354 74.7852C31.4764 74.9548 32.0023 73.954 32.4263 72.9193C32.8504 71.8847 33.2065 70.6295 32.7995 70.4599C32.6263 70.3947 32.4389 70.3771 32.2567 70.409C32.4272 70.2182 32.5647 70.0004 32.6638 69.7644C32.7939 69.4499 32.8795 69.1188 32.9182 68.7806L36.989 70.4599Z" fill="black"/>
<path d="M48.133 74.1067C47.6072 75.1244 47.5564 75.2092 47.4037 75.7181C47.2517 76.2235 47.1886 76.7515 47.2171 77.2786C46.8905 77.0962 46.5431 76.9539 46.1824 76.8545C45.8123 76.745 45.4311 76.6768 45.046 76.651C45.1963 76.4065 45.316 76.1444 45.4022 75.8707C45.5209 75.4636 45.5209 74.9887 45.0121 74.853C44.5032 74.7173 44.0113 75.6333 43.8247 76.1421C43.7569 76.3457 43.5703 76.8376 43.4177 77.3803C43.1802 78.2284 43.0105 79.2122 43.5533 79.3649L43.8417 79.4327C43.7625 79.5956 43.6999 79.7661 43.6551 79.9416C43.5684 80.2653 43.5005 80.5938 43.4516 80.9254L39.0754 79.6532C39.2542 79.4102 39.3812 79.1331 39.4485 78.8391C39.5247 78.5557 39.5758 78.2663 39.6012 77.974C39.6731 78.0309 39.7532 78.0766 39.8387 78.1097C39.9216 78.1347 40.0101 78.1347 40.0931 78.1097C40.0931 78.1097 40.7376 78.2284 41.1786 76.7358C41.6197 75.2431 41.908 74.0219 41.2126 73.7674H41.1617C40.6359 73.6148 40.3475 74.1236 40.2288 74.5307C40.1667 74.7748 40.1326 75.0252 40.127 75.2771C39.8047 75.1922 39.4825 75.0226 39.1772 74.9378C38.8719 74.853 38.2782 74.7173 37.905 74.8021C38.2292 74.2408 38.4854 73.6429 38.6683 73.0211C38.8222 72.5042 38.891 71.9657 38.8719 71.4267L48.133 74.1067Z" fill="black"/>
<path d="M54.9518 83.2492L53.6627 83.0456C53.3743 82.1975 52.9164 81.9431 52.9164 81.9431C52.9164 81.9431 53.2216 81.7396 53.3234 81.1628C53.3468 81.0285 53.3526 80.8916 53.3404 80.7558C53.3404 79.9755 52.7637 79.738 52.611 79.7041L51.4915 79.5345L51.4576 79.7041C51.3728 80.2808 51.2371 81.1289 51.8477 81.2307C51.9817 81.2508 52.1186 81.227 52.2379 81.1628L52.1191 81.6378C52.0745 82.0157 52.0803 82.3978 52.1361 82.7742L47.6412 82.0279C47.809 81.7303 47.913 81.4011 47.9465 81.0611C47.9896 80.8317 48.0123 80.599 48.0143 80.3656C48.0528 80.4304 48.1043 80.4865 48.1656 80.5303C48.227 80.5742 48.2968 80.6047 48.3705 80.6201H48.4554C48.8285 80.6031 49.1508 79.7889 49.3543 78.5507C49.4561 77.974 49.6766 76.1591 49.2526 76.0064L49.1338 75.9725C49.0458 75.9534 48.9539 75.9628 48.8715 75.9994C48.7892 76.036 48.7207 76.0978 48.6759 76.176C48.7607 75.9046 48.8285 75.6333 48.8794 75.3958C48.9409 75.0203 48.958 74.6388 48.9303 74.2593L49.5748 74.3781L54.7822 75.2431C55.1216 75.9413 55.7168 76.482 56.4444 76.7527C56.3766 77.1089 56.2069 77.533 56.1052 78.0758C56.0034 78.6186 56.0543 78.6694 56.1561 78.8051C55.4776 78.9748 55.1383 79.2461 55.1383 79.2631C55.1383 79.2801 55.8338 80.196 55.8338 80.196C55.6668 80.4559 55.5462 80.7429 55.4776 81.0441C55.4364 81.2052 55.4608 81.376 55.5455 81.519C55.7497 81.7421 56.0259 81.8862 56.3257 81.9261H56.4275C56.3781 82.1162 56.3385 82.3087 56.3087 82.5028C56.2467 82.8041 56.2182 83.1113 56.2239 83.4188L54.9518 83.2492ZM51.729 77.9062C51.729 77.9401 51.7629 77.974 51.8477 77.991L52.3735 78.0927L52.8146 78.1436C53.3404 78.1267 53.7305 77.8892 53.8153 77.4482V77.3803C53.8492 76.9393 53.5779 76.634 53.086 76.5492H52.9333C52.153 76.4983 51.8647 77.1598 51.746 77.7874L51.729 77.9062Z" fill="black"/>
<path d="M61.533 82.418C61.6855 82.4265 61.8384 82.4265 61.991 82.418C61.9421 82.6302 61.9081 82.8456 61.8892 83.0626C61.8621 83.3864 61.885 83.7125 61.957 84.0294L57.8522 83.7071C57.9435 83.3394 58.0059 82.9651 58.0388 82.5876C58.0569 82.3675 58.0569 82.1463 58.0388 81.9261C58.0388 81.8922 58.2424 82.1297 58.4459 82.1466C59.1583 82.1975 60.9733 78.1097 61.3973 76.1082L64.7218 76.3796C64.7218 76.3796 65.1628 79.6532 65.8752 81.078C66.2314 81.7735 66.5537 82.8081 67.3 82.876C67.2379 83.0803 67.1981 83.2907 67.1813 83.5036C67.164 83.8155 67.1811 84.1283 67.2322 84.4365L62.4998 84.0633C62.614 83.7575 62.6881 83.4383 62.7203 83.1135C62.7311 82.8985 62.7255 82.683 62.7034 82.4689C62.865 82.5059 63.0296 82.5286 63.1952 82.5368C63.4497 82.5537 63.6193 82.5028 63.6363 82.2145C63.6532 81.9261 63.1274 81.6887 62.4489 81.6378C61.7705 81.5869 61.2107 81.5869 61.1768 82.0109C61.1429 82.435 61.3125 82.4011 61.533 82.418ZM62.4828 80.2808C62.7542 80.3147 63.0087 80.213 63.0087 80.0264C63.0087 79.8398 62.6186 78.9747 62.6186 78.9747C62.6186 78.9747 62.0418 79.5854 62.0249 79.9416C62.0079 80.2978 62.2454 80.2639 62.4828 80.2808Z" fill="black"/>
<path d="M79.801 76.634C79.7425 76.93 79.7141 77.2312 79.7162 77.533C79.704 77.8183 79.7325 78.1039 79.801 78.3811C79.6799 78.3191 79.5468 78.2844 79.4108 78.2793C78.8002 78.2963 78.8002 79.297 78.8172 79.8737V80.7049C78.8341 81.994 78.8341 82.893 79.5974 82.893C79.7044 82.8757 79.8043 82.8287 79.8858 82.7573C79.8036 82.9735 79.7688 83.2049 79.784 83.4357C79.7865 83.7929 79.8437 84.1476 79.9536 84.4874L75.3909 84.5213C75.4702 84.2113 75.4988 83.8906 75.4757 83.5714C75.4817 83.3355 75.4472 83.1003 75.3739 82.876L75.7301 82.9099C76.1372 82.9099 76.4595 82.6555 76.4425 81.4173V81.0611C76.4441 80.6079 76.4214 80.1549 76.3746 79.7041C75.5605 81.0271 74.865 82.7912 74.865 84.5213H73.2028V84.3686C73.2028 84.0803 73.1519 83.2831 72.7448 81.9431C72.3377 80.6031 71.9306 80.1282 71.6593 79.8228V81.3494C71.6762 82.2993 71.7441 82.9608 72.3716 82.9608C72.4524 82.97 72.5342 82.9583 72.6091 82.9269C72.5526 83.1426 72.5298 83.3657 72.5413 83.5884C72.5345 83.9035 72.5745 84.2179 72.66 84.5213L68.7418 84.5552C68.8496 84.2212 68.9012 83.8715 68.8945 83.5205C68.905 83.2745 68.8764 83.0283 68.8096 82.7912C68.9369 82.8814 69.0812 82.9449 69.2337 82.9778C69.6238 82.9608 69.8273 82.6725 69.8104 80.9593V80.8406C69.7934 79.2631 69.7425 78.3811 69.2167 78.3811C69.0594 78.3952 68.9081 78.4476 68.7757 78.5337C68.8229 78.2764 68.8456 78.0151 68.8436 77.7535C68.8429 77.3975 68.7915 77.0434 68.6909 76.7019L73.101 76.6679C73.6099 78.2963 74.3901 79.4327 74.4071 79.3988C74.8651 78.9578 75.5266 77.1429 75.5605 76.651L79.801 76.634Z" fill="black"/>
<path d="M84.9235 82.5707C85.0778 82.5611 85.231 82.5384 85.3814 82.5028C85.3722 82.7178 85.3779 82.9332 85.3984 83.1474C85.4189 83.4723 85.4875 83.7924 85.602 84.0972L81.4972 84.4534C81.5273 84.0754 81.5329 83.6958 81.5141 83.317C81.5038 83.0922 81.4638 82.8698 81.3954 82.6555C81.3954 82.6216 81.6498 82.8251 81.8364 82.8081C82.5488 82.7573 83.6852 78.415 83.7531 76.3626L87.0776 76.0912C87.0776 76.0912 88.0614 79.2631 88.9943 80.5522C89.4693 81.1798 89.9442 82.1466 90.7075 82.0788C90.6589 82.2903 90.6532 82.5095 90.6905 82.7233C90.7057 83.038 90.7745 83.3478 90.8941 83.6393L86.1617 84.0464C86.2189 83.7275 86.236 83.4027 86.2126 83.0795C86.196 82.8611 86.1562 82.645 86.0938 82.435H86.5858C86.8402 82.418 87.0098 82.3332 86.9758 82.0618C86.9419 81.7904 86.3822 81.6208 85.7037 81.6717C85.0252 81.7226 84.4824 81.8243 84.5164 82.2484C84.5503 82.6724 84.703 82.6046 84.9235 82.5707ZM85.5341 80.3147C85.7885 80.2978 86.026 80.1621 86.009 79.9755C85.9921 79.7889 85.4323 78.9917 85.4323 78.9917C85.4323 78.9917 84.9744 79.6872 85.0083 80.0603C85.0422 80.4335 85.2797 80.3317 85.5341 80.3147Z" fill="black"/>
<path d="M99.7482 82.1636L98.4591 82.3841C97.8994 81.7056 97.3905 81.6038 97.3905 81.6038C97.5402 81.3416 97.5827 81.0317 97.5092 80.7388C97.4753 80.6201 97.4414 80.4844 97.3905 80.3487C97.3237 80.1281 97.1862 79.9355 96.9993 79.8007C96.8123 79.6658 96.5862 79.5962 96.3558 79.6023L95.2364 79.8228V79.9925C95.3551 80.5692 95.5247 81.4173 96.1184 81.2985C96.25 81.2787 96.3703 81.2125 96.4576 81.112C96.4683 81.2717 96.4909 81.4305 96.5254 81.5869C96.5982 81.9615 96.7299 82.3221 96.9156 82.6555L92.4207 83.4697C92.492 83.1335 92.4862 82.7855 92.4037 82.4519C92.3627 82.2205 92.3003 81.9933 92.2171 81.7735C92.2753 81.8231 92.3427 81.8606 92.4155 81.8839C92.4883 81.9072 92.565 81.9158 92.6412 81.9092L92.7429 81.8752C93.0822 81.7565 93.0991 80.8745 92.8786 79.6363C92.7768 79.0596 92.3698 77.2786 91.9118 77.2786H91.81C91.7222 77.2944 91.6407 77.3346 91.5747 77.3946C91.5087 77.4546 91.4609 77.5319 91.4369 77.6178C91.4365 77.3498 91.4081 77.0826 91.352 76.8206C91.2859 76.4477 91.1778 76.0836 91.0298 75.735L91.6743 75.6332L96.8647 74.6834C97.42 75.2338 98.1691 75.5444 98.951 75.5484C98.9849 75.9046 98.9849 76.3626 99.0697 76.9054C99.1545 77.4482 99.2224 77.4821 99.3581 77.5669C98.7814 77.957 98.5439 78.3472 98.5609 78.3472C98.5778 78.3472 99.5277 78.9917 99.5277 78.9917C99.4607 79.2979 99.4436 79.6129 99.4768 79.9246C99.4844 80.0057 99.5096 80.0841 99.5506 80.1544C99.5916 80.2247 99.6475 80.2852 99.7143 80.3317C99.98 80.4707 100.286 80.5127 100.579 80.4504H100.681C100.698 80.637 100.715 80.8406 100.749 81.0271C100.8 81.339 100.88 81.6455 100.986 81.9431L99.7482 82.1636ZM94.9141 78.2115C94.9141 78.2454 94.9649 78.2623 95.0328 78.2454L95.5756 78.1606C95.7203 78.1428 95.8626 78.1086 95.9996 78.0588C96.4915 77.8722 96.7799 77.516 96.712 77.075V77.0072C96.5933 76.6001 96.2371 76.3965 95.7452 76.4813L95.6095 76.5153C94.8462 76.7358 94.7953 77.4482 94.8971 78.0758L94.9141 78.2115Z" fill="black"/>
<path d="M104.854 72.7836C104.864 73.0764 104.909 73.3669 104.989 73.6487C105.046 73.9296 105.149 74.199 105.295 74.4459C105.16 74.417 105.02 74.4228 104.888 74.4629C104.243 74.6325 104.599 75.9894 104.82 76.7697C105.176 78.1097 105.464 79.0935 106.228 78.8899C106.321 78.8713 106.408 78.8305 106.482 78.7712C106.461 78.9996 106.484 79.23 106.55 79.4497C106.644 79.7665 106.781 80.0689 106.957 80.3487L102.632 81.519C102.658 81.182 102.623 80.8431 102.53 80.5183C102.48 80.2727 102.388 80.0375 102.259 79.8228C102.479 79.9076 102.581 79.9416 102.717 79.9076C102.852 79.8737 103.107 79.4157 102.649 77.7535L102.615 77.6347C102.208 76.1251 101.953 75.2092 101.461 75.3449C101.31 75.4008 101.176 75.4942 101.071 75.6163C101.052 75.4149 101.012 75.2159 100.953 75.0226C100.853 74.6536 100.717 74.2956 100.545 73.954L104.854 72.7836Z" fill="black"/>
<path d="M109.552 71.2062C109.552 71.2062 111.876 73.513 113.08 73.7165C113.012 73.4791 112.962 73.2586 112.894 73.0889C112.707 72.614 112.232 71.7998 111.622 72.0373C111.524 72.0714 111.436 72.1297 111.367 72.2069C111.299 71.9695 111.231 71.6472 111.147 71.4267C111.056 71.1731 110.93 70.9334 110.773 70.7143L114.556 69.2386C114.607 69.5439 114.573 69.7644 114.743 70.1885C114.847 70.4414 114.972 70.6853 115.116 70.9178C114.997 70.9008 114.827 70.833 114.743 70.8669C114.098 71.1214 114.335 71.9525 114.726 72.9702L115.116 73.8861C115.692 75.3958 116.422 76.9393 116.422 76.9393L113.962 77.9061C112.08 75.3618 109.705 74.8191 109.705 74.8191L109.925 75.3958C110.146 75.9555 110.485 76.7866 110.723 77.058C110.867 77.1859 111.056 77.2527 111.248 77.2446H111.333C111.444 77.1857 111.542 77.1049 111.622 77.0071C111.656 77.2566 111.718 77.5013 111.808 77.7365C111.926 78.0401 112.086 78.3255 112.283 78.5846L108.619 80.0264C108.576 79.6416 108.479 79.2648 108.331 78.9069C108.263 78.7211 108.184 78.5398 108.093 78.3641C108.222 78.4181 108.365 78.43 108.501 78.398C108.653 78.3471 108.738 78.2454 108.772 77.8892C108.806 77.533 108.043 75.4127 107.805 74.7851L107.754 74.6834C107.619 74.3611 107.228 73.7844 106.821 73.937C106.414 74.0897 106.516 74.3441 106.499 74.3102C106.407 73.9421 106.294 73.5796 106.16 73.2246C106.089 73.0264 106.004 72.8336 105.905 72.6479L109.552 71.2062Z" fill="black"/>
<path d="M119.899 66.0667C120.9 66.6773 121.765 66.7791 122.392 66.5756C122.611 67.4001 122.948 68.1886 123.393 68.9163C123.733 69.5001 124.182 70.0127 124.716 70.4259C124.055 71.2231 123.817 72.1391 124.055 72.7327L120.73 74.7512C119.968 74.3573 119.106 74.1979 118.254 74.2932C118.112 73.5061 117.825 72.7523 117.406 72.0712C117.049 71.454 116.563 70.9215 115.981 70.5107C116.625 69.5439 116.744 68.8994 116.71 68.0173L119.899 66.0667ZM121.629 72.5292C122.189 72.19 121.968 71.0874 121.273 69.968C120.577 68.8485 119.712 68.0004 119.136 68.3566C118.559 68.7128 118.847 69.9171 119.526 71.0366C120.204 72.156 120.985 72.9363 121.629 72.5292Z" fill="black"/>
<path d="M129.771 63.0645C129.981 63.4947 130.249 63.8942 130.568 64.2518C130.818 64.5167 131.118 64.73 131.45 64.8794C131.06 65.5579 131.043 66.6943 131.179 66.9657L129.075 68.9333C129.058 68.9502 128.567 68.7806 128.448 68.8146C128.329 68.8485 128.516 69.4591 128.516 69.4591L127.244 70.6464C127.093 70.348 126.898 70.0736 126.667 69.8323C126.405 69.5611 126.121 69.3115 125.819 69.0859C126.052 68.9272 126.273 68.7515 126.48 68.5601C126.774 68.285 127.035 67.9777 127.26 67.6442L127.294 67.6781C127.515 67.8986 128.024 67.8308 128.617 67.271C129.211 66.7113 129.584 66.1346 129.33 65.8632C129.075 65.5918 128.075 66.0837 127.752 66.372C127.43 66.6604 126.887 67.4746 126.836 67.8647C125.751 67.4915 124.648 67.9325 124.648 67.9325C124.478 67.5603 124.242 67.2214 123.953 66.9318C123.63 66.5695 123.252 66.2604 122.833 66.0158C123.188 65.3257 123.284 64.5317 123.105 63.7769L124.597 62.386C124.597 62.386 125.123 62.5047 125.242 62.4199C125.361 62.3351 125.191 61.8262 125.191 61.8262L126.599 60.5202C126.81 60.89 127.066 61.2319 127.362 61.5379C127.637 61.8292 127.932 62.1012 128.244 62.3521C127.889 62.4248 127.565 62.602 127.311 62.8609C127.056 63.1295 126.823 63.4189 126.616 63.726C126.616 63.7429 126.582 63.709 126.548 63.6921L126.429 63.5564C126.277 63.3867 126.022 63.1832 125.683 63.5055L125.446 63.709C124.903 64.2179 124.716 64.7098 124.92 64.9133C125.123 65.1169 125.53 65.2186 126.26 64.5571L126.463 64.3366C127.057 63.709 127.244 63.2341 127.244 63.1323C128.075 63.3501 128.952 63.3265 129.771 63.0645Z" fill="black"/>
<path d="M41.7893 53.5149C41.7025 53.5174 41.6162 53.5018 41.5357 53.4692C41.4553 53.4366 41.3825 53.3877 41.3219 53.3255C41.2613 53.2633 41.2143 53.1893 41.1838 53.108C41.1533 53.0267 41.14 52.94 41.1447 52.8534V39.8266L39.6691 52.9721C39.6527 53.1191 39.5834 53.2552 39.4742 53.3551C39.365 53.4549 39.2233 53.5117 39.0754 53.5149H35.7848C35.6369 53.5117 35.4951 53.4549 35.3859 53.3551C35.2767 53.2552 35.2075 53.1191 35.1911 52.9721L33.7154 39.8266V52.8534C33.7201 52.94 33.7068 53.0267 33.6764 53.108C33.6459 53.1893 33.5988 53.2633 33.5382 53.3255C33.4777 53.3877 33.4049 53.4366 33.3244 53.4692C33.244 53.5018 33.1577 53.5174 33.0709 53.5149H31.2899C31.2031 53.5174 31.1167 53.5018 31.0363 53.4692C30.9558 53.4366 30.883 53.3877 30.8224 53.3255C30.7619 53.2633 30.7149 53.1893 30.6844 53.108C30.6539 53.0267 30.6406 52.94 30.6453 52.8534V36.7056C30.6406 36.6189 30.6539 36.5322 30.6844 36.4509C30.7149 36.3697 30.7619 36.2956 30.8224 36.2335C30.883 36.1713 30.9558 36.1224 31.0363 36.0898C31.1167 36.0572 31.2031 36.0416 31.2899 36.0441H35.4625C35.6104 36.0473 35.7521 36.1041 35.8613 36.2039C35.9705 36.3037 36.0398 36.4398 36.0562 36.5869L37.4131 49.003L38.804 36.5869C38.8204 36.4398 38.8896 36.3037 38.9988 36.2039C39.108 36.1041 39.2497 36.0473 39.3977 36.0441H43.5533C43.6394 36.0414 43.7251 36.0569 43.8047 36.0897C43.8844 36.1224 43.9562 36.1717 44.0154 36.2341C44.0747 36.2966 44.1201 36.3709 44.1486 36.4522C44.1771 36.5334 44.1882 36.6198 44.1809 36.7056V52.8534C44.1882 52.9392 44.1771 53.0255 44.1486 53.1068C44.1201 53.188 44.0747 53.2624 44.0154 53.3248C43.9562 53.3873 43.8844 53.4365 43.8047 53.4693C43.7251 53.502 43.6394 53.5176 43.5533 53.5149H41.7893Z" fill="black"/>
<path d="M54.0189 53.5149C53.8699 53.5154 53.7261 53.4599 53.6161 53.3594C53.5061 53.2588 53.438 53.1206 53.4252 52.9721L53.052 49.9698H50.3212L49.9819 52.9721C49.9655 53.1191 49.8963 53.2552 49.7871 53.3551C49.6779 53.4549 49.5362 53.5117 49.3883 53.5149H47.251C47.1559 53.5172 47.0614 53.4977 46.9748 53.4581C46.8883 53.4184 46.8119 53.3596 46.7514 53.2861C46.691 53.2125 46.648 53.1262 46.6258 53.0336C46.6037 52.941 46.6029 52.8446 46.6235 52.7516L48.6759 36.5869C48.678 36.5119 48.6952 36.4381 48.7264 36.3698C48.7577 36.3016 48.8023 36.2403 48.8577 36.1897C48.9131 36.1391 48.9781 36.1001 49.0488 36.0751C49.1196 36.0501 49.1946 36.0395 49.2695 36.0441H54.1206C54.2708 36.0394 54.4169 36.0935 54.5277 36.1949C54.6386 36.2963 54.7055 36.4369 54.7143 36.5869L56.7667 52.7516C56.7873 52.8446 56.7865 52.941 56.7643 53.0336C56.7422 53.1262 56.6992 53.2125 56.6387 53.2861C56.5783 53.3596 56.5019 53.4184 56.4153 53.4581C56.3287 53.4977 56.2343 53.5172 56.1391 53.5149H54.0189ZM51.6951 38.4527L50.6774 47.0524H52.7128L51.6951 38.4527Z" fill="black"/>
<path d="M65.9601 53.5149C65.8304 53.5247 65.7018 53.4844 65.6009 53.4024C65.5 53.3204 65.4343 53.2028 65.4173 53.0739C65.2986 52.3784 65.2986 51.2081 65.2986 50.326V47.4934C65.2986 46.5266 65.0272 45.9668 64.1791 45.9668H62.6016V52.8534C62.6062 52.9386 62.5934 53.0239 62.5639 53.104C62.5344 53.1841 62.489 53.2573 62.4302 53.3192C62.3715 53.3812 62.3007 53.4304 62.2223 53.4641C62.1438 53.4977 62.0594 53.515 61.974 53.5149H59.8198C59.7345 53.515 59.65 53.4977 59.5715 53.4641C59.4931 53.4304 59.4224 53.3812 59.3636 53.3192C59.3049 53.2573 59.2594 53.1841 59.2299 53.104C59.2004 53.0239 59.1877 52.9386 59.1923 52.8534V36.7056C59.1877 36.6204 59.2004 36.5351 59.2299 36.455C59.2594 36.3749 59.3049 36.3017 59.3636 36.2397C59.4224 36.1778 59.4931 36.1285 59.5715 36.0949C59.65 36.0613 59.7345 36.044 59.8198 36.0441H65.8244C68.64 36.0441 68.6909 38.1135 68.6909 39.9284V40.4372C68.6909 42.1674 68.6401 44.2876 65.8413 44.559C68.6401 44.7965 68.6909 46.7132 68.6909 48.4263V51.0384C68.6909 51.6151 68.6909 52.2258 68.7418 52.7346C68.7927 53.2435 68.5383 53.5149 68.1142 53.5149H65.9601ZM65.2986 40.4712C65.2986 39.5043 65.0272 38.9615 64.1791 38.9615H62.6016V43.0494H64.1791C65.0272 43.0494 65.2986 42.5066 65.2986 41.5228V40.4712Z" fill="black"/>
<path d="M73.6268 53.5149C73.5415 53.515 73.457 53.4977 73.3786 53.4641C73.3001 53.4305 73.2293 53.3812 73.1706 53.3193C73.1118 53.2573 73.0664 53.1841 73.0369 53.104C73.0074 53.0239 72.9946 52.9386 72.9992 52.8534V38.9616H71.3539C71.2678 38.9616 71.1826 38.9444 71.1033 38.9109C71.0239 38.8775 70.9521 38.8285 70.892 38.7668C70.832 38.7052 70.7848 38.6321 70.7535 38.5519C70.7221 38.4717 70.7071 38.3861 70.7094 38.3V36.7056C70.7046 36.619 70.7179 36.5322 70.7484 36.451C70.7789 36.3697 70.8259 36.2956 70.8865 36.2335C70.9471 36.1713 71.0199 36.1224 71.1004 36.0898C71.1808 36.0572 71.2672 36.0416 71.3539 36.0441H78.0708C78.1576 36.0416 78.2439 36.0572 78.3244 36.0898C78.4048 36.1224 78.4777 36.1713 78.5382 36.2335C78.5988 36.2956 78.6458 36.3697 78.6763 36.451C78.7068 36.5322 78.7201 36.619 78.7154 36.7056V38.3C78.7177 38.3861 78.7027 38.4717 78.6713 38.5519C78.6399 38.6321 78.5928 38.7052 78.5327 38.7668C78.4726 38.8285 78.4008 38.8775 78.3215 38.9109C78.2422 38.9444 78.1569 38.9616 78.0708 38.9616H76.4086V52.8534C76.4132 52.9386 76.4004 53.0239 76.3709 53.104C76.3414 53.1841 76.2959 53.2573 76.2372 53.3193C76.1784 53.3812 76.1077 53.4305 76.0293 53.4641C75.9508 53.4977 75.8663 53.515 75.781 53.5149H73.6268Z" fill="black"/>
<path d="M81.6837 53.5149C81.5977 53.5176 81.512 53.502 81.4324 53.4693C81.3527 53.4365 81.2809 53.3873 81.2216 53.3248C81.1624 53.2624 81.117 53.188 81.0885 53.1068C81.0599 53.0255 81.0489 52.9392 81.0562 52.8534V36.7056C81.0489 36.6198 81.0599 36.5334 81.0885 36.4522C81.117 36.3709 81.1624 36.2966 81.2216 36.2341C81.2809 36.1717 81.3527 36.1224 81.4324 36.0897C81.512 36.0569 81.5977 36.0414 81.6837 36.0441H83.821C83.9077 36.0416 83.9941 36.0572 84.0745 36.0898C84.155 36.1224 84.2278 36.1713 84.2883 36.2335C84.3489 36.2956 84.3959 36.3697 84.4264 36.4509C84.4569 36.5322 84.4703 36.6189 84.4655 36.7056V52.8534C84.4703 52.94 84.4569 53.0267 84.4264 53.108C84.3959 53.1893 84.3489 53.2633 84.2883 53.3255C84.2278 53.3877 84.155 53.4366 84.0745 53.4692C83.9941 53.5018 83.9077 53.5174 83.821 53.5149H81.6837Z" fill="black"/>
<path d="M92.8617 53.5149C92.7127 53.5155 92.5689 53.4599 92.4589 53.3594C92.3489 53.2588 92.2808 53.1206 92.268 52.9721L90.6905 39.8266V52.8534C90.6978 52.9392 90.6867 53.0256 90.6582 53.1068C90.6297 53.1881 90.5843 53.2624 90.525 53.3249C90.4658 53.3873 90.394 53.4365 90.3143 53.4693C90.2347 53.5021 90.149 53.5176 90.063 53.5149H88.265C88.1796 53.515 88.0952 53.4977 88.0167 53.4641C87.9383 53.4305 87.8675 53.3812 87.8088 53.3193C87.75 53.2573 87.7045 53.1841 87.6751 53.104C87.6456 53.0239 87.6328 52.9386 87.6374 52.8534V36.7056C87.6328 36.6204 87.6456 36.5351 87.6751 36.455C87.7045 36.3749 87.75 36.3017 87.8088 36.2398C87.8675 36.1778 87.9383 36.1286 88.0167 36.0949C88.0952 36.0613 88.1796 36.044 88.265 36.0441H92.2341C92.3076 36.0419 92.3808 36.0541 92.4496 36.0802C92.5184 36.1062 92.5813 36.1456 92.6349 36.196C92.6885 36.2464 92.7316 36.3069 92.7618 36.3739C92.7919 36.441 92.8086 36.5134 92.8108 36.5869L94.3034 49.02V36.7056C94.2987 36.619 94.312 36.5322 94.3425 36.451C94.373 36.3697 94.42 36.2957 94.4806 36.2335C94.5412 36.1713 94.614 36.1224 94.6944 36.0898C94.7749 36.0572 94.8612 36.0416 94.948 36.0441H96.729C96.8157 36.0416 96.9021 36.0572 96.9825 36.0898C97.063 36.1224 97.1358 36.1713 97.1964 36.2335C97.2569 36.2957 97.304 36.3697 97.3345 36.451C97.365 36.5322 97.3783 36.619 97.3735 36.7056V52.8534C97.3783 52.9401 97.365 53.0268 97.3345 53.108C97.304 53.1893 97.2569 53.2634 97.1964 53.3255C97.1358 53.3877 97.063 53.4366 96.9825 53.4692C96.9021 53.5018 96.8157 53.5174 96.729 53.5149H92.8617Z" fill="black"/>
<path d="M101.173 53.5149C101.088 53.515 101.003 53.4977 100.925 53.4641C100.846 53.4304 100.776 53.3812 100.717 53.3192C100.658 53.2573 100.613 53.1841 100.583 53.104C100.554 53.0239 100.541 52.9386 100.545 52.8534V36.7056C100.541 36.6204 100.554 36.5351 100.583 36.455C100.613 36.3749 100.658 36.3017 100.717 36.2397C100.776 36.1778 100.846 36.1285 100.925 36.0949C101.003 36.0613 101.088 36.044 101.173 36.0441H107.466C107.551 36.044 107.636 36.0613 107.714 36.0949C107.793 36.1285 107.863 36.1778 107.922 36.2397C107.981 36.3017 108.026 36.3749 108.056 36.455C108.085 36.5351 108.098 36.6204 108.093 36.7056V38.3C108.098 38.3853 108.085 38.4705 108.056 38.5506C108.026 38.6307 107.981 38.704 107.922 38.7659C107.863 38.8278 107.793 38.8771 107.714 38.9107C107.636 38.9444 107.551 38.9617 107.466 38.9615H103.955V43.0494H107.33C107.415 43.047 107.5 43.0621 107.58 43.0937C107.659 43.1252 107.731 43.1726 107.791 43.233C107.851 43.2933 107.899 43.3653 107.93 43.4445C107.962 43.5238 107.977 43.6086 107.975 43.6939V45.3053C107.977 45.3914 107.962 45.477 107.931 45.5572C107.899 45.6373 107.852 45.7104 107.792 45.7721C107.732 45.8337 107.66 45.8827 107.581 45.9162C107.502 45.9496 107.416 45.9669 107.33 45.9668H103.955V50.5974H107.466C107.551 50.5973 107.636 50.6146 107.714 50.6482C107.793 50.6819 107.863 50.7312 107.922 50.7931C107.981 50.855 108.026 50.9282 108.056 51.0083C108.085 51.0884 108.098 51.1737 108.093 51.259V52.8534C108.098 52.9386 108.085 53.0239 108.056 53.104C108.026 53.1841 107.981 53.2573 107.922 53.3192C107.863 53.3812 107.793 53.4304 107.714 53.4641C107.636 53.4977 107.551 53.515 107.466 53.5149H101.173Z" fill="black"/>
<path d="M111.164 53.5149C111.078 53.515 110.994 53.4977 110.915 53.4641C110.837 53.4304 110.766 53.3812 110.707 53.3192C110.649 53.2573 110.603 53.1841 110.574 53.104C110.544 53.0239 110.531 52.9386 110.536 52.8534V50.6992C110.541 50.6289 110.558 50.5599 110.587 50.4957L115.642 38.9615H111.231C111.146 38.9617 111.062 38.9444 110.983 38.9107C110.905 38.8771 110.834 38.8278 110.775 38.7659C110.716 38.704 110.671 38.6307 110.642 38.5506C110.612 38.4705 110.599 38.3853 110.604 38.3V36.7056C110.597 36.6198 110.608 36.5334 110.636 36.4522C110.665 36.3709 110.71 36.2966 110.769 36.2341C110.829 36.1717 110.9 36.1224 110.98 36.0897C111.06 36.0569 111.145 36.0414 111.231 36.0441H118.508C118.594 36.0414 118.68 36.0569 118.759 36.0897C118.839 36.1224 118.911 36.1717 118.97 36.2341C119.029 36.2966 119.075 36.3709 119.103 36.4522C119.132 36.5334 119.143 36.6198 119.136 36.7056V38.8428C119.131 38.9172 119.12 38.9911 119.102 39.0633L114.047 50.5974H118.457C118.543 50.5973 118.627 50.6146 118.705 50.6482C118.784 50.6819 118.855 50.7312 118.913 50.7931C118.972 50.855 119.018 50.9282 119.047 51.0083C119.077 51.0884 119.089 51.1737 119.085 51.2589V52.8534C119.089 52.9386 119.077 53.0239 119.047 53.104C119.018 53.1841 118.972 53.2573 118.913 53.3192C118.855 53.3812 118.784 53.4304 118.705 53.4641C118.627 53.4977 118.543 53.515 118.457 53.5149H111.164Z" fill="black"/>
<path d="M10.0705 47.4595H6.69507V41.6924H10.0196V42.3879H7.32261V44.1519H9.79907V44.8473H7.32261V46.7471H10.0705V47.4595Z" fill="black"/>
<path d="M14.2262 43.3717C14.2269 43.1349 14.1686 42.9017 14.0566 42.6932C13.9527 42.5336 13.8087 42.4041 13.639 42.3178C13.4693 42.2315 13.2799 42.1913 13.0897 42.2013C12.4452 42.2013 12.0551 42.5744 12.0551 43.202C12.0551 43.8296 12.2247 43.8466 12.5978 43.9484L13.904 44.3215C14.5824 44.5081 14.9386 45.0509 14.9386 45.8651C14.9386 46.9506 14.2602 47.6121 13.1407 47.6121C12.4452 47.6121 11.9873 47.3916 11.6311 46.8828C11.2749 46.3739 11.3087 46.2043 11.3087 45.5937H11.8855C11.8717 45.8663 11.9364 46.1371 12.072 46.3739C12.2756 46.7471 12.6487 46.9337 13.1745 46.9337C13.7004 46.9337 14.345 46.5775 14.345 45.9499C14.345 45.3223 14.1244 45.1696 13.3781 44.9491L12.4282 44.6777C11.7837 44.4911 11.4614 44.0162 11.4614 43.2868C11.4551 42.8508 11.5856 42.4237 11.8346 42.0656C12.1229 41.7094 12.5469 41.5398 13.0897 41.5398C13.6325 41.5398 14.311 41.8281 14.5824 42.337C14.7265 42.6637 14.807 43.0148 14.8199 43.3717H14.2262Z" fill="black"/>
<path d="M16.0071 41.6924H19.7218V42.3879H18.1782V47.4595H17.5677V42.3879H16.0071V41.6924Z" fill="black"/>
<path d="M127.074 43.8296C127.091 43.1851 127.159 42.8628 127.345 42.5066C127.47 42.2901 127.651 42.1113 127.869 41.9889C128.087 41.8666 128.334 41.8052 128.583 41.8112C129.449 41.8112 130.025 42.4896 130.025 43.5074C130.041 43.9002 129.928 44.2875 129.703 44.6099C129.533 44.8473 129.313 45.0509 128.821 45.3732L128.363 45.6954C127.905 46.0177 127.634 46.4078 127.583 46.781H130.025V47.4595H126.955C126.989 46.4078 127.311 45.7294 128.007 45.2205L128.6 44.7795C128.974 44.5081 129.126 44.3724 129.228 44.2198C129.368 44.0029 129.439 43.7485 129.432 43.4904C129.432 42.8458 129.075 42.4388 128.533 42.4388C127.99 42.4388 127.685 42.8458 127.634 43.8296H127.074Z" fill="black"/>
<path d="M134.418 44.7116C134.418 46.5605 133.859 47.6121 132.875 47.6121C131.891 47.6121 131.348 46.5605 131.348 44.6947C131.348 42.8289 131.908 41.8112 132.892 41.8112C133.876 41.8112 134.418 42.8798 134.418 44.7116ZM131.942 44.7116C131.942 46.2043 132.264 46.9845 132.875 46.9845C133.485 46.9845 133.825 46.2043 133.825 44.6947C133.825 43.1851 133.502 42.4387 132.875 42.4387C132.247 42.4387 131.942 43.236 131.942 44.7116Z" fill="black"/>
<path d="M135.707 43.8296C135.724 43.1851 135.792 42.8628 135.979 42.5066C136.104 42.2901 136.285 42.1113 136.503 41.9889C136.72 41.8666 136.967 41.8052 137.217 41.8112C138.082 41.8112 138.659 42.4896 138.659 43.5074C138.675 43.9002 138.562 44.2875 138.337 44.6099C138.167 44.8473 137.946 45.0509 137.455 45.3732L136.997 45.6954C136.539 46.0177 136.267 46.4078 136.216 46.781H138.659V47.4595H135.589C135.623 46.4078 135.945 45.7294 136.64 45.2205L137.234 44.7795C137.607 44.5081 137.76 44.3724 137.862 44.2198C138.002 44.0029 138.073 43.7485 138.065 43.4904C138.065 42.8458 137.709 42.4388 137.166 42.4388C136.623 42.4388 136.318 42.8458 136.267 43.8296H135.707Z" fill="black"/>
<path d="M140.016 43.8296C140.033 43.1851 140.101 42.8628 140.304 42.5066C140.426 42.2876 140.606 42.1067 140.825 41.984C141.044 41.8612 141.292 41.8014 141.542 41.8111C142.407 41.8111 142.967 42.4896 142.967 43.5073C142.98 43.8974 142.874 44.282 142.662 44.6099C142.492 44.8473 142.272 45.0509 141.78 45.3732L141.305 45.6954C140.864 46.0177 140.576 46.4078 140.542 46.781H142.967V47.4595H139.914C139.948 46.4078 140.253 45.7294 140.949 45.2205L141.559 44.7795C141.796 44.6322 142.003 44.4424 142.17 44.2197C142.31 44.0029 142.381 43.7485 142.374 43.4904C142.374 42.8458 142.034 42.4387 141.492 42.4387C140.949 42.4387 140.626 42.8458 140.576 43.8296H140.016Z" fill="black"/>
<path d="M67.2491 24.9849H68.8775C69.4372 24.9849 69.7086 25.0358 69.9631 25.2224C70.1053 25.32 70.2203 25.4521 70.2975 25.6064C70.3746 25.7607 70.4113 25.9321 70.404 26.1044C70.4135 26.3043 70.3617 26.5024 70.2556 26.6721C70.1495 26.8418 69.9942 26.9751 69.8104 27.0543C70.3023 27.2578 70.5397 27.5801 70.5397 28.1059C70.546 28.3003 70.5043 28.4931 70.4186 28.6676C70.3328 28.8421 70.2055 28.9929 70.0479 29.1067C69.7595 29.2933 69.4372 29.3611 68.8096 29.3611H67.2491V24.9849ZM68.9453 26.8507C69.1684 26.8745 69.3922 26.814 69.5729 26.6811C69.643 26.6199 69.699 26.5442 69.7371 26.4593C69.7751 26.3744 69.7944 26.2823 69.7934 26.1892C69.7933 26.0963 69.7735 26.0045 69.7355 25.9198C69.6976 25.835 69.6421 25.7592 69.5729 25.6973C69.3922 25.5645 69.1684 25.504 68.9453 25.5277H67.8089V26.8507H68.9453ZM69.0471 28.8183C69.5899 28.8183 69.9122 28.5469 69.9122 28.089C69.9122 27.631 69.6238 27.3766 69.115 27.3766H67.8089V28.8183H69.0471Z" fill="black"/>
<path d="M73.8643 28.055L73.4233 29.3611H72.7787L74.3392 24.9849H74.9838L76.5443 29.3611H75.8828L75.4587 28.055H73.8643ZM74.6615 25.6464L74.034 27.5292H75.2891L74.6615 25.6464Z" fill="black"/>
<path d="M79.6314 29.3611H79.0208V24.9849H80.7509C81.3106 24.9849 81.599 25.0528 81.8534 25.2733C81.986 25.3881 82.0902 25.5321 82.1579 25.6939C82.2256 25.8558 82.2549 26.0311 82.2435 26.2062C82.2552 26.4305 82.1982 26.653 82.0799 26.844C81.9617 27.0349 81.788 27.1853 81.582 27.2748C81.9213 27.4274 82.057 27.6819 82.0909 28.1907V28.5639C82.1248 28.9879 82.1757 29.1745 82.3113 29.3611H81.565C81.5091 29.099 81.4807 28.8319 81.4802 28.5639L81.4463 28.2416C81.4124 27.8006 81.158 27.5462 80.7678 27.5462H79.6144L79.6314 29.3611ZM80.6321 27.0373C80.8841 27.06 81.1361 26.994 81.3445 26.8507C81.4362 26.7779 81.5099 26.6849 81.5599 26.579C81.6099 26.4732 81.6349 26.3572 81.6329 26.2401C81.6329 25.7991 81.3276 25.5277 80.8357 25.5277H79.6314V27.0373H80.6321Z" fill="black"/>
<path d="M61.3125 64.9642H60.7188V61.1308H59.3958V60.588H62.6355V61.1308H61.3125V64.9642Z" fill="black"/>
<path d="M65.7565 64.9642H65.1459V60.588H65.7565V64.9642Z" fill="black"/>
<path d="M71.6253 61.1308H69.2506V62.4538H71.4218V62.9627H69.2506V64.4214H71.7101V64.9642H68.657V60.588H71.6253V61.1308Z" fill="black"/>
<path d="M77.104 64.9642L75.3739 62.1994C75.1534 61.8602 75.0347 61.6396 74.9329 61.4531C74.9329 61.6396 74.9499 62.0637 74.9499 62.2672V64.9642H74.3732V60.588H74.9838L76.663 63.251C76.8436 63.5472 77.0078 63.8529 77.1549 64.167C77.1379 63.9125 77.1379 63.6412 77.1379 63.3358V60.605H77.7147V64.9642H77.104Z" fill="black"/>
<path d="M80.6151 60.588H82.1417C82.8371 60.588 83.3121 60.8085 83.6343 61.2834C83.8988 61.7165 84.0287 62.2183 84.0075 62.7252C84.0075 64.1161 83.2782 64.9642 82.0908 64.9642H80.6151V60.588ZM81.9721 64.4214C82.9389 64.4214 83.3969 63.8786 83.3969 62.7591C83.3969 62.2503 83.3121 61.8771 83.1255 61.6057C82.9389 61.3343 82.5658 61.1308 82.006 61.1308H81.2088V64.4214H81.9721Z" fill="black"/>
<path d="M87.2473 63.6581L86.8063 64.9642H86.1617L87.7222 60.588H88.3668L89.9273 64.9642H89.2657L88.8417 63.6581H87.2473ZM88.0445 61.2665L87.4169 63.1323H88.6551L88.0445 61.2665Z" fill="black"/>
<path d="M55.715 26.749H50.4059V27.3325H55.715V26.749Z" fill="black"/>
<path d="M98.7135 26.749H93.4044V27.3325H98.7135V26.749Z" fill="black"/>
<path d="M25.5059 38.8598C25.5081 38.583 25.4552 38.3084 25.3503 38.0522C25.2454 37.796 25.0906 37.5633 24.8949 37.3675C24.6991 37.1717 24.4663 37.0169 24.2101 36.912C23.9539 36.8071 23.6794 36.7542 23.4026 36.7565H2.5564C2.27877 36.7543 2.00338 36.807 1.74623 36.9117C1.48909 37.0164 1.25526 37.171 1.05815 37.3665C0.861042 37.562 0.704584 37.7947 0.597826 38.051C0.491067 38.3073 0.436148 38.5821 0.436157 38.8598V50.2752C0.440632 50.8345 0.665981 51.3695 1.06312 51.7635C1.46026 52.1574 1.997 52.3785 2.5564 52.3784H20.3664L22.0965 55.9574L22.4019 55.5334L25.1158 51.5134H25.0988C25.3611 51.1536 25.5035 50.7204 25.5059 50.2752V38.8598ZM24.3525 50.2752C24.348 50.5241 24.246 50.7614 24.0683 50.9359C23.8907 51.1104 23.6516 51.2081 23.4026 51.2081H2.5564C2.30739 51.2081 2.06825 51.1104 1.89059 50.9359C1.71294 50.7614 1.61096 50.5241 1.60651 50.2752V38.8598C1.60649 38.7358 1.63113 38.6131 1.67907 38.4988C1.72701 38.3845 1.79727 38.2809 1.88571 38.1941C1.97414 38.1072 2.07898 38.0388 2.19414 37.993C2.30929 37.9471 2.43247 37.9246 2.5564 37.9269H23.4026C23.5265 37.9246 23.6496 37.9471 23.7648 37.993C23.8799 38.0388 23.9848 38.1072 24.0732 38.1941C24.1616 38.2809 24.2319 38.3845 24.2798 38.4988C24.3278 38.6131 24.3525 38.7358 24.3525 38.8598V50.2752Z" fill="black"/>
<path d="M145.461 36.7565H124.614C124.338 36.7542 124.063 36.8071 123.807 36.912C123.551 37.0169 123.318 37.1717 123.122 37.3675C122.926 37.5633 122.771 37.796 122.667 38.0522C122.562 38.3084 122.509 38.583 122.511 38.8598V50.2752C122.51 50.5575 122.566 50.837 122.677 51.0966C122.788 51.3562 122.951 51.5904 123.156 51.7848L125.836 55.7539L125.971 55.9574L127.718 52.3784H145.461C146.02 52.3785 146.557 52.1574 146.954 51.7635C147.351 51.3695 147.576 50.8345 147.581 50.2752V38.8598C147.581 38.5821 147.526 38.3073 147.419 38.051C147.312 37.7947 147.156 37.562 146.959 37.3665C146.762 37.171 146.528 37.0164 146.271 36.9117C146.014 36.807 145.738 36.7543 145.461 36.7565ZM146.41 50.2752C146.406 50.5241 146.304 50.7614 146.126 50.9359C145.949 51.1104 145.71 51.2081 145.461 51.2081H124.614C124.367 51.2081 124.13 51.1098 123.955 50.9348C123.78 50.7599 123.681 50.5226 123.681 50.2752V38.8598C123.679 38.7366 123.702 38.6143 123.748 38.5001C123.794 38.3859 123.862 38.2821 123.95 38.195C124.037 38.1079 124.14 38.0393 124.255 37.9932C124.369 37.9471 124.491 37.9246 124.614 37.9269H145.461C145.585 37.9246 145.708 37.9471 145.823 37.993C145.938 38.0388 146.043 38.1072 146.131 38.1941C146.22 38.2809 146.29 38.3845 146.338 38.4988C146.386 38.6131 146.41 38.7358 146.41 38.8598V50.2752Z" fill="black"/>
</g>
<defs>
<clipPath id="clip0_968_338">
<rect width="147.128" height="90" fill="white" transform="translate(0.436096)"/>
</clipPath>
</defs>
</svg>
