<svg width="100" height="100" viewBox="0 0 100 100" fill="none" xmlns="http://www.w3.org/2000/svg">
<g clip-path="url(#clip0_624_1103)">
<path d="M30.8203 77.5601V66.7001H34.3603V67.9201H32.2603V71.4601H33.6203V72.7001H32.2603V77.5601H30.8203Z" fill="white"/>
<path d="M41.68 66.7001H43.12V75.8401C43.12 77.0801 42.44 77.6801 41.08 77.6801C39.72 77.6801 39.04 77.0801 39.04 75.8401V66.7001H40.48V75.8401C40.48 76.2601 40.7 76.4801 41.08 76.4801C41.48 76.4801 41.68 76.2601 41.68 75.8401V66.7001Z" fill="white"/>
<path d="M48.2402 77.5601V66.7001H51.7002V67.9201H49.6802V71.4201H51.0202V72.6401H49.6802V76.3401H51.7802V77.5601H48.2402Z" fill="white"/>
<path d="M60.5201 77.6201L60.0601 77.1001C59.7601 77.5001 59.1601 77.6601 58.5201 77.6601C57.4201 77.6601 56.5801 77.1801 56.5801 75.8201V68.4201C56.5801 67.2401 57.2601 66.5601 58.6401 66.5601C60.0201 66.5601 60.6201 67.2401 60.6201 68.4201V70.3401H59.3201V68.4201C59.3201 68.0201 59.1201 67.8001 58.6401 67.8001C58.2001 67.8001 58.0201 68.0201 58.0201 68.4201V75.8201C58.0201 76.2601 58.2601 76.4601 58.6201 76.4601C59.0601 76.4601 59.2801 76.2601 59.3201 75.9001V73.5601H58.5601V72.4001H60.7001V77.6201H60.5201Z" fill="white"/>
<path d="M65.6602 68.4201C65.6602 67.2201 66.3202 66.5801 67.7002 66.5801C69.0802 66.5801 69.7602 67.2201 69.7602 68.4201V75.8201C69.7602 77.0201 69.1002 77.6601 67.7002 77.6601C66.3202 77.6601 65.6602 77.0201 65.6602 75.8201V68.4201ZM68.3202 68.4201C68.3202 68.0201 68.1202 67.8001 67.7002 67.8001C67.3202 67.8001 67.1002 68.0201 67.1002 68.4201V75.8201C67.1002 76.2401 67.3202 76.4601 67.7002 76.4601C68.1202 76.4601 68.3202 76.2401 68.3202 75.8201V68.4201Z" fill="white"/>
<path d="M28.7198 30.76C29.2598 30.86 29.5398 31.32 29.7398 32.46C30.1198 34.72 30.6798 35.58 31.7598 35.58C31.7798 35.58 31.7998 35.58 31.8398 35.58C31.8598 35.58 31.8798 35.58 31.8798 35.58C32.5598 35.58 32.9798 35.22 33.4998 34.2L34.1398 32.94L34.6998 33.72C35.0398 34.2 35.3198 34.9 35.3198 35.24C35.3198 35.6 35.5198 35.94 35.7398 36.02C36.0598 36.12 36.0398 36.68 35.6598 38.16C35.1998 39.96 35.1998 40.18 35.7998 40.5C36.1598 40.7 36.4398 41.24 36.4598 41.68C36.4598 42.16 36.4998 42.32 36.6398 42.2C36.6998 42.3 36.7798 42.2 36.9598 41.94C37.1598 41.62 37.3198 40.74 37.3198 39.98C37.3198 39.08 37.4798 38.62 37.7998 38.58C38.3998 38.64 38.7198 39.44 38.7198 40.88C38.7198 41.66 39.1798 42.52 40.3398 43.76C41.3998 44.92 42.1998 45.84 42.8198 46.6C44.0998 48.44 44.0398 49.46 42.9598 50.44C42.6598 50.72 42.3198 50.98 41.9998 51.24C40.8198 51.74 38.5998 52.26 35.6998 51.22C35.0398 50.98 34.0198 50.02 33.4598 51.58C33.2398 53.34 33.0998 52.3 33.0598 52.62C33.0198 53.04 31.9798 52.96 32.0798 53.32C32.3998 54.44 32.4398 54.46 33.6398 53.72C35.2598 52.72 36.0598 52.8 37.2798 54.02C38.5398 55.26 39.0998 55.2 38.4198 53.88C37.8598 52.78 38.3398 52.36 39.0998 53.28C39.5198 53.78 39.6798 53.76 40.1398 53.12C40.5798 52.5 41.2798 52.3 42.6998 52.36L42.8598 52.4C44.4598 52.82 44.6998 52.82 45.1398 52.22C45.3998 51.86 45.6198 51.34 45.6198 51.06C45.6198 50.76 45.7598 50.6 45.9998 50.58C46.4598 50.62 47.1798 51.04 47.9398 51.8C49.4798 53.34 49.9998 55.16 49.9998 58.94C49.9998 61.78 49.9798 61.88 48.9798 62.26C48.0398 62.62 47.9998 62.7 48.5798 63.12C49.1598 63.54 49.1598 63.64 48.6398 64.18C48.2398 64.58 48.1998 64.84 48.4798 65.02C48.5198 65.04 48.5798 65.06 48.6598 65.04C48.9198 65.1 49.5798 64.68 50.1998 64.04L51.1998 62.96L50.9998 63.86C50.8398 64.58 50.8798 64.84 51.1598 64.78C51.2198 64.8 51.2798 64.78 51.3598 64.76C51.6398 64.66 51.8398 64.02 51.8398 63.32C51.8398 61.56 52.2198 61.1 53.7598 61.1C54.6598 61.1 55.0398 60.94 54.9198 60.64C54.8198 60.36 54.0998 60.18 53.1398 60.18C51.2598 60.18 50.7398 59.46 52.1798 58.82C53.2798 58.32 53.3998 57.82 52.5998 57.86C52.4198 57.86 52.1998 57.88 51.8998 57.94C51.6198 58 51.4198 58.04 51.2598 58.04C50.9398 58.02 50.8798 57.82 50.8798 57.3C50.8798 56.82 51.2198 55.86 51.6398 55.18L52.3998 53.94L51.4198 52.78L50.4398 51.62L53.1998 50.12C54.8998 49.2 55.5598 48.86 56.2598 48.84C56.6398 48.84 57.0398 48.94 57.6398 49.1C58.3998 49.3 58.9798 49.38 59.3198 49.36C59.9998 49.38 60.0598 49.1 59.3398 48.58C58.5998 48.04 58.8398 47.22 59.7198 47.22C60.0198 47.22 60.2598 46.88 60.2598 46.48C60.2598 46.08 60.4398 45.66 60.6398 45.52C61.4598 45.02 60.9998 44.2 59.8998 44.2C58.7798 44.2 58.3998 43.72 59.1598 43.26C59.2198 43.22 59.3198 43.2 59.4598 43.2C59.8998 43.2 60.6198 43.32 61.3398 43.5C63.4198 44.04 64.0998 44.98 63.8198 46.92C63.7198 47.64 63.9798 48 64.4398 47.96C64.8398 48 65.4598 47.68 66.1198 47.02C67.2198 45.92 67.3198 44.3 66.3998 42.58C66.0398 41.92 65.7198 40.58 65.6798 39.62C65.6398 38.66 65.2598 37.1 64.8398 36.14C64.3198 34.98 64.2198 34.48 64.4998 34.42C65.3998 34.48 66.1598 35.44 66.9198 37.5C67.3598 38.68 67.8998 39.76 68.1198 39.9C68.2398 39.98 68.3398 40 68.4398 39.98C68.9598 40.06 69.2598 39.04 69.0398 37.66C68.8998 36.82 68.8598 36.48 68.9998 36.42C69.1198 36.44 69.2798 36.54 69.5198 36.66C70.2198 37.04 70.3398 37.32 70.1398 38.3C70.0198 38.96 69.5798 39.94 69.1598 40.5C68.4198 41.5 68.4198 41.52 69.1398 41.9C69.4198 42.04 69.6998 42.12 69.9598 42.1C71.2398 42.16 72.2998 40.5 72.2998 38.14C72.2998 37.88 72.2998 37.64 72.2598 37.42C72.4998 36.04 72.9798 34.24 69.6198 31.62L66.1198 28.96L64.5598 28.66L63.8998 28H61.3198C61.2798 28 61.2398 28 61.1998 28H61.1798C55.9998 28 52.9998 31.06 52.9998 36.32C52.9998 37.96 52.8998 38.16 52.0598 38.38C51.7998 38.44 51.5598 38.48 51.2798 38.48C50.2998 38.46 49.0598 38.02 46.4598 36.92C43.9998 35.86 43.0398 35.14 44.0798 35.14C44.2798 35.14 44.4598 34.98 44.4598 34.78C44.4598 34.58 43.9198 34.38 43.2398 34.32C42.4198 34.24 41.9798 33.98 41.8998 33.52C41.8398 33.18 41.8598 33.02 42.0998 33C42.2398 33 42.4198 33.04 42.6798 33.1C42.9998 33.18 43.2198 33.22 43.3598 33.2C43.6398 33.22 43.6998 33.12 43.5598 32.92C43.4198 32.68 42.9198 32.48 42.4798 32.48C41.5198 32.48 39.1998 31.16 39.1998 30.6C39.1998 30.4 38.8398 30.22 38.3998 30.22C37.4998 30.22 35.0598 28.82 35.0598 28.3C35.0598 28.12 35.6998 27.66 36.4598 27.3C37.6198 26.76 37.8998 26.38 38.0998 25.22C38.2598 24.22 38.1198 23.72 37.7198 23.8C37.5198 23.76 37.2398 23.92 36.8798 24.28C36.7598 24.4 36.6798 24.46 36.5998 24.48C36.4798 24.44 36.3998 24.24 36.3198 23.9C36.1798 23.38 36.0398 23.12 35.8598 23.1C35.8398 23.1 35.7998 23.1 35.7798 23.12C35.7598 23.12 35.7598 23.12 35.7398 23.1C35.5598 23.08 35.3398 23.32 35.0398 23.8C34.7798 24.24 34.1598 24.54 33.6198 24.54C32.4198 24.54 30.5998 25.46 30.3198 26.22C30.1998 26.56 29.6398 26.8 29.0198 26.8C27.4598 26.8 27.2798 27.22 28.4598 28.16L29.4998 29L28.3998 29.42C27.2398 29.98 27.3998 30.52 28.7198 30.76ZM60.3198 30.32H61.4398L59.9398 31.02C59.1198 31.4 57.9398 32.24 57.3198 32.9C56.6598 33.6 56.2398 33.96 55.9598 34.02C55.7998 33.98 55.7198 33.74 55.7198 33.32C55.7198 31.82 58.0198 30.32 60.3198 30.32ZM59.7398 40.46C60.5798 40.48 62.3598 41.62 62.3598 42.16C62.3598 42.22 62.3598 42.26 62.3398 42.28C62.1198 42.24 61.5998 42.06 60.3398 41.62C58.3398 40.94 58.1198 40.48 59.7398 40.46ZM61.8398 35.22C61.8598 35.22 61.8998 35.22 61.9198 35.22C62.1798 35.24 62.4198 35.28 62.6198 35.36C62.9198 35.48 63.0598 35.74 62.9398 35.96C62.8198 36.16 62.3998 36.24 61.9198 36.24C61.2198 36.22 60.4398 36.04 60.4398 35.74C60.4198 35.46 61.1398 35.24 61.8398 35.22ZM63.1198 37.84C63.7598 37.86 63.8798 38.08 63.8798 39.1C63.8798 39.78 63.7998 40.44 63.6798 40.54C63.5998 40.62 63.4598 40.66 63.2998 40.66C62.6598 40.62 61.6398 40.22 61.1798 39.72C60.6198 39.1 60.6398 39 61.4398 38.44C61.8998 38.1 62.6398 37.84 63.1198 37.84Z" fill="white"/>
<path d="M95.66 64.94C95.76 64.9 95.86 64.86 96 64.8C96 63.08 96.92 61.18 97.22 59.48C97.56 57.62 97.76 55.76 97.9 53.88C98.2 50 97.84 46.46 97.34 42.62C97.08 40.56 96.66 38.6 96.22 36.78C96.02 36 94.76 31.4 94.06 31.18C93.76 30.58 93.46 29 92.84 28.78C92.8 28.56 92.76 28.32 92.72 28.06C92.62 28.02 92.52 27.98 92.4 27.94C92.36 27.72 92.34 27.52 92.3 27.3C92.2 27.26 92.1 27.24 92 27.2C91.94 26.66 91.26 25.3 90.82 25.14C90.8 24.92 90.78 24.7 90.74 24.48C90.16 24.32 90.2 23.72 89.64 23.62C89.4 23.12 88.92 22.12 88.42 22C88.4 21.92 88.38 21.82 88.34 21.68C86.74 21.26 87.56 19 86.02 18.8C86 18.7 85.96 18.6 85.92 18.48C85.82 18.46 85.7 18.44 85.58 18.4C85.56 18.3 85.54 18.18 85.52 18.08C84.94 17.96 85 17.34 84.4 17.2C84.38 17.1 84.36 17 84.32 16.88C84.2 16.86 84.1 16.84 84 16.82C83.9 16.36 83.24 15.74 82.8 15.62C82.66 15.02 80.76 13.6 80.26 13.08C79.62 12.46 77.74 11.56 77.54 10.9C77.06 10.78 76.46 10.54 76.3 10.08C76.1 10.06 75.9 10.04 75.66 10C75.62 9.90003 75.58 9.80003 75.54 9.70003C75.32 9.66003 75.08 9.62003 74.86 9.56003C74.82 9.46003 74.8 9.36003 74.76 9.26003C74.54 9.24003 74.32 9.22003 74.08 9.20003C73.68 8.24003 71.52 8.30003 71.16 7.28003C70.92 7.24003 70.7 7.22003 70.44 7.18003C70.4 7.08003 70.38 6.98003 70.34 6.90003C69.86 6.82003 68.9 6.54003 68.7 6.14003C68.08 6.06003 66.56 5.88003 66.34 5.30003C66.12 5.28003 65.9 5.26003 65.64 5.24003C65.6 5.14003 65.56 5.02003 65.52 4.90003C65.18 4.86003 64.84 4.84003 64.48 4.80003C64.44 4.70003 64.4 4.60003 64.36 4.52003C60.82 2.72003 56.02 2.74003 52.1 2.74003C50.42 2.74003 48.76 2.80003 47.08 2.88003C44.9 2.98003 42.68 2.94003 40.54 3.34003C39.64 3.52003 35.42 4.14003 35.16 4.78003C34.94 4.84003 34.72 4.88003 34.5 4.94003C34.46 5.04003 34.42 5.14003 34.36 5.26003C33.76 5.26003 32.16 5.40003 31.98 6.00003C29.08 6.20003 26.68 10.04 24.08 10.04C23.68 11.2 20.7 12 20.4 13.2C20.02 13.36 19.32 13.56 19.22 14C17.72 14.32 16.56 16.72 15.36 17.6C14.8 16.62 15.7 14.66 16.78 14.42C16.8 14.3 16.82 14.18 16.86 14.06C16.98 14.04 17.08 14.02 17.18 14C17.2 13.88 17.22 13.78 17.26 13.68C17.38 13.66 17.48 13.64 17.6 13.62C17.62 13.52 17.66 13.42 17.7 13.3C18.1 13.22 20.14 10.94 20.4 11.24C20.68 10.44 22.12 10 22.78 9.52003C23.56 8.94003 24.24 8.14003 25.16 8.00003C25.42 7.32003 26.28 7.56003 26.5 6.88003C26.86 6.86003 27.18 6.84003 27.56 6.80003C27.62 6.72003 27.68 6.62003 27.74 6.50003C27.94 6.46003 28.16 6.44003 28.38 6.40003C28.4 6.30003 28.44 6.20003 28.46 6.10003C29.12 5.86003 30.7 5.94003 30.9 5.28003C31.24 5.26003 31.6 5.24003 31.96 5.22003C32 5.10003 32.04 5.00003 32.08 4.86003C32.42 4.84003 32.78 4.82003 33.16 4.78003C33.18 4.70003 33.22 4.60003 33.26 4.46003C33.6 4.44003 33.96 4.42003 34.34 4.38003C34.78 3.44003 36.28 3.24003 37.18 3.18003C38 1.62003 40.42 3.76003 40.42 2.04003C41.8 1.98003 49.16 -0.0199705 49.72 1.16003C51.86 1.18003 54.02 0.940029 56.16 1.10003C57.14 1.18003 60.9 1.52003 61.32 2.40003H62.38C62.42 2.54003 62.46 2.66003 62.5 2.80003C62.84 2.84003 63.18 2.86003 63.54 2.90003C63.58 3.00003 63.64 3.10003 63.7 3.20003C64.8 3.28003 64.92 3.58003 65.98 3.66003C66.02 3.78003 66.08 3.88003 66.14 4.02003C67.26 4.08003 72.58 5.52003 72.88 6.42003C73.12 6.44003 73.34 6.44003 73.6 6.46003C73.78 7.12003 74.54 7.60003 75.18 7.68003C75.2 7.78003 75.24 7.86003 75.28 8.04003C76.7 8.04003 76.4 8.72003 77.62 8.88003C77.66 8.98003 77.7 9.08003 77.74 9.18003C77.94 9.20003 78.14 9.24003 78.4 9.26003C78.7 10.36 81.64 11.72 82.6 12.44C83.86 13.4 84.92 14.7 86.18 15.76C87.48 16.86 88.04 17.54 88.86 19.14C89.34 20.08 89.86 21.8 90.84 22.06C90.98 22.86 91.28 23.16 92.02 23.26C92.06 23.48 92.1 23.68 92.14 23.92C92.76 24.18 92.6 25.06 93.2 25.3C93.48 25.88 93.42 27.08 94.02 27.28C94.12 27.7 94.42 28.38 94.82 28.46C94.98 28.88 95.18 29.54 95.62 29.68C96.1 30.8 95.76 33.36 96.84 33.66C97.52 35.04 97.88 42.14 98.86 42.48C99.12 43.98 99.28 45.1 99.4 46.66C99.48 47.74 99.7 48.86 99.62 49.96C99.58 50.42 98.18 50.98 99.26 51.3V55.2C99.16 55.24 99.06 55.28 98.92 55.34V55.96C99.02 56 99.12 56.04 99.24 56.1V56.76C99.14 56.8 99.02 56.84 98.88 56.92V58.74C98.74 58.8 98.64 58.84 98.52 58.9C98.48 59.12 98.44 59.34 98.4 59.58C98.3 59.62 98.2 59.64 98.08 59.68C98.08 60.76 97.82 64.78 96.92 65.32C96.88 66.02 96.78 67.5 96.06 67.7C96.06 68.44 95.7 70.28 94.9 70.48C94.86 71.18 94.48 72.64 93.7 72.88C93.68 73.1 93.66 73.34 93.64 73.58C93.54 73.62 93.42 73.66 93.32 73.7C93.3 73.94 93.26 74.16 93.24 74.42H92.52C92.5 74.32 92.46 74.2 92.42 74.02C91.84 74.12 91.6 74.38 91.7 74.82C91.94 74.86 92.16 74.9 92.42 74.96C92.44 75.3 92.46 75.64 92.48 75.98C92.34 76.02 92.24 76.04 92.1 76.06C91.72 76.9 90.62 79 89.72 79.3C89.62 80.14 89.3 80.38 88.46 80.46C88.46 81.14 87.58 82.7 86.9 82.84C86.88 82.94 86.86 83.04 86.82 83.16C86.44 83.26 85.76 83.98 85.64 84.36C85.54 84.38 85.42 84.4 85.3 84.44C85.28 84.56 85.26 84.66 85.22 84.78C85 84.8 84.78 84.84 84.52 84.86C83.88 85.3 83.88 86.74 82.9 86.74C82.88 86.5 82.86 86.28 82.84 86.04C82.6 86 82.38 85.96 82.12 85.94V85.32C83.34 85.14 82.94 84.44 84.4 84.38C84.44 83.58 85.08 82.18 86.02 82C86.38 81.16 87.2 80.56 87.3 79.72C87.38 79.7 87.48 79.66 87.6 79.62C87.62 79.52 87.66 79.42 87.68 79.28C88.6 79.06 89.06 77.04 90.02 76.8C90.02 76.46 91.9 73.6 92 73.58C92.36 71.5 94.28 70.02 94.5 68.1C94.6 68.06 94.7 68.04 94.82 68C94.82 67 95.54 65.62 95.66 64.94C95.76 64.9 95.6 65.2 95.66 64.94ZM98.8 48.24C98.34 48.12 98.26 48.16 98.54 48.38C98.62 48.4 98.84 48.22 98.8 48.24C98.68 48.32 98.66 48.06 98.8 48.24Z" fill="white"/>
<path d="M22.76 88.54C22.76 88.58 22.8 88.66 22.82 88.78C23.76 89.2 24.22 89.96 25.14 90.06C25.18 90.16 25.2 90.26 25.26 90.38C25.36 90.4 25.46 90.44 25.56 90.46C25.6 90.58 25.62 90.68 25.66 90.8C25.78 90.82 25.88 90.86 25.98 90.88C26 91 26.04 91.1 26.08 91.22C26.88 91.22 29.4 91.46 29.66 92.38C31 93.38 42.48 98.7 43 96.46C43.36 97.28 44.9 97.2 45.56 97.2C45.62 97.36 45.66 97.48 45.72 97.64C47.44 97.36 47.72 98.04 49.62 98.06C51.74 98.06 53.92 97.94 56.02 97.64C57.64 97.42 59.3 97.1 60.9 96.82C61.68 96.68 63.04 95.98 64.04 96.06L64.08 96.8C64.3 96.96 64.62 96.8 64.84 97.1C63.96 97.26 60.64 97.72 60.38 98.4C59.42 98.44 55.94 98.48 55.56 99.22H46.96C46.9 99.12 46.82 99.02 46.74 98.88C43.32 98.8 39.72 97.82 36.56 97.62C36.5 97.5 36.46 97.42 36.42 97.3C35.24 97.18 30.42 95.94 30.04 94.88C29.3 94.54 28.58 94.76 28.04 94.5C27.64 94.3 27.64 94.24 27.22 93.94C26.7 93.56 24.94 92.54 24.82 92.08C24.12 92.1 23.74 91.86 23.66 91.36C23.28 91.16 22.56 90.94 22.42 90.52C22.2 90.48 21.98 90.44 21.72 90.4C21.46 89.64 19.1 88.38 18.36 87.92C17.3 87.24 15.54 85.06 14.5 84.82C14.42 84.38 13.76 83.72 13.32 83.62C13.16 82.94 10.96 80.44 10.4 79.76C9.84003 79.1 8.92003 77.4 8.10003 77.2C8.12003 76.5 7.88003 76.1 7.36003 75.98C7.32003 75.76 7.28003 75.54 7.24003 75.3C7.14003 75.26 7.04003 75.22 6.92003 75.18C6.82003 74.52 6.38003 73 5.74003 72.76C5.64003 72 4.88003 69.86 4.16003 69.54C4.04003 68.66 3.38003 65.94 2.54003 65.56C2.50003 64.78 2.40003 62.66 1.70003 62.38C1.70003 60.26 1.14003 57.84 0.880026 55.52C0.560026 52.8 0.880026 50.72 0.880026 48.16C0.760026 48.1 0.640026 48.06 0.540026 48C0.540026 46.34 0.400026 39.6 2.06003 38.8C2.08003 38.44 2.10003 38.08 2.12003 37.72C2.22003 37.68 2.32003 37.64 2.44003 37.6C2.88003 35.1 3.10003 33.22 4.08003 31.02C4.58003 29.88 5.70003 25.96 6.88003 25.6C6.90003 25.38 6.90003 25.16 6.92003 24.92C7.02003 24.88 7.12003 24.84 7.24003 24.8C7.32003 24.28 7.48003 23.38 8.06003 23.22C8.08003 23.12 8.10003 23.02 8.14003 22.88H9.26003C9.28003 22.6 9.30003 22.36 9.32003 22.1C9.44003 22.06 9.56003 22.04 9.66003 22C9.68003 21.9 9.72003 21.78 9.74003 21.7C10.2 21.44 10.44 22.04 10.86 22C10.9 21.86 10.92 21.74 10.96 21.6C11.3 21.64 11.62 21.66 11.96 21.72C12 21.72 12.02 21.86 12.06 21.96C10.74 22.3 10.26 24.26 9.32003 24.48C9.26003 25.16 8.20003 26.74 7.72003 26.94C7.70003 27.62 7.64003 29.84 6.92003 30.08C6.90003 30.3 6.88003 30.52 6.86003 30.74C5.96003 31.12 4.54003 34.24 4.48003 35.2C4.38003 35.24 4.28003 35.3 4.14003 35.36C4.02003 37.98 2.92003 40.68 2.62003 43.32C2.18003 46.4 1.80003 49.48 2.00003 52.58C2.16003 54.98 2.76003 57.42 3.26003 59.6C3.48003 60.56 3.38003 62.9 4.44003 63.28C4.44003 63.9 4.94003 67.82 5.96003 67.66C6.00003 68.06 6.02003 68.42 6.06003 68.8C6.16003 68.84 6.26003 68.86 6.38003 68.92C6.40003 69.26 6.44003 69.6 6.46003 69.96C6.56003 70 6.66003 70.04 6.78003 70.08C6.80003 70.3 6.80003 70.52 6.82003 70.78C6.92003 70.82 7.04003 70.86 7.16003 70.92C7.20003 71.14 7.22003 71.36 7.26003 71.6C7.74003 71.74 8.38003 73.14 8.48003 73.58C8.56003 73.62 8.66003 73.66 8.76003 73.68C9.00003 74.28 9.36003 75.9 9.96003 76.1C9.98003 76.32 10.02 76.54 10.06 76.78C10.14 76.8 10.24 76.84 10.38 76.88C10.4 76.96 10.44 77.08 10.46 77.2C11.18 77.36 12.1 79.32 12.78 80C13.48 80.72 14.34 81.24 15.02 81.98C15.38 82.38 16.76 83.6 16.84 84C16.94 84.02 17.06 84.06 17.18 84.08C17.2 84.18 17.22 84.26 17.24 84.38C17.36 84.4 17.46 84.44 17.58 84.46C17.8 85.3 19.06 85.24 19.24 86.02C19.36 86.04 19.46 86.06 19.56 86.08C19.58 86.18 19.62 86.28 19.64 86.4C20.28 86.46 21.48 87.36 21.66 87.98C21.94 88.16 22.74 88.54 22.76 88.54C22.78 88.58 22.52 88.44 22.76 88.54ZM6.44003 28.1C6.58003 28 6.72003 27.9 6.86003 27.78C6.76003 27.6 6.60003 27.56 6.42003 27.64C6.44003 27.82 6.44003 27.96 6.44003 28.1ZM6.46003 28.12H6.08003V29.2C6.20003 29.2 6.30003 29.18 6.44003 29.18M8.48003 23.7C8.42003 23.74 8.48003 23.9 8.48003 24.04V23.7ZM8.48003 24.02H9.24003C9.20003 23.76 9.18003 23.54 9.14003 23.24M7.58003 26.04C7.72003 25.32 7.16003 25.86 7.16003 25.86C7.20003 26.18 7.64003 26.02 7.58003 26.04C7.70003 25.42 7.38003 26.08 7.58003 26.04Z" fill="white"/>
<path d="M38.4996 94.44C38.4396 94.28 38.3996 94.2 38.3596 94.08C37.5996 94 34.5396 93.28 34.3596 92.88C33.4396 92.8 30.1996 91.76 29.9596 90.88C29.7396 90.86 29.5396 90.84 29.2996 90.8C29.2596 90.7 29.2196 90.6 29.1796 90.48C28.8396 90.44 28.4996 90.4 28.1396 90.36C28.0796 90.26 28.0196 90.16 27.9396 90.02H26.1196C26.0796 89.9 26.0596 89.82 26.0196 89.7C25.5596 89.58 24.9196 88.96 24.7796 88.5C23.6796 88.4 23.5196 87.36 22.4796 87.24C22.2196 86.56 21.3596 86.8 21.2196 86.1C21.0996 86.08 20.9996 86.06 20.8596 86.02C20.7196 85.42 19.0996 84.44 18.5196 84.4C18.2996 83.82 17.4396 82.56 16.8996 82.36C16.7396 81.46 16.1396 81.42 15.9796 80.54C13.1996 80.02 12.7796 74.7 10.0996 74.44C10.0796 74.18 10.0396 73.94 10.0196 73.7C9.91964 73.66 9.81964 73.62 9.71964 73.58C9.67964 73.36 9.65964 73.14 9.61964 72.92C9.51964 72.88 9.39964 72.84 9.25964 72.8C9.23964 72.3 9.01964 71.36 8.49964 71.22C8.47964 71 8.45964 70.76 8.41964 70.52C8.31964 70.48 8.19964 70.44 8.07964 70.4C8.05964 70.18 8.03964 69.96 8.01964 69.7C7.91964 69.66 7.81964 69.62 7.69964 69.58C7.67964 69.24 7.65964 68.9 7.61964 68.54C7.51964 68.5 7.41964 68.46 7.31964 68.42C7.23964 67.8 6.61964 65.82 6.09964 65.64C6.01964 64.56 5.65964 63.68 5.65964 62.54C5.51964 62.48 5.41964 62.44 5.29964 62.4C5.13964 60.34 4.17964 58.72 3.69964 56.9C3.23964 55.16 3.35964 53.16 3.39964 51.38C3.43964 49.84 3.55964 48.32 3.63964 46.78C3.71964 45.28 3.73964 39.02 5.23964 38.44C5.57964 37.26 6.77964 31.18 7.61964 30.86C7.83964 30.34 7.89964 29.46 8.43964 29.26C8.49964 28.68 8.65964 28.2 9.21964 28.02C9.23964 27.8 9.25964 27.6 9.25964 27.36C9.37964 27.32 9.47964 27.3 9.61964 27.26C9.63964 27.04 9.67964 26.8 9.69964 26.56C9.79964 26.52 9.89964 26.5 9.99964 26.46C10.0196 26.34 10.0396 26.24 10.0796 26.12C10.1796 26.08 10.2796 26.06 10.3796 26.04C10.4196 25.82 10.4396 25.6 10.4796 25.34C10.5996 25.32 10.6996 25.28 10.7796 25.26C10.9796 24.88 11.1596 24.52 11.3796 24.1C12.0396 23.94 15.9596 18.28 16.2796 18.54C17.0996 19.18 13.2796 22.88 13.2196 23.22C13.1196 23.24 13.0196 23.26 12.8996 23.3C12.5796 24.42 10.9996 25.18 10.8396 26.44C10.7196 26.46 10.6196 26.5 10.5396 26.52C10.3396 26.88 10.1196 27.6 9.69964 27.74C9.67964 27.96 9.63964 28.18 9.61964 28.44C9.49964 28.48 9.39964 28.5 9.25964 28.54C9.23964 28.76 9.21964 28.96 9.19964 29.2C9.09964 29.24 8.99964 29.28 8.85964 29.34C8.75964 30.9 7.65964 31.92 7.65964 33.6C6.19964 34.38 7.21964 38.96 5.65964 39.78C5.61964 40.46 5.45964 41.94 4.85964 42.18C4.71964 44.98 4.23964 47.8 4.25964 50.7C4.27964 52.82 4.65964 54.84 5.05964 56.94C5.29964 58.2 5.43964 63.68 6.81964 64.18V65.24C7.69964 65.72 7.09964 67.04 8.01964 67.36C8.05964 67.88 8.23964 69.18 8.79964 69.36C8.81964 69.58 8.83964 69.82 8.85964 70.08C10.1996 70.68 11.1596 74.6 12.3796 74.96C12.4996 75.42 12.7396 76.04 13.2196 76.14C13.2196 76.56 13.6196 77.22 13.9996 77.34C14.1396 78.66 15.8996 79.56 16.7396 80.52C17.2396 81.1 17.5996 81.96 18.0996 82.46C18.4996 82.88 19.1196 82.62 19.2796 83.26C19.3596 83.28 19.4596 83.3 19.5996 83.34C19.7596 83.96 22.2996 85.9 22.9396 86.42C23.9996 87.26 25.0196 88.48 26.3796 88.56C26.4196 88.68 26.4596 88.76 26.5196 88.9H27.9796C28.0396 89.04 28.0796 89.14 28.1196 89.24C28.3396 89.28 28.5596 89.32 28.7996 89.34C28.8196 89.44 28.8596 89.54 28.8996 89.66C29.3596 89.74 29.9596 90 30.0996 90.44C31.2796 90.64 30.5596 90.9 31.4196 91.24C32.2796 91.58 33.4196 91.68 34.3196 91.98C35.1196 92.24 39.0796 93.02 39.3396 93.62C39.5596 93.66 39.7596 93.7 39.9796 93.74C40.0196 93.86 40.0596 93.96 40.1196 94.12C43.0196 94.12 45.8396 95.1 48.7596 95.16C49.9996 95.18 56.5396 95.48 56.8996 94.54C57.1196 94.52 57.3396 94.48 57.5796 94.46C57.6196 94.36 57.6596 94.26 57.6796 94.16C58.7196 93.88 64.0596 93.38 64.4796 92.52C64.6996 92.5 64.9196 92.48 65.1596 92.46C65.7396 91.42 68.4996 91.64 68.9196 90.56C69.6396 90.56 70.1996 90.14 70.8996 90.12C70.8196 91 70.5796 91.24 69.6996 91.32C69.6596 91.42 69.6396 91.52 69.5796 91.64C68.5796 91.8 67.7996 92.46 66.9196 92.52C66.8796 92.62 66.8196 92.72 66.7596 92.84C66.4196 92.88 66.0796 92.92 65.7196 92.96C65.6796 93.06 65.6396 93.16 65.5996 93.28C64.8996 93.32 62.6596 93.86 62.3796 94.5C61.5396 94.5 59.0196 94.7 58.6796 95.7C57.9796 94.18 49.2596 96.48 47.7396 96.44C44.2996 96.3 41.3396 94.44 38.4996 94.44C38.8196 94.44 38.4396 94.28 38.4996 94.44Z" fill="white"/>
<path d="M67.3597 7.62005C67.6197 7.64005 67.9397 7.68005 68.2997 7.70005C68.3397 7.80005 68.3797 7.90005 68.4397 8.04005C68.7997 8.06005 69.1397 8.08005 69.4997 8.10005C69.7397 8.68005 72.3197 9.18005 73.0397 9.64005C73.6997 10.06 75.8197 11.3 76.0597 12.02C77.5997 12.24 78.1197 13.92 79.5397 14.1C79.5597 14.22 79.5997 14.34 79.6197 14.46C79.7397 14.48 79.8397 14.5 79.9397 14.52C79.9797 14.64 79.9997 14.74 80.0397 14.86C80.4797 14.84 81.1197 15.28 81.2197 15.64C82.2997 15.92 82.8397 17.84 83.9597 18.12C83.9797 18.22 83.9997 18.32 84.0397 18.44C85.1997 18.72 86.0197 21.9 87.1597 22.1C87.9197 23.36 89.4597 25.0201 89.6397 26.42C89.7397 26.4401 89.8397 26.48 89.9597 26.5C90.1197 27.04 90.6797 28.4001 91.1597 28.5201C91.1797 28.7401 91.1997 28.96 91.2197 29.2C91.3197 29.24 91.4197 29.3 91.5197 29.34C91.5597 29.58 91.5997 29.8 91.6397 30.04C91.7397 30.08 91.8397 30.1 91.9597 30.14C91.9797 30.5 91.9997 30.84 92.0197 31.2C92.1197 31.24 92.2197 31.26 92.3397 31.3C92.3597 31.4 92.3797 31.52 92.4197 31.64C92.5197 31.68 92.6197 31.7 92.7197 31.74C92.9797 32.52 93.0797 34.64 93.9397 34.94C93.9597 35.3 93.9797 35.64 94.0197 36.0201C94.1197 36.0601 94.2397 36.1 94.3797 36.16V37.58C94.5197 37.64 94.6197 37.7001 94.7397 37.74C95.8797 44.1 96.6397 50.7001 95.3797 57.1201C94.9997 59.0801 94.7797 60.86 94.3397 62.66C93.9197 64.38 92.9397 66.4201 92.7397 68.0001C92.6197 68.04 92.5197 68.08 92.4197 68.12C92.3597 69.1401 90.5597 73.0801 89.6397 73.34C89.6197 73.5601 89.6197 73.76 89.5997 74.0201C88.9597 74.2201 88.6197 75.14 88.2797 75.5601C87.4997 76.5201 87.3597 76.94 86.0797 76.8801C86.0797 76.0201 88.3397 74.9 88.4597 73.7801C88.5597 73.7401 88.6597 73.72 88.7797 73.68C88.8397 73.0601 89.3797 71.4201 89.9597 71.2801C90.0397 70.82 90.3197 70.18 90.7597 70.0601C90.7797 69.84 90.7997 69.62 90.8197 69.36C90.9197 69.32 91.0197 69.2801 91.1397 69.2401C91.1797 69.0401 91.1997 68.8601 91.2397 68.62C91.3397 68.58 91.4397 68.54 91.5597 68.48C91.5797 68.2401 91.6197 68.0201 91.6397 67.76C91.7197 67.72 91.8197 67.7001 91.9597 67.6401C91.9797 67.4401 91.9997 67.22 92.0197 66.96C92.1197 66.92 92.2197 66.8801 92.3397 66.8401C92.4997 66.2001 92.4997 64.76 93.1797 64.48C93.2397 63.8 94.0597 57.96 94.5397 57.7001C95.8597 57.0201 95.2797 49.06 95.2797 47.84C95.2797 45.58 94.7597 43.8 94.3597 41.74C94.1597 40.68 93.6797 39.2201 93.9397 38.3601C94.0997 37.84 92.4197 32.38 91.6797 32.04C91.4197 30.82 90.4997 30 90.3597 28.98C90.2597 28.94 90.1597 28.9 90.0597 28.8601C90.0197 28.64 89.9997 28.42 89.9597 28.2201C89.4397 28.0201 88.8397 26.74 88.7597 26.2C88.0197 25.96 88.0397 24.7 87.2797 24.44C87.1997 23.84 86.4397 23.08 86.0197 22.58C85.4197 21.9 84.9797 20.92 84.3797 20.14C83.8997 19.52 82.4397 17.48 81.6597 17.28C81.4797 16.44 78.8997 14.66 78.0797 14.44C78.0597 14.38 78.0197 14.26 77.9797 14.14C76.1797 13.24 73.5397 10.5 71.6797 10.5C71.6397 10.36 71.5997 10.26 71.5597 10.14C71.3397 10.12 71.1397 10.1 70.8997 10.08C70.8597 9.98005 70.8197 9.86005 70.7797 9.76005C70.5397 9.72005 70.3197 9.68005 70.0797 9.64005C70.0397 9.54005 70.0197 9.44005 69.9797 9.34005C69.7397 9.32005 69.5197 9.30005 69.2797 9.26005C69.2397 9.16005 69.1997 9.06005 69.1597 8.94005C68.9397 8.92005 68.7197 8.90005 68.4597 8.88005C68.4197 8.80005 68.3797 8.70005 68.3397 8.58005C68.1397 8.54005 67.9197 8.52005 67.6597 8.48005C67.6197 8.38005 67.5797 8.28005 67.5397 8.16005C67.2997 8.14005 67.0797 8.12005 66.8397 8.10005C66.7997 8.00005 66.7797 7.90005 66.7397 7.76005C66.3797 7.74005 66.0197 7.72005 65.6397 7.70005C65.5997 7.60005 65.5597 7.50005 65.4997 7.36005C65.1797 7.32005 64.8397 7.28005 64.4597 7.24005C64.4397 7.16005 64.3997 7.08005 64.3597 6.92005C63.5797 6.92005 61.4397 7.32005 61.1597 6.54005C60.2997 6.48005 58.0797 4.70005 57.5597 5.68005C56.4797 5.68005 55.3997 4.94005 54.2997 4.82005C53.2397 4.70005 52.1597 4.98005 51.1197 4.88005C50.0597 4.76005 46.7997 5.20005 46.1997 4.56005C45.9797 4.94005 45.6597 5.04005 45.2197 4.88005V3.74005C48.1797 3.70005 51.5197 3.08005 54.4397 3.62005C55.4197 3.80005 59.3997 4.12005 59.7197 4.84005C60.2997 4.90005 61.4997 5.02005 61.6797 5.68005C61.8997 5.70005 62.0997 5.72005 62.3397 5.76005C62.3797 5.86005 62.4197 5.94005 62.4797 6.04005C64.0597 6.38005 66.5397 6.50005 67.3597 7.62005C67.6197 7.64005 67.2397 7.46005 67.3597 7.62005Z" fill="white"/>
<path d="M20.2799 15.2C19.5199 15.4 19.2599 15.66 19.1799 16.38C18.9399 16.42 18.7199 16.48 18.4599 16.52C18.3999 17.06 17.6199 18.18 16.9999 18.08C16.7599 18.04 16.8399 17.86 16.8599 17.7C17.7199 17 18.2999 15.94 18.8999 15.3C19.4999 14.68 21.4799 13.7 21.6799 12.88C22.1199 12.76 22.7599 12.54 22.8799 12.1C23.3399 11.94 24.7199 11.42 24.8799 10.88C25.0999 10.86 25.3199 10.82 25.5399 10.8C25.5799 10.7 25.6199 10.6 25.6799 10.46C26.4599 10.26 28.1599 9.66001 28.4599 8.86001C28.6999 8.84001 28.9199 8.84001 29.1799 8.82001C29.2199 8.72001 29.2599 8.62001 29.2999 8.50001C29.4999 8.46001 29.7199 8.40001 29.9599 8.36001C29.9999 8.28001 30.0199 8.18001 30.0799 8.06001C30.2999 8.04001 30.5399 8.02001 30.7799 8.00001C30.8199 7.88001 30.8399 7.78001 30.8799 7.66001C31.0999 7.64001 31.3199 7.62001 31.5399 7.60001C31.5799 7.50001 31.6399 7.40001 31.6999 7.28001C32.3199 7.22001 33.8999 7.04001 34.0799 6.46001C34.6399 6.42001 35.8599 6.20001 36.0799 5.66001C36.2999 5.64001 36.5199 5.64001 36.7799 5.62001C36.8199 5.54001 36.8799 5.44001 36.9599 5.28001C37.3999 5.26001 37.8799 5.24001 38.3599 5.22001C38.3999 5.10001 38.4399 4.98001 38.4999 4.86001C38.8599 4.84001 39.1999 4.80001 39.5399 4.78001C39.5999 4.68001 39.6399 4.58001 39.6999 4.50001C40.4999 4.36001 43.8199 3.62001 44.0799 4.40001C44.3199 4.44001 44.5599 4.46001 44.8199 4.50001C44.9399 4.76001 44.7799 4.92001 44.6799 5.08001C44.4599 5.02001 44.2599 4.94001 44.0599 4.90001C43.0599 4.72001 41.7799 6.48001 40.7199 5.78001C39.7999 5.96001 35.8999 6.68001 35.5599 7.62001C35.2199 7.64001 34.8599 7.68001 34.4999 7.70001C34.4599 7.80001 34.4199 7.90001 34.3799 8.04001C32.8999 8.04001 31.5399 9.18001 30.0999 9.26001C30.0599 9.36001 30.0199 9.46001 29.9599 9.58001C29.7599 9.62001 29.5599 9.66001 29.3199 9.70001C29.2799 9.78001 29.2399 9.90001 29.1999 10.02C28.8399 10.04 28.4999 10.06 28.1399 10.08C28.0999 10.18 28.0799 10.28 28.0199 10.42C27.7999 10.44 28.2799 10.4 28.0199 10.42C27.8199 11.1 26.7999 11.22 26.1199 11.3C25.8399 12.14 24.3199 11.72 23.9599 12.8C22.7399 12.88 20.8999 14.32 20.2799 15.2C20.3999 15.04 19.8399 15.32 20.2799 15.2Z" fill="white"/>
<path d="M12.7804 20.48C12.7404 20.88 12.5204 21.16 12.1204 21.3C12.0604 21.14 12.0204 20.98 11.9604 20.82C11.4004 20.64 10.9204 20.74 10.5404 21.12C10.5004 20.92 10.4804 20.74 10.4404 20.52C11.8604 20.66 12.2404 18 13.9404 18.08C13.9604 18.22 13.9804 18.32 14.0004 18.44C13.7604 18.44 13.5204 18.44 13.2604 18.44V18.82C13.5004 18.8 13.7204 18.8 13.9404 18.78C13.9604 18.64 13.9604 18.54 13.9604 18.42C14.0804 18.4 14.2004 18.4 14.3604 18.38C14.3804 18.16 14.4204 17.94 14.4404 17.68C14.6804 17.66 14.9204 17.62 15.2004 17.6C15.1404 18.2 14.6404 19.1 14.0404 19.28C14.0204 19.38 13.9804 19.5 13.9604 19.62C13.3404 19.72 13.4404 20.38 12.7804 20.48C12.9404 20.1 13.0804 19.7 13.2004 19.28H12.4204C12.2804 19.76 12.6004 20.44 12.7804 20.48C12.9004 20.86 12.5204 20.42 12.7804 20.48Z" fill="white"/>
<path d="M74.1 88.76C73.96 87.82 75.06 87.96 75.24 87.28C75.46 87.26 75.7 87.22 75.94 87.2C76.34 85.72 78.02 86.34 78.02 84.48H78.36C78.38 84.84 78.42 85.18 78.44 85.54C78.68 85.48 78.92 85.4 79.16 85.28V85.98C78.7 86.06 76.5 87.46 76.32 87.98C75.42 88.06 75.04 89.04 74.1 88.76C74.34 88.84 74.02 88.26 74.1 88.76C74.34 88.84 74 88.1 74.1 88.76Z" fill="white"/>
<path d="M71.34 93.64C71.54 93.62 71.78 93.62 71.98 93.6C72.56 92.74 72.7 91.96 73.84 91.42C74.2 91.74 74.82 91.82 75.12 92.22C74.54 93.2 72.58 93.16 72.32 94.04C71.92 94.04 71.26 94.5 70.88 94.36C70.6 94.26 71.4 93.56 71.34 93.64C71.52 93.64 71.16 93.8 71.34 93.64ZM72.6 93.16C72.66 93.1 72.68 93.06 72.72 93.02C72.66 92.98 72.62 92.94 72.56 92.92C72.58 93 72.6 93.08 72.6 93.16C72.66 93.1 72.54 93.1 72.6 93.16Z" fill="white"/>
<path d="M80.0397 88.8601C79.9797 89.0801 79.9397 89.2801 79.8797 89.5001C79.6397 89.3601 79.4397 89.2401 79.2197 89.1201V88.0601C79.3397 88.0201 79.4397 88.0001 79.5597 87.9601C79.5797 87.7401 79.6197 87.5201 79.6597 87.2801C79.7597 87.2801 79.8397 87.2601 79.9597 87.2601C79.9997 87.5001 80.0197 87.7201 80.0597 87.9601H80.7397C80.7597 87.7201 80.3797 86.9801 80.4797 86.8401C81.1397 86.9401 81.7597 86.8201 82.3397 86.5001C82.3597 86.7201 82.3797 86.9401 82.3997 87.1601C81.5597 87.5001 80.5597 88.6201 80.0397 88.8601C80.2997 88.7401 79.9797 89.1001 80.0397 88.8601Z" fill="white"/>
<path d="M66.1 94.92C66.56 94.88 67.04 94.82 67.54 94.78C67.58 94.7 67.62 94.58 67.68 94.48C67.88 94.46 68.1 94.42 68.32 94.4C68.36 94.3 68.42 94.2 68.46 94.08C69.02 94.04 70.34 93.14 70.42 94.02C70.16 94.04 69.94 94.06 69.68 94.06C69.64 94.16 69.6 94.26 69.54 94.42H68.88C68.82 94.54 68.8 94.64 68.74 94.76C68.54 94.8 68.3 94.82 68.06 94.86C68.04 94.98 68 95.08 67.96 95.26C67.66 95.24 66 95.38 66.1 94.92Z" fill="white"/>
<path d="M73.9604 89.12C73.7204 89.18 73.5604 89.34 73.5604 89.62C73.1604 89.6 72.8004 89.64 72.4404 89.48C72.6804 89.32 72.8804 89.2 72.8204 88.9C73.5204 88.78 73.9004 89 73.9604 89.12C73.8004 88.82 73.7204 89.18 73.9604 89.12Z" fill="white"/>
<path d="M85.62 77.6201C85.86 77.6601 86.06 77.7001 86.32 77.7601C86.06 78.2401 85.54 78.9201 84.84 78.8201C84.74 78.4201 85.62 77.6401 85.62 77.6201C85.86 77.6601 85.58 77.8801 85.62 77.6201Z" fill="white"/>
<path d="M75.2201 90.5201C75.6201 90.3001 76.0201 90.04 76.4801 90.06C76.5201 90.8 76.1801 91.06 75.4401 90.86C75.2001 90.86 75.1601 90.7201 75.2201 90.5201Z" fill="white"/>
<path d="M77.9998 88.46H78.3798V89.14C78.1998 89.34 77.9998 89.5 77.7598 89.64C77.0598 89.64 78.0198 88.54 77.9998 88.46Z" fill="white"/>
<path d="M80.0598 82.9C80.7598 82.82 80.3599 83.9 80.0199 83.54C79.8799 83.38 80.0998 82.72 80.0598 82.9C80.5798 82.86 80.0398 83.04 80.0598 82.9Z" fill="white"/>
<path d="M69.6602 94.8V94.46H70.3402C70.3602 94.56 70.3602 94.64 70.3802 94.78C69.7002 94.62 69.4602 94.62 69.6602 94.8C69.6602 94.7 69.4602 94.62 69.6602 94.8Z" fill="white"/>
<path d="M75.7001 91.2401C75.9401 91.4401 75.9801 91.64 75.9401 91.86C75.9401 91.9 75.8201 91.98 75.7801 91.98C75.7201 91.96 75.6201 91.88 75.6201 91.82C75.6201 91.6601 75.6601 91.4801 75.7001 91.2401Z" fill="white"/>
<path d="M69.6398 94.8C69.6598 95 69.5798 95.14 69.3798 95.2201C69.1398 95.18 69.2198 95.02 69.2398 94.86C69.3798 94.84 69.5198 94.82 69.6398 94.8Z" fill="white"/>
<path d="M79.8 84.92C79.18 84.56 80 84.36 79.96 84.62C79.94 84.7 79.88 84.78 79.8 84.92C79.88 84.78 79.7 84.8 79.8 84.92C79.88 84.78 79.52 84.76 79.8 84.92Z" fill="white"/>
<path d="M14.0601 16.9C14.4801 16.84 14.4201 17.26 14.2201 17.26C14.1001 17.22 14.0601 16.84 14.0601 16.9C14.4801 16.82 14.0201 17.08 14.0601 16.9Z" fill="white"/>
<path d="M81.6602 86.26C81.5402 86.32 81.4602 86.4 81.4002 86.4C81.3402 86.4 81.3002 86.3 81.2402 86.24C81.3002 86.2 81.3602 86.1 81.4202 86.1C81.5002 86.1 81.7002 86.28 81.6602 86.26C81.5602 86.18 81.5402 86.32 81.6602 86.26Z" fill="white"/>
<path d="M77.8002 90.5C77.5602 90.32 77.5802 90.16 77.8202 90C78.1802 90.24 77.7802 90.52 77.8002 90.5C77.9002 90.36 77.5602 90.32 77.8002 90.5Z" fill="white"/>
<path d="M6.45992 28.12C6.43992 27.98 6.43992 27.84 6.41992 27.66L6.45992 28.12Z" fill="white"/>
<path d="M72.5997 93.16C72.4797 92.9 72.5197 92.84 72.7197 93.02C72.6997 93.06 72.6597 93.1 72.5997 93.16C72.6597 93.1 72.5397 93.1 72.5997 93.16C72.6597 93.1 72.4597 93.1 72.5997 93.16Z" fill="white"/>
</g>
<defs>
<clipPath id="clip0_624_1103">
<rect width="100" height="100" fill="white"/>
</clipPath>
</defs>
</svg>
