<svg width="141" height="90" viewBox="0 0 141 90" fill="none" xmlns="http://www.w3.org/2000/svg">
<g clip-path="url(#clip0_1131_13051)">
<path d="M70.2067 90.0154C50.0115 90.0154 33.0439 85.6812 21.1327 77.491C15.3078 73.4807 10.7738 68.6375 7.68462 63.0848C6.47761 60.94 5.49391 58.6761 4.74909 56.329C3.36317 55.8554 2.15986 54.958 1.3081 53.763C0.456339 52.5679 -0.00110198 51.1351 1.99354e-06 49.6658V39.563C0.00221517 38.0438 0.4945 36.5662 1.40321 35.3511C2.31192 34.1361 3.5882 33.2491 5.04111 32.8226C5.74769 30.7843 6.6323 28.8126 7.68462 26.9306C10.7738 21.3779 15.3078 16.5193 21.1327 12.509C33.0439 4.33418 50.0115 -3.8147e-06 70.2067 -3.8147e-06C90.4018 -3.8147e-06 107.369 4.33418 119.265 12.509C125.106 16.5193 129.624 21.3779 132.729 26.9306C133.798 28.846 134.693 30.8541 135.403 32.9306C136.768 33.4174 137.95 34.3161 138.787 35.5035C139.623 36.6909 140.073 38.1088 140.075 39.563V49.6658C140.074 51.0671 139.657 52.4362 138.876 53.5983C138.096 54.7604 136.989 55.6628 135.695 56.1902C134.94 58.5829 133.946 60.8928 132.729 63.0848C129.624 68.6375 125.09 73.4961 119.265 77.491C107.369 85.6812 90.4018 90.0154 70.2067 90.0154Z" fill="#184892"/>
<path d="M130.731 50.4987C130.669 50.838 130.608 51.1928 130.531 51.5321C129.895 54.5218 128.812 57.3975 127.319 60.0617C124.691 64.7661 120.817 68.9152 115.776 72.3856C104.895 79.8509 89.1415 83.7995 70.2066 83.7995C51.2717 83.7995 35.5029 79.8509 24.6368 72.3856C19.5957 68.9152 15.7073 64.7661 13.0791 60.0617C11.5855 57.3975 10.5025 54.5218 9.86698 51.5321C9.79013 51.1928 9.72865 50.838 9.66718 50.4987H8.62207L8.8065 51.5321C9.46282 54.6947 10.5979 57.7377 12.1724 60.5553C14.8773 65.4139 18.8733 69.671 24.0528 73.2339C35.0879 80.8226 51.0565 84.8329 70.2066 84.8329C89.3567 84.8329 105.31 80.8226 116.36 73.2339C121.524 69.671 125.52 65.4139 128.225 60.5553C129.8 57.7377 130.935 54.6947 131.591 51.5321L131.776 50.4987H130.731ZM10.036 37.7121C10.6937 34.999 11.7175 32.3887 13.0791 29.9537C15.7073 25.2494 19.5957 21.1003 24.6368 17.6298C35.5029 10.1645 51.2563 6.21594 70.2066 6.21594C89.1569 6.21594 104.895 10.1645 115.776 17.6298C120.817 21.1003 124.691 25.2494 127.319 29.9537C128.687 32.3856 129.711 34.9968 130.362 37.7121L130.592 38.7455H131.637C131.576 38.3907 131.499 38.0514 131.422 37.7121C130.746 34.825 129.67 32.0472 128.225 29.4602C125.52 24.6015 121.524 20.3445 116.36 16.7815C105.31 9.1928 89.3567 5.18252 70.2066 5.18252C51.0565 5.18252 35.0879 9.1928 24.0528 16.7815C18.8733 20.3445 14.8773 24.6015 12.1724 29.4602C10.7257 32.0447 9.65445 34.8234 8.99093 37.7121C8.89872 38.0514 8.82187 38.3907 8.76039 38.7455H9.82087C9.88235 38.3907 9.95919 38.0514 10.036 37.7121Z" fill="url(#paint0_linear_1131_13051)"/>
<path d="M117.59 37.7121C117.136 36.7542 116.612 35.8313 116.022 34.9512C113.886 31.8201 110.735 29.0745 106.647 26.7763C97.9329 21.8715 85.3301 19.2802 70.2068 19.2802C55.0834 19.2802 42.4653 21.8715 33.751 26.7763C29.6627 29.0745 26.512 31.8201 24.3911 34.9512C23.79 35.8243 23.2655 36.748 22.8234 37.7121C22.6544 38.0514 22.516 38.3907 22.3777 38.7455H22.931C23.0693 38.3907 23.223 38.0514 23.3921 37.7121C23.8008 36.8549 24.2735 36.0299 24.8061 35.2442C26.8963 32.1748 29.9855 29.4756 33.9969 27.2237C42.6344 22.365 55.1603 19.8046 70.2068 19.8046C85.2533 19.8046 97.7638 22.365 106.401 27.2237C110.413 29.4756 113.502 32.1748 115.592 35.2442C116.13 36.0297 116.607 36.8546 117.021 37.7121C117.175 38.0514 117.329 38.3907 117.467 38.7455H118.02C117.882 38.3907 117.744 38.0514 117.59 37.7121ZM117.759 50.4987C117.262 51.9235 116.591 53.2809 115.761 54.5398L115.592 54.7712C113.502 57.8406 110.413 60.5398 106.401 62.7918C97.7638 67.6504 85.2379 70.2108 70.2068 70.2108C55.1757 70.2108 42.6344 67.6504 33.9969 62.7918C29.9855 60.5398 26.8963 57.8406 24.8061 54.7712L24.514 54.3239C23.7399 53.1281 23.1104 51.844 22.639 50.4987H22.1011C22.2087 50.8535 22.347 51.1928 22.4853 51.5321C22.9897 52.776 23.6288 53.9605 24.3911 55.0643C26.512 58.1954 29.6627 60.9409 33.751 63.2391C42.4653 68.144 55.0681 70.7352 70.2068 70.7352C85.3455 70.7352 97.9329 68.144 106.647 63.2391C110.735 60.9409 113.886 58.1954 116.022 55.0643C116.779 53.957 117.418 52.7731 117.928 51.5321C118.067 51.1928 118.19 50.8535 118.297 50.4987H117.759Z" fill="url(#paint1_linear_1131_13051)"/>
<path d="M22.5621 23.4293C22.6488 23.642 22.7681 23.8397 22.9156 24.0154L23.4382 24.617C23.4382 24.5861 23.2998 24.6632 23.1615 24.7712C23.0232 24.8792 23.0539 25.6504 24.0837 26.8843C25.1134 28.1183 25.6821 28.1183 26.1585 27.7326C26.1585 27.7326 26.1585 27.7172 26.1892 27.6864C26.22 27.6555 26.8962 26.9306 25.636 25.4344L25.5745 25.3728C24.4218 24.0463 24.0222 24 23.8224 24.1697C23.6226 24.3393 23.638 24.4165 23.5765 24.4627C23.515 24.509 23.2384 23.9537 23.1 23.7841C22.9707 23.6186 22.8085 23.482 22.6236 23.383L25.3286 21.0848C25.4403 21.3427 25.5906 21.582 25.7743 21.7943C25.9008 21.9445 26.0396 22.0838 26.1892 22.2108L25.9741 22.3496C25.9097 22.4017 25.8617 22.4713 25.8358 22.5501C25.7896 22.7506 25.7896 23.1517 26.389 23.9229C26.4813 24.0463 26.5888 24.1542 26.6811 24.2622C27.6493 25.4344 28.2948 25.7429 28.2948 25.7429C27.5878 26.6067 28.1104 27.8406 28.1104 27.8406L25.7589 29.8303C25.0351 29.5376 24.2274 29.532 23.4996 29.8149C23.1016 29.0758 22.6387 28.3738 22.1164 27.7172C21.7168 27.2391 21.3018 26.8689 20.933 26.8535C20.8878 26.8507 20.8426 26.8576 20.8002 26.8735C20.7578 26.8895 20.7193 26.9142 20.6871 26.946C20.6069 27.0154 20.5482 27.1064 20.518 27.2082C20.4565 27.1465 20.3028 26.8689 20.0723 26.6067C19.906 26.3826 19.697 26.1939 19.4575 26.0514L22.5621 23.4293Z" fill="url(#paint2_linear_1131_13051)"/>
<path d="M30.7386 18.0154C30.7969 18.2688 30.89 18.5127 31.0153 18.7404C31.1281 18.9669 31.2674 19.1792 31.4302 19.3727C31.283 19.3992 31.1388 19.4405 30.9999 19.4961C30.7232 19.6504 30.9538 20.3136 31.461 21.3162L31.5532 21.5013C32.3216 22.8895 32.7059 23.1825 33.1977 22.982L33.3975 22.8895C33.9815 22.581 33.9661 22.1337 33.7663 21.7635C33.6597 21.5394 33.5017 21.3438 33.3053 21.1928C33.6548 21.1282 33.992 21.0085 34.3043 20.838C34.5966 20.6811 34.8657 20.4838 35.1035 20.2519C35.2394 20.7183 35.4142 21.1723 35.626 21.6093C35.868 22.0613 36.1792 22.4725 36.5482 22.8278L30.5234 25.9589C30.4892 25.6958 30.4113 25.4403 30.2929 25.2031C30.1632 24.963 29.9973 24.7445 29.8011 24.5553C29.9674 24.5664 30.1344 24.5454 30.2929 24.4936C30.6464 24.2931 30.2775 23.383 29.8165 22.4884C29.3554 21.5938 28.7099 20.6684 28.3717 20.8535C28.2288 20.93 28.1072 21.0414 28.0183 21.1774C27.9893 20.9613 27.9216 20.7523 27.8185 20.5604C27.6786 20.2862 27.5029 20.0321 27.2959 19.8046L30.7386 18.0154Z" fill="url(#paint3_linear_1131_13051)"/>
<path d="M41.42 13.6967C41.5737 14.6838 41.5737 14.7763 41.7427 15.2237C41.8914 15.665 42.115 16.0773 42.4036 16.4422C42.0729 16.4806 41.7478 16.5583 41.4353 16.6735C41.1136 16.7844 40.8045 16.9291 40.5132 17.1054C40.5077 16.8527 40.461 16.6026 40.3749 16.365C40.2519 16.0103 40.006 15.671 39.5757 15.8252C39.1453 15.9794 39.2683 16.9049 39.3912 17.383C39.4527 17.5527 39.5757 18 39.7447 18.4627C40.006 19.2031 40.3902 20.0051 40.8513 19.8355L41.0972 19.7275C41.1225 19.8922 41.169 20.0529 41.2355 20.2057C41.3311 20.4774 41.4494 20.7405 41.589 20.9923L37.7928 22.3496C37.7985 22.0859 37.7515 21.8236 37.6545 21.5784C37.5641 21.3368 37.4508 21.1044 37.3164 20.8843C37.4002 20.881 37.483 20.8654 37.5623 20.838C37.6278 20.8192 37.6866 20.7817 37.7313 20.7301C37.7313 20.7301 38.2539 20.4679 37.8082 19.1722C37.3625 17.8766 36.9321 16.8432 36.302 17.0283H36.2559C35.7948 17.1825 35.8563 17.6915 35.9793 18.0617C36.0598 18.2679 36.1629 18.4645 36.2866 18.6478C36.01 18.7404 35.7026 18.7866 35.426 18.8946C35.0611 19.0042 34.7251 19.1938 34.4423 19.4499C34.395 18.8768 34.2762 18.312 34.0888 17.7686C33.9308 17.3189 33.7025 16.8972 33.4126 16.5193L41.42 13.6967Z" fill="url(#paint4_linear_1131_13051)"/>
<path d="M51.1025 18.6324L49.9651 18.8638C49.458 18.2622 49.0123 18.2005 49.0123 18.2005C49.135 17.9627 49.1625 17.6868 49.0891 17.4293C49.0584 17.3213 49.0276 17.2134 48.9815 17.09C48.7202 16.4422 48.1669 16.4267 48.044 16.4576C47.5829 16.5501 47.0604 16.6889 47.0604 16.6889L47.0911 16.8278C47.1987 17.3368 47.3677 18.0771 47.9057 17.9692C48.0194 17.9384 48.1212 17.8739 48.1977 17.7841C48.2084 17.9242 48.2289 18.0633 48.2592 18.2005C48.3369 18.5301 48.4611 18.847 48.628 19.1414L44.6935 19.9743C44.736 19.6759 44.7203 19.3721 44.6474 19.0797C44.6113 18.8772 44.5493 18.6802 44.463 18.4936C44.5759 18.5695 44.7122 18.6024 44.8472 18.5861L44.924 18.5553C45.2314 18.4319 45.2161 17.6607 45.0009 16.5656C44.8933 16.0566 44.4937 14.4987 44.0941 14.4987H43.9865C43.9071 14.5151 43.8341 14.5546 43.7768 14.6121C43.7194 14.6697 43.6801 14.7429 43.6638 14.8226C43.6644 14.584 43.6386 14.346 43.5869 14.1131C43.5249 13.7806 43.4162 13.4587 43.2642 13.1568L43.8328 13.0488L48.3821 12.0771C48.8905 12.5408 49.5549 12.7943 50.2418 12.7866C50.2879 13.0951 50.2879 13.4961 50.3955 13.9743C50.5031 14.4524 50.5338 14.4833 50.6568 14.5604C50.3807 14.7475 50.1454 14.9889 49.9651 15.2699C50.042 15.4242 50.8412 15.8098 50.8412 15.8098C50.7891 16.0845 50.7839 16.3662 50.8258 16.6427C50.8348 16.7137 50.8586 16.782 50.8957 16.8431C50.9328 16.9042 50.9823 16.9568 51.041 16.9974C51.2744 17.1127 51.5398 17.1453 51.7941 17.09L51.9017 17.0591C51.917 17.2288 51.9478 17.3985 51.9785 17.5681C52.0348 17.841 52.1119 18.1091 52.2091 18.3702L51.1025 18.6324ZM46.7376 15.2699C46.7376 15.3008 46.7837 15.3008 46.8452 15.2853L47.3216 15.1928C47.4481 15.1784 47.5721 15.1473 47.6905 15.1003C48.1208 14.9152 48.3667 14.5913 48.2899 14.2057V14.144C48.1669 13.7892 47.8596 13.6195 47.4292 13.6967L47.3063 13.7429C46.6454 13.9434 46.6147 14.5913 46.7222 15.1465L46.7376 15.2699Z" fill="url(#paint5_linear_1131_13051)"/>
<path d="M56.2054 16.4884L56.6204 16.3959C56.5919 16.8788 56.6652 17.3624 56.8356 17.8149L53.2238 18.2005C53.2508 17.8666 53.2456 17.5309 53.2084 17.1979C53.1995 16.9985 53.1633 16.8013 53.1008 16.6118C53.0855 16.581 53.316 16.7661 53.4851 16.7506C54.1306 16.6735 55.0374 12.8175 55.0681 11.0129L58.0036 10.7044C58.0036 10.7044 58.9104 13.4961 59.7711 14.6067C60.186 15.162 60.6318 16.0103 61.2926 15.9332C61.2619 16.1221 61.2619 16.3149 61.2926 16.5039C61.319 16.7797 61.3863 17.0501 61.4924 17.3059L57.3274 17.7532C57.3749 17.4679 57.3853 17.1775 57.3581 16.8895C57.3321 16.7013 57.291 16.5156 57.2352 16.3342H57.6809C57.896 16.3033 58.0344 16.2262 58.0036 15.9794C57.9729 15.7326 57.4811 15.5938 56.8817 15.671C56.2823 15.7481 55.8058 15.8252 55.8366 16.1954C55.8673 16.5656 56.021 16.5039 56.2054 16.4884ZM56.6972 14.4679C56.9278 14.4524 57.1276 14.3291 57.1122 14.1594C57.0968 13.9897 56.5896 13.2956 56.5896 13.2956C56.5896 13.2956 56.2054 13.928 56.2362 14.2519C56.2669 14.5758 56.4821 14.4987 56.6972 14.4679Z" fill="url(#paint6_linear_1131_13051)"/>
<path d="M72.1125 10.072C72.0616 10.3309 72.0409 10.5949 72.051 10.8586C72.0392 11.113 72.0651 11.3677 72.1278 11.6144C72.0216 11.5655 71.9065 11.5393 71.7897 11.5373C71.2364 11.5527 71.2672 12.4473 71.2672 12.9409V13.6812C71.2825 14.8226 71.2979 15.6247 71.9741 15.6247C72.0656 15.6063 72.1505 15.5637 72.2201 15.5013C72.1586 15.6955 72.1326 15.8993 72.1432 16.1028C72.1606 16.411 72.2121 16.7162 72.2969 17.0129L68.2855 17.09C68.3624 16.9049 68.347 16.6118 68.347 16.2571C68.3525 16.0476 68.3213 15.8388 68.2548 15.6401L68.5775 15.6709C68.931 15.6709 69.2077 15.4396 69.1769 14.3445V14.0206C69.1728 13.6236 69.1472 13.2271 69.1001 12.8329C68.4085 14.0051 67.8091 15.563 67.8245 17.1054L66.3644 17.1362C66.3634 17.0896 66.3582 17.0432 66.349 16.9974C66.349 16.7352 66.3029 16.0411 65.9187 14.8535C65.5344 13.6658 65.1963 13.2648 64.9504 12.9871L64.9811 14.329C64.9965 15.1928 65.058 15.7635 65.6267 15.7635L65.8265 15.7326C65.7904 15.9206 65.7749 16.112 65.7803 16.3033C65.7741 16.5848 65.8104 16.8656 65.8879 17.1362L62.4299 17.1979C62.5279 16.9052 62.5697 16.5963 62.5528 16.2879C62.5623 16.0692 62.5364 15.8504 62.476 15.6401C62.5899 15.7246 62.7211 15.7826 62.8602 15.8098C63.1983 15.7789 63.3674 15.5321 63.3366 14.0051V13.8972C63.3059 12.509 63.2598 11.7224 62.7987 11.7378C62.6607 11.7492 62.5281 11.7971 62.4145 11.8766C62.4446 11.6465 62.46 11.4146 62.4606 11.1825C62.4609 10.8688 62.4143 10.5569 62.3223 10.2571L66.1953 10.18C66.6564 11.6298 67.3634 12.617 67.3787 12.5861C67.7783 12.1851 68.347 10.581 68.3624 10.1337L72.1125 10.072Z" fill="url(#paint7_linear_1131_13051)"/>
<path d="M76.5693 15.8406C76.7027 15.8499 76.8367 15.8447 76.9689 15.8252C76.8665 16.2973 76.8613 16.7854 76.9536 17.2596L73.3418 17.0283C73.4097 16.7027 73.4559 16.3729 73.4801 16.0411C73.4966 15.8461 73.4966 15.65 73.4801 15.455C73.4648 15.4242 73.6646 15.6401 73.8336 15.6401C74.4791 15.6864 76.016 12.0309 76.3542 10.2571L79.2897 10.4422C79.2897 10.4422 79.72 13.3419 80.3809 14.5913C80.7037 15.2082 80.9957 16.1183 81.6565 16.1491C81.606 16.3356 81.5751 16.5269 81.5643 16.7198C81.5459 16.9938 81.5666 17.2691 81.6258 17.5373L77.4454 17.2905C77.54 17.0168 77.5969 16.7313 77.6144 16.4422C77.6342 16.2521 77.629 16.0602 77.5991 15.8715C77.7406 15.9013 77.8848 15.9168 78.0294 15.9177C78.26 15.9332 78.3983 15.8715 78.4136 15.6401C78.429 15.4087 77.9526 15.1774 77.3532 15.1311C76.7538 15.0848 76.2773 15.1003 76.2466 15.4859C76.2158 15.8715 76.3695 15.8252 76.5693 15.8406ZM77.3839 13.9434C77.5991 13.9589 77.8296 13.8663 77.845 13.6967C77.8603 13.527 77.4607 12.7712 77.4607 12.7712C77.4607 12.7712 76.9843 13.3265 76.9536 13.635C76.9228 13.9434 77.1534 13.928 77.3839 13.9434Z" fill="url(#paint8_linear_1131_13051)"/>
<path d="M89.0649 18.5861L87.9122 18.4165C87.651 17.6761 87.2514 17.4602 87.2514 17.4602C87.4465 17.273 87.5668 17.0206 87.5895 16.7506C87.6104 16.6388 87.6156 16.5246 87.6049 16.4113C87.5741 15.7018 87.0669 15.5013 86.944 15.4859L85.945 15.347V15.5013C85.8681 16.0103 85.7606 16.7661 86.3139 16.8432C86.4302 16.8592 86.5486 16.8376 86.652 16.7815C86.6099 16.9175 86.579 17.0568 86.5598 17.1979C86.5193 17.5364 86.5245 17.8788 86.5751 18.2159L82.6099 17.6144C82.7512 17.3459 82.8399 17.0527 82.8711 16.7506C82.9024 16.5466 82.9127 16.3398 82.9019 16.1337C82.9762 16.2492 83.0916 16.332 83.2246 16.365H83.3169C83.6396 16.3496 83.9009 15.6247 84.0699 14.5296C84.1468 14.0051 84.3005 12.401 83.9316 12.2776L83.8394 12.2468C83.7598 12.2338 83.6782 12.2444 83.6045 12.2773C83.5308 12.3102 83.4682 12.3639 83.4244 12.4319C83.4989 12.2054 83.5555 11.9733 83.5935 11.7378C83.65 11.4066 83.6603 11.0692 83.6242 10.7352L84.1929 10.8278L88.8037 11.5064C89.1105 12.1258 89.645 12.6014 90.2945 12.8329C90.233 13.126 90.0947 13.5116 90.0178 13.9897C89.941 14.4679 89.9717 14.5296 90.0639 14.6375C89.7427 14.717 89.4399 14.8585 89.1725 15.054C89.1879 15.2237 89.818 15.8715 89.818 15.8715C89.6675 16.1065 89.5632 16.3683 89.5107 16.6427C89.4926 16.7127 89.4887 16.7856 89.4993 16.8572C89.5098 16.9287 89.5346 16.9974 89.5721 17.0591C89.7531 17.254 89.9994 17.3748 90.2637 17.3985H90.356C90.3165 17.5664 90.2857 17.7363 90.2637 17.9075C90.2075 18.176 90.1868 18.4509 90.2023 18.7249C90.1869 18.7558 89.6182 18.6632 89.0649 18.5861ZM86.1294 13.9126C86.1294 13.9434 86.1602 13.9589 86.237 13.9743L86.7135 14.0514L87.0823 14.0977C87.5588 14.0668 87.8969 13.8509 87.9584 13.4653V13.4036C87.9737 13.018 87.7278 12.7558 87.2975 12.6787H87.1592C86.4675 12.6324 86.2216 13.2339 86.1294 13.7892V13.9126Z" fill="url(#paint9_linear_1131_13051)"/>
<path d="M96.6265 13.126C96.5154 13.3635 96.4279 13.6115 96.3653 13.8663C96.3015 14.1078 96.2704 14.3569 96.273 14.6067C96.18 14.5289 96.069 14.4759 95.9503 14.4524C95.3816 14.3136 95.0896 15.5167 94.9205 16.2108C94.6439 17.4139 94.4441 18.3085 95.1357 18.4627C95.2096 18.4897 95.2895 18.495 95.3663 18.4782C95.2654 18.6505 95.1927 18.838 95.1511 19.0334C95.0881 19.322 95.0623 19.6174 95.0742 19.9126L91.2319 19.0026C91.3965 18.7491 91.5112 18.4664 91.57 18.1697C91.6341 17.9598 91.6652 17.7413 91.6623 17.5219C91.6961 17.5848 91.742 17.6405 91.7974 17.6855C91.8528 17.7305 91.9166 17.764 91.985 17.7841C92.3078 17.8458 92.4768 17.5527 92.8303 16.072L92.8611 15.9794C93.1838 14.6221 93.3683 13.8046 92.9225 13.6967C92.7828 13.6688 92.6378 13.685 92.5076 13.7429C92.5714 13.5773 92.6227 13.4072 92.6613 13.2339C92.7445 12.906 92.7909 12.5697 92.7996 12.2314L96.6265 13.126Z" fill="url(#paint10_linear_1131_13051)"/>
<path d="M101.791 14.6838C101.791 14.6838 102.006 17.5835 102.682 18.4165C102.776 18.2498 102.853 18.0741 102.913 17.892C103.066 17.4602 103.235 16.6427 102.682 16.4422C102.599 16.4109 102.509 16.4004 102.421 16.4113C102.513 16.2108 102.651 15.964 102.728 15.7635C102.81 15.5391 102.867 15.3063 102.897 15.0694L106.248 16.2725C106.109 16.5193 105.971 16.6427 105.833 17.0283C105.754 17.2546 105.692 17.4866 105.648 17.7224C105.587 17.6452 105.525 17.5064 105.448 17.4756C104.864 17.2751 104.542 17.9692 104.219 18.8792C104.127 19.126 104.035 19.419 103.927 19.7121C103.45 21.054 103.036 22.5039 103.036 22.5039L100.838 21.7172C101.053 18.9254 99.808 17.1979 99.808 17.1979C99.808 17.1979 99.7158 17.4139 99.6082 17.7069C99.5006 18 99.1932 18.9563 99.1778 19.2802C99.1992 19.4434 99.2816 19.5923 99.4084 19.6967C99.4391 19.7275 99.4698 19.7275 99.5006 19.7429C99.6017 19.7637 99.7053 19.7689 99.808 19.7584C99.6924 19.944 99.5946 20.1403 99.5159 20.3445C99.4174 20.6171 99.3604 20.9031 99.3469 21.1928L96.0732 20.0206C96.266 19.7388 96.421 19.4328 96.5343 19.1105C96.5963 18.9443 96.6477 18.7743 96.688 18.6015C96.688 18.6015 96.7956 18.8175 96.9339 18.8638C97.0722 18.91 97.1798 18.91 97.4104 18.6787C97.6409 18.4473 98.3633 16.6118 98.5631 16.0566L98.5938 15.9486C98.686 15.671 98.7629 15.0386 98.4094 14.9152C98.0559 14.7918 97.9637 15.0077 97.9637 14.9769C98.1281 14.6809 98.2669 14.3712 98.3786 14.0514C98.446 13.8765 98.4975 13.6958 98.5323 13.5116L101.791 14.6838Z" fill="url(#paint11_linear_1131_13051)"/>
<path d="M112.503 19.5887C112.472 20.6221 112.764 21.3316 113.195 21.7326C112.657 22.2613 112.196 22.8637 111.827 23.5219C111.525 24.0345 111.321 24.5996 111.227 25.1877C110.336 25.018 109.521 25.2494 109.183 25.6812L106.186 23.9846C106.16 23.2238 105.909 22.488 105.464 21.8715C106.016 21.4257 106.476 20.8755 106.816 20.2519C107.143 19.7184 107.342 19.1168 107.4 18.4936C108.415 18.5707 108.983 18.3702 109.629 17.9692L112.503 19.5887ZM108.276 23.7224C108.784 24.0154 109.537 23.3522 110.105 22.3496C110.674 21.347 110.935 20.2828 110.428 19.9897C109.921 19.6967 109.091 20.4524 108.538 21.455C107.984 22.4576 107.692 23.3985 108.276 23.7224Z" fill="url(#paint12_linear_1131_13051)"/>
<path d="M118.143 28.473C117.786 28.6954 117.461 28.9652 117.175 29.2751C116.953 29.5136 116.785 29.7978 116.683 30.108C116.069 29.8149 115.07 29.892 114.824 30.0308L112.933 28.3496C112.918 28.3342 113.026 27.8869 112.979 27.7789C112.933 27.671 112.426 27.9023 112.426 27.9023L111.273 26.8689C111.521 26.7127 111.744 26.5204 111.934 26.2982C112.155 26.0452 112.35 25.7715 112.518 25.4807C112.68 25.6725 112.855 25.8529 113.041 26.0206C113.31 26.2616 113.604 26.4735 113.917 26.653H113.886C113.717 26.8689 113.809 27.3162 114.347 27.7943C114.885 28.2725 115.423 28.5501 115.654 28.3033C115.884 28.0566 115.346 27.2082 115.07 26.9614C114.793 26.7147 114.025 26.2828 113.686 26.2674C113.917 25.2802 113.441 24.3393 113.441 24.3393C113.759 24.1633 114.041 23.9277 114.27 23.6452C114.559 23.329 114.798 22.97 114.977 22.581C115.611 22.8305 116.312 22.8523 116.96 22.6427L118.313 23.8303C118.313 23.8303 118.251 24.3085 118.328 24.4165C118.405 24.5244 118.85 24.3239 118.85 24.3239L120.111 25.4344C119.804 25.6568 119.525 25.9158 119.281 26.2057C119.046 26.4727 118.83 26.7562 118.635 27.054C118.541 26.7462 118.36 26.4728 118.113 26.2674C117.861 26.0629 117.588 25.887 117.298 25.7429C117.283 25.7275 117.298 25.6967 117.329 25.6812L117.437 25.5578C117.575 25.4036 117.729 25.1568 117.421 24.8792L117.221 24.6941C116.73 24.2622 116.284 24.1388 116.115 24.3393C115.946 24.5398 115.884 24.8946 116.545 25.4807L116.745 25.6504C117.344 26.1131 117.775 26.2365 117.867 26.2365C117.79 26.4833 117.729 27.5938 118.143 28.473Z" fill="url(#paint13_linear_1131_13051)"/>
<path d="M30.3386 63.9177C30.1653 64.0639 30.0151 64.2355 29.8929 64.4267L29.478 65.1208C29.5087 65.09 29.4011 64.9974 29.2474 64.9049C29.0937 64.8123 28.3714 65.0591 27.5107 66.4164C26.65 67.7738 26.8191 68.3136 27.3263 68.6375L27.3724 68.6684C27.5568 68.7918 28.3099 69.1157 29.355 67.4499L29.4011 67.3727C30.3233 65.8766 30.2464 65.491 30.0159 65.3522C29.7853 65.2134 29.7239 65.2442 29.6624 65.1979C29.6009 65.1517 30.0466 64.7352 30.1696 64.5347C30.2853 64.361 30.3686 64.1676 30.4155 63.964L33.3971 65.8766C33.1858 66.0577 33.0043 66.2711 32.8592 66.509C32.7543 66.6768 32.6619 66.8521 32.5825 67.0334C32.5324 66.9656 32.4698 66.908 32.3981 66.8638C32.3251 66.8151 32.2398 66.7884 32.1522 66.7866C31.9524 66.8021 31.5835 66.9254 31.0302 67.7275C30.938 67.8663 30.8458 67.9897 30.7843 68.0977C29.9698 69.3933 29.8622 70.0874 29.8622 70.0874C28.8325 69.6709 27.8181 70.5501 27.8181 70.5501L25.2207 68.8843C25.284 68.1036 25.0414 67.3289 24.5444 66.7249C25.1335 66.1244 25.6636 65.4684 26.1275 64.7661C26.4656 64.2571 26.6961 63.7326 26.6039 63.3779C26.5748 63.2924 26.5214 63.2173 26.4502 63.162C26.3497 63.1138 26.2386 63.0925 26.1275 63.1003C26.1889 63.0077 26.3887 62.7918 26.5885 62.4833C26.7354 62.2537 26.8492 62.0044 26.9267 61.7429L30.3386 63.9177Z" fill="url(#paint14_linear_1131_13051)"/>
<path d="M37.3779 67.5424C37.2324 67.7555 37.1088 67.9829 37.009 68.2211C36.898 68.4558 36.8204 68.705 36.7785 68.9614C36.6692 68.8602 36.5447 68.7769 36.4096 68.7147C36.1176 68.5913 35.7487 69.1928 35.3338 70.2262L35.2416 70.4113C34.6729 71.892 34.7036 72.3702 35.1647 72.6324L35.3645 72.7249C35.9793 72.9871 36.302 72.6787 36.4711 72.2776C36.5584 72.0511 36.6052 71.8109 36.6094 71.5681C36.8864 71.7878 37.1913 71.9693 37.5162 72.108C37.8178 72.2408 38.1404 72.3191 38.4691 72.3393C38.205 72.7469 37.9738 73.175 37.7775 73.6195C37.5843 74.091 37.47 74.5914 37.4394 75.1002L31.1841 72.4936C31.3573 72.2966 31.4975 72.0725 31.5991 71.8303C31.7006 71.5739 31.7628 71.3034 31.7835 71.0283C31.8757 71.1362 32.014 71.3213 32.137 71.3676C32.5212 71.5219 32.9823 70.6427 33.3665 69.7172C33.7507 68.7918 34.0428 67.6967 33.6893 67.5424C33.5376 67.4837 33.3729 67.4677 33.2128 67.4961C33.3568 67.3292 33.4759 67.1421 33.5663 66.9409C33.6771 66.6525 33.7545 66.3524 33.7969 66.0463L37.3779 67.5424Z" fill="url(#paint15_linear_1131_13051)"/>
<path d="M47.2141 70.7661C46.753 71.6761 46.7069 71.7532 46.5686 72.2005C46.4399 72.646 46.3879 73.1102 46.4149 73.5733C46.1209 73.4187 45.8119 73.2946 45.4928 73.2031C45.163 73.1021 44.8225 73.04 44.4784 73.018C44.6143 72.8065 44.7227 72.5784 44.8012 72.3393C44.9087 71.9692 44.9087 71.5527 44.463 71.4293C44.0173 71.3059 43.587 72.1234 43.4179 72.5707C43.3564 72.7558 43.2028 73.1877 43.0644 73.6658C42.8493 74.4216 42.6956 75.2854 43.172 75.4242L43.4333 75.4859C43.3615 75.634 43.3049 75.789 43.2642 75.9486C43.1838 76.226 43.1273 76.5098 43.0952 76.7969L39.2221 75.671C39.3775 75.4574 39.4921 75.2168 39.5602 74.9614C39.6281 74.714 39.6744 74.4611 39.6986 74.2057C39.7597 74.251 39.827 74.2874 39.8984 74.3136C39.9681 74.3347 40.0416 74.3399 40.1135 74.329C40.1135 74.329 40.6976 74.4216 41.0818 73.0951C41.466 71.7686 41.7273 70.6889 41.1125 70.473H41.0664C40.59 70.3342 40.3594 70.7815 40.2519 71.1517C40.1858 71.3668 40.1496 71.5899 40.1443 71.8149C39.8676 71.7224 39.591 71.5835 39.3143 71.5064C38.9537 71.3842 38.5709 71.3421 38.1924 71.383C38.4791 70.8874 38.7061 70.3592 38.8686 69.8098C39.0083 69.3556 39.0707 68.8811 39.0531 68.4062L47.2141 70.7661Z" fill="url(#paint16_linear_1131_13051)"/>
<path d="M53.2239 78.8637L52.0866 78.6787C51.8407 77.9383 51.4257 77.7069 51.4257 77.7069C51.6325 77.5313 51.7644 77.283 51.7945 77.0128C51.808 76.8951 51.8132 76.7766 51.8099 76.6581C51.7945 75.964 51.2874 75.7481 51.1644 75.7326L50.1654 75.5784V75.7172C50.0886 76.2416 49.9656 76.982 50.5035 77.0746C50.5611 77.0881 50.6208 77.0897 50.679 77.079C50.7372 77.0684 50.7925 77.0459 50.8417 77.0128C50.8011 77.1493 50.7703 77.2885 50.7494 77.4293C50.7106 77.7675 50.7106 78.1091 50.7494 78.4473L46.7842 77.7841C46.9388 77.519 47.0382 77.2251 47.0762 76.9203C47.1118 76.7167 47.1273 76.51 47.1223 76.3033C47.1547 76.3643 47.2006 76.4169 47.2566 76.457C47.3126 76.4972 47.3771 76.5238 47.4451 76.5347H47.5219C47.8447 76.5193 48.1213 75.8098 48.3057 74.6992C48.3979 74.1902 48.5824 72.5861 48.2135 72.4473L48.1213 72.4165C48.0417 72.4035 47.96 72.4141 47.8863 72.447C47.8127 72.4798 47.7501 72.5336 47.7063 72.6015C47.7809 72.375 47.8374 72.1429 47.8754 71.9075C47.9401 71.5775 47.9607 71.2403 47.9369 70.9049L48.5055 71.0128L53.1009 71.7841C53.3999 72.4014 53.922 72.8812 54.561 73.126C54.4995 73.419 54.3458 73.8046 54.269 74.2828C54.1921 74.7609 54.2229 74.8072 54.2997 74.9306C53.7003 75.0848 53.4083 75.3162 53.4083 75.3316C53.4083 75.347 54.0231 76.1491 54.0231 76.1491C53.8717 76.3854 53.7625 76.6464 53.7003 76.9203C53.6845 76.9913 53.6832 77.0648 53.6964 77.1364C53.7096 77.208 53.7371 77.2761 53.7772 77.3368C53.9544 77.5307 54.1936 77.6562 54.4534 77.6915H54.5456C54.4995 77.8612 54.4688 78.0308 54.4381 78.2005C54.3811 78.4691 54.3553 78.7434 54.3612 79.018L53.2239 78.8637ZM50.3806 74.144C50.3806 74.1748 50.4113 74.1902 50.4882 74.2057L50.9646 74.2982C51.0865 74.3212 51.2097 74.3366 51.3335 74.3445C51.8099 74.329 52.1634 74.1131 52.2249 73.7275V73.6658C52.2556 73.2802 52.0251 73.018 51.5947 72.9409H51.4564C50.7648 72.8946 50.5035 73.4807 50.4113 74.036L50.3806 74.144Z" fill="url(#paint17_linear_1131_13051)"/>
<path d="M59.0334 78.1388H59.4484C59.3959 78.3249 59.365 78.5164 59.3562 78.7095C59.3262 78.9981 59.3418 79.2896 59.4023 79.5733L55.7905 79.2802C55.8712 78.9565 55.9227 78.6261 55.9442 78.2931C55.9712 78.0989 55.9763 77.9023 55.9596 77.7069C55.9442 77.6761 56.144 77.892 56.3131 77.9075C56.9432 77.9537 58.5416 74.329 58.9105 72.5553L61.846 72.7866C61.846 72.7866 62.2302 75.7018 62.8604 76.9512C63.1831 77.5835 63.4598 78.4936 64.1207 78.5399C64.0657 78.7207 64.0297 78.9068 64.0131 79.0951C63.9969 79.3736 64.0123 79.6531 64.0592 79.928L59.8941 79.5887C59.9914 79.3203 60.0534 79.0403 60.0785 78.7558C60.0977 78.5605 60.0926 78.3636 60.0632 78.1697C60.2045 78.2032 60.3485 78.2238 60.4935 78.2314C60.7241 78.2468 60.8777 78.2005 60.8931 77.9537C60.9085 77.7069 60.432 77.4756 59.8326 77.4293C59.2332 77.383 58.7568 77.383 58.7261 77.7686C58.6953 78.1542 58.8336 78.1234 59.0334 78.1388ZM59.8787 76.2416C60.1093 76.2571 60.3245 76.1799 60.3398 76.0103C60.3552 75.8406 59.9863 75.0694 59.9863 75.0694C59.9863 75.0694 59.4945 75.6247 59.4638 75.9332C59.433 76.2416 59.6636 76.2262 59.8787 76.2416Z" fill="url(#paint18_linear_1131_13051)"/>
<path d="M75.1403 73.0026C75.0901 73.2668 75.0695 73.5358 75.0788 73.8046C75.0677 74.059 75.0936 74.3136 75.1557 74.5604C75.046 74.5041 74.9253 74.4725 74.8022 74.4679C74.2643 74.4679 74.2643 75.3625 74.2643 75.8715V76.6118C74.2643 77.7532 74.2796 78.5553 74.9559 78.5553C75.0484 78.5402 75.1342 78.4971 75.2018 78.4319C75.1361 78.6254 75.1049 78.829 75.1096 79.0334C75.1194 79.3474 75.1711 79.6587 75.2633 79.9589L71.2365 79.9897C71.3134 79.8046 71.3134 79.5116 71.3134 79.1568C71.3189 78.9473 71.2877 78.7385 71.2211 78.5399L71.5439 78.5707C71.8974 78.5707 72.174 78.3393 72.174 77.2442V76.9203C72.1699 76.5233 72.1443 76.1268 72.0972 75.7327C71.3902 76.9049 70.7754 78.4627 70.7754 79.9897H69.3154V79.8663C69.3154 79.6041 69.2693 78.8946 68.9004 77.7069C68.7154 77.0235 68.3967 76.3838 67.9629 75.8252V77.1825C67.9782 78.0308 68.0397 78.617 68.593 78.6015H68.8082C68.7577 78.7873 68.737 78.9799 68.7467 79.1722C68.733 79.4541 68.7694 79.7361 68.8543 80.0051L65.3808 80.036C65.4853 79.7445 65.5322 79.4354 65.5192 79.126C65.5254 78.9083 65.5047 78.6907 65.4577 78.4781C65.5806 78.5398 65.7036 78.6478 65.8265 78.6478C65.9495 78.6478 66.3491 78.3702 66.3337 76.8432V76.7352C66.3184 75.347 66.2723 74.5758 65.8112 74.5758C65.6715 74.5792 65.5367 74.6279 65.4269 74.7146C65.4627 74.4797 65.4832 74.2427 65.4884 74.0051C65.4789 73.6923 65.4325 73.3816 65.3501 73.0797L69.2385 73.0488C69.6842 74.4987 70.3758 75.5013 70.3912 75.4704C70.7908 75.0694 71.3748 73.4653 71.4056 73.0334L75.1403 73.0026Z" fill="url(#paint19_linear_1131_13051)"/>
<path d="M79.6742 78.2776L80.0737 78.2005C80.0548 78.3954 80.0548 78.5917 80.0737 78.7866C80.0981 79.0678 80.1655 79.3435 80.2735 79.6041L76.6464 79.928C76.6775 79.5946 76.6775 79.2589 76.6464 78.9254C76.6402 78.727 76.6092 78.5301 76.5542 78.3393C76.5542 78.3085 76.7694 78.4936 76.9384 78.4781C77.5839 78.4164 78.5676 74.5758 78.6444 72.7712L81.5646 72.5244C81.5646 72.5244 82.4252 75.3316 83.2552 76.473C83.6702 77.0283 84.1005 77.892 84.7614 77.8303C84.7325 78.0192 84.7273 78.2109 84.746 78.401C84.7617 78.6769 84.8241 78.9482 84.9304 79.2031L80.75 79.5733C80.8095 79.2894 80.825 78.9981 80.7961 78.7095C80.7802 78.516 80.7442 78.3247 80.6885 78.1388C80.837 78.1465 80.9858 78.1465 81.1342 78.1388C81.3648 78.108 81.5031 78.0308 81.4724 77.7995C81.4416 77.5681 80.9498 77.3985 80.3504 77.4602C79.751 77.5219 79.2745 77.5835 79.3053 77.9691C79.336 78.3548 79.4744 78.2931 79.6742 78.2776ZM80.1967 76.2725C80.4272 76.2571 80.627 76.1337 80.6117 75.964C80.5963 75.7943 80.1199 75.1002 80.1199 75.1002C80.1199 75.1002 79.7049 75.7172 79.7356 76.0411C79.7664 76.365 79.9815 76.2879 80.1967 76.2725Z" fill="url(#paint20_linear_1131_13051)"/>
<path d="M92.7378 77.892L91.6005 78.108C91.1087 77.491 90.663 77.4139 90.663 77.4139C90.663 77.4139 90.8474 77.1517 90.7552 76.6427C90.737 76.5265 90.706 76.4127 90.663 76.3033C90.4171 75.6401 89.8638 75.6247 89.7408 75.6401C89.2798 75.7172 88.7572 75.8406 88.7572 75.8406V75.9794C88.8648 76.4884 89.0031 77.2442 89.541 77.1362C89.6604 77.1182 89.7693 77.058 89.8484 76.9666C89.846 77.1119 89.8614 77.257 89.8945 77.3985C89.9645 77.7259 90.0782 78.0424 90.2327 78.3393L86.2828 79.0643C86.3323 78.7618 86.3218 78.4526 86.252 78.1542C86.227 77.9529 86.1753 77.7558 86.0983 77.5681C86.2092 77.6495 86.3457 77.6878 86.4826 77.6761L86.5594 77.6452C86.8514 77.5373 86.8822 76.7661 86.6824 75.6709C86.5901 75.1465 86.2366 73.5733 85.837 73.5733H85.7295C85.6532 73.5856 85.5821 73.6198 85.5248 73.6718C85.4676 73.7238 85.4265 73.7914 85.4067 73.8663C85.4029 73.6287 85.3823 73.3916 85.3452 73.1568C85.2801 72.829 85.1823 72.5086 85.0532 72.2005L85.6219 72.108L90.2019 71.2751C90.6902 71.7564 91.3464 72.0275 92.0308 72.0308C92.077 72.3393 92.0616 72.7558 92.1538 73.2339C92.246 73.7121 92.2768 73.7429 92.3997 73.82C91.8772 74.1748 91.6774 74.4987 91.6774 74.5141C91.6774 74.5296 92.5534 75.0694 92.5534 75.0694C92.4922 75.3426 92.4766 75.624 92.5073 75.9023C92.5259 76.0463 92.5971 76.1782 92.7071 76.2725C92.9367 76.3993 93.2044 76.4377 93.4602 76.3805H93.5678C93.5831 76.5501 93.5985 76.7198 93.6293 76.8895C93.6748 77.1616 93.7416 77.4298 93.8291 77.6915L92.7378 77.892ZM88.4652 74.4062C88.4806 74.437 88.5113 74.4524 88.5881 74.437L89.0646 74.3599L89.4335 74.2828C89.8792 74.0977 90.1251 73.7892 90.0636 73.3882V73.3419C89.956 72.9717 89.6486 72.7866 89.2183 72.8637L89.08 72.91C88.4191 73.0951 88.3576 73.7275 88.4652 74.2828V74.4062Z" fill="url(#paint21_linear_1131_13051)"/>
<path d="M97.241 69.6093C97.2512 69.8653 97.2925 70.1191 97.364 70.365C97.4169 70.6129 97.5048 70.8518 97.6253 71.0745C97.5089 71.0481 97.3881 71.0481 97.2718 71.0745C96.7031 71.2288 97.0259 72.4319 97.2103 73.126C97.533 74.3136 97.779 75.1928 98.4552 75.0077C98.5363 74.9948 98.6114 74.9571 98.6704 74.8997C98.6504 75.1035 98.6767 75.3092 98.7472 75.5013C98.8236 75.7852 98.9428 76.0556 99.1007 76.3033L95.2738 77.3368C95.305 77.0354 95.2736 76.7307 95.1815 76.4422C95.1457 76.2305 95.0729 76.0268 94.9664 75.8406C95.0876 75.9096 95.2297 75.9316 95.366 75.9023C95.6887 75.7943 95.7041 75.4704 95.3045 74.0051L95.2738 73.8972C94.9049 72.5553 94.6897 71.7532 94.244 71.8766C94.1098 71.9159 93.9914 71.9969 93.9059 72.108C93.8881 71.9299 93.852 71.7542 93.7983 71.5835C93.7172 71.2523 93.5986 70.9314 93.4448 70.6272L97.241 69.6093Z" fill="url(#paint22_linear_1131_13051)"/>
<path d="M101.391 68.2057C101.391 68.2057 103.45 70.2416 104.495 70.4267C104.455 70.2372 104.398 70.0514 104.326 69.8715C104.172 69.455 103.757 68.7301 103.22 68.946C103.131 68.9683 103.05 69.0166 102.989 69.0848C102.928 68.8689 102.881 68.5913 102.805 68.4062C102.715 68.1789 102.602 67.9617 102.466 67.7584L105.802 66.4627C105.848 66.7404 105.817 66.9254 105.971 67.3111C106.062 67.5346 106.17 67.7511 106.293 67.9589C106.192 67.9146 106.08 67.8986 105.971 67.9126C105.402 68.1285 105.602 68.8689 105.955 69.7635L106.293 70.581C106.801 71.9075 107.446 73.2802 107.446 73.2802L105.279 74.144C103.604 71.892 101.529 71.4139 101.529 71.4139L101.713 71.9229C101.913 72.4165 102.221 73.1414 102.42 73.3882C102.55 73.4959 102.713 73.5558 102.881 73.5578L102.958 73.527C103.057 73.4842 103.142 73.4148 103.204 73.3265C103.24 73.5489 103.302 73.7664 103.389 73.9743C103.486 74.2418 103.627 74.4918 103.804 74.7147L100.561 75.9949C100.526 75.6557 100.443 75.3233 100.315 75.0077C100.256 74.8429 100.184 74.683 100.1 74.5296C100.218 74.5705 100.345 74.5811 100.468 74.5604C100.591 74.4987 100.668 74.4216 100.699 74.0977C100.73 73.7738 100.054 71.9229 99.8383 71.3676L99.8076 71.2596C99.6846 70.982 99.3311 70.473 98.9777 70.6118C98.6242 70.7506 98.701 70.9666 98.701 70.9512C98.6217 70.6221 98.5242 70.2977 98.409 69.9794C98.3363 69.8054 98.2542 69.6355 98.1631 69.4704L101.391 68.2057Z" fill="url(#paint23_linear_1131_13051)"/>
<path d="M110.505 63.6555C111.396 64.1954 112.149 64.2879 112.718 64.1028C112.907 64.8314 113.202 65.5279 113.594 66.1697C113.887 66.6931 114.285 67.15 114.762 67.5116C114.178 68.2057 113.978 69.0386 114.178 69.5476L111.242 71.3522C110.574 70.9944 109.813 70.8492 109.06 70.9357C108.939 70.2349 108.683 69.5644 108.307 68.9614C107.996 68.419 107.571 67.9507 107.062 67.5887C107.631 66.7404 107.738 66.1542 107.692 65.383L110.505 63.6555ZM112.042 69.3779C112.533 69.0848 112.334 68.0977 111.734 67.1105C111.135 66.1234 110.351 65.3676 109.828 65.6761C109.306 65.9846 109.598 67.0643 110.182 68.0514C110.766 69.0386 111.473 69.7326 112.042 69.3779Z" fill="url(#paint24_linear_1131_13051)"/>
<path d="M119.219 60.9871C119.404 61.3686 119.642 61.7218 119.926 62.036C120.144 62.2801 120.411 62.4747 120.71 62.6067C120.357 63.2082 120.341 64.2108 120.449 64.4576L118.604 66.2005C118.589 66.2005 118.159 66.0617 118.051 66.0925C117.944 66.1234 118.113 66.6478 118.113 66.6478L116.991 67.7121C116.858 67.4517 116.687 67.2126 116.484 67.0026C116.253 66.7542 116.001 66.527 115.73 66.3239C115.941 66.1903 116.136 66.0353 116.314 65.8612C116.576 65.6126 116.813 65.3388 117.021 65.0437V65.0745C117.206 65.2751 117.667 65.2134 118.19 64.7198C118.712 64.2262 119.05 63.7172 118.82 63.4704C118.589 63.2237 117.698 63.6709 117.436 63.9177C117.175 64.1645 116.668 64.9049 116.622 65.2442C115.669 64.9203 114.685 65.3059 114.685 65.3059C114.532 64.9749 114.324 64.6724 114.071 64.4113C113.788 64.0926 113.456 63.8217 113.087 63.6093C113.398 63.0009 113.485 62.3016 113.333 61.635L114.639 60.401C114.639 60.401 115.1 60.4936 115.208 60.4319C115.315 60.3702 115.162 59.892 115.162 59.892L116.407 58.7352C116.593 59.0657 116.821 59.3714 117.083 59.6452C117.323 59.909 117.585 60.1515 117.867 60.3702C117.55 60.4274 117.259 60.584 117.037 60.8175C116.802 61.0492 116.596 61.3081 116.422 61.5887L116.376 61.5424L116.268 61.4344C116.115 61.2802 115.899 61.1105 115.592 61.3882L115.392 61.5578C114.9 62.0206 114.747 62.4524 114.931 62.6375C115.116 62.8226 115.469 62.9152 116.099 62.3136L116.299 62.1285C116.822 61.5733 116.991 61.1568 116.991 61.0643C116.991 60.9717 118.312 61.3265 119.219 60.9871Z" fill="url(#paint25_linear_1131_13051)"/>
<path d="M41.6196 52.5501C41.5437 52.5502 41.4684 52.5349 41.3984 52.5053C41.3284 52.4756 41.265 52.4322 41.212 52.3776C41.159 52.3229 41.1174 52.2582 41.0898 52.1871C41.0621 52.1161 41.0489 52.0402 41.051 51.964V40.4267L39.7446 52.0566C39.7333 52.1889 39.6737 52.3125 39.5773 52.4036C39.4809 52.4946 39.3544 52.5468 39.222 52.5501H36.3326C36.2003 52.5468 36.0738 52.4946 35.9774 52.4036C35.8809 52.3125 35.8214 52.1889 35.8101 52.0566L34.4883 40.4267V51.964C34.4925 52.0395 34.4813 52.115 34.4554 52.186C34.4294 52.257 34.3894 52.3219 34.3375 52.3767C34.2857 52.4316 34.2233 52.4753 34.1541 52.5051C34.0849 52.5349 34.0104 52.5502 33.935 52.5501H32.352C32.2767 52.5502 32.2021 52.5349 32.1329 52.5051C32.0637 52.4753 32.0013 52.4316 31.9495 52.3767C31.8977 52.3219 31.8576 52.257 31.8317 52.186C31.8057 52.115 31.7945 52.0395 31.7987 51.964V37.6658C31.7945 37.5903 31.8057 37.5148 31.8317 37.4438C31.8576 37.3729 31.8977 37.308 31.9495 37.2531C32.0013 37.1982 32.0637 37.1545 32.1329 37.1247C32.2021 37.0949 32.2767 37.0796 32.352 37.0797H36.0406C36.1706 37.0826 36.2951 37.1326 36.3912 37.2205C36.4872 37.3084 36.5483 37.4282 36.5632 37.5578L37.762 48.5399L38.9915 37.5578C39.0031 37.4269 39.0632 37.3051 39.16 37.2166C39.2567 37.128 39.3831 37.0792 39.5141 37.0797H43.1719C43.2479 37.0797 43.3232 37.0949 43.3932 37.1246C43.4632 37.1542 43.5266 37.1976 43.5796 37.2523C43.6326 37.3069 43.6741 37.3716 43.7018 37.4427C43.7295 37.5137 43.7427 37.5896 43.7406 37.6658V51.964C43.7427 52.0402 43.7295 52.1161 43.7018 52.1871C43.6741 52.2582 43.6326 52.3229 43.5796 52.3776C43.5266 52.4322 43.4632 52.4756 43.3932 52.5053C43.3232 52.5349 43.2479 52.5502 43.1719 52.5501H41.6196Z" fill="url(#paint26_linear_1131_13051)"/>
<path d="M52.4089 52.5501C52.2755 52.5504 52.147 52.4994 52.0499 52.4076C51.9527 52.3158 51.8942 52.1902 51.8863 52.0566L51.5636 49.4036H49.1506L48.8432 52.0566C48.8319 52.1889 48.7724 52.3125 48.676 52.4036C48.5795 52.4946 48.453 52.5468 48.3207 52.5501H46.4303C46.3469 52.5494 46.2647 52.5302 46.1895 52.4941C46.1144 52.4579 46.048 52.4056 45.9952 52.3408C45.9425 52.2761 45.9045 52.2005 45.8841 52.1194C45.8636 52.0383 45.8612 51.9536 45.877 51.8715L47.6905 37.5578C47.6925 37.4917 47.7077 37.4265 47.7352 37.3664C47.7627 37.3062 47.802 37.2522 47.8508 37.2076C47.8995 37.1629 47.9567 37.1286 48.019 37.1067C48.0812 37.0847 48.1472 37.0755 48.2131 37.0797H52.5011C52.5657 37.0776 52.6301 37.0884 52.6905 37.1113C52.751 37.1342 52.8063 37.1689 52.8534 37.2133C52.9006 37.2577 52.9385 37.311 52.965 37.3701C52.9916 37.4292 53.0063 37.493 53.0083 37.5578L54.8372 51.8715C54.8533 51.9549 54.8505 52.0409 54.8292 52.1231C54.8079 52.2054 54.7686 52.2818 54.7141 52.3468C54.6596 52.4119 54.5913 52.4639 54.5142 52.499C54.4372 52.5342 54.3532 52.5517 54.2686 52.5501H52.4089ZM50.3494 39.2082L49.458 46.8278H51.2562L50.3494 39.2082Z" fill="url(#paint27_linear_1131_13051)"/>
<path d="M62.9368 52.5501C62.8218 52.555 62.7092 52.5166 62.621 52.4424C62.5329 52.3681 62.4756 52.2636 62.4603 52.1491C62.3527 51.5321 62.3527 50.5141 62.3527 49.7275V47.2134C62.3527 46.365 62.1222 45.856 61.3537 45.856H59.9705V51.964C59.9747 52.0395 59.9635 52.115 59.9376 52.186C59.9116 52.257 59.8715 52.3219 59.8197 52.3767C59.7679 52.4316 59.7055 52.4753 59.6363 52.5051C59.5671 52.5349 59.4925 52.5502 59.4172 52.5501H57.5268C57.4515 52.5502 57.3769 52.5349 57.3077 52.5051C57.2385 52.4753 57.1761 52.4316 57.1243 52.3767C57.0725 52.3219 57.0324 52.257 57.0065 52.186C56.9805 52.115 56.9693 52.0395 56.9735 51.964V37.6658C56.9693 37.5903 56.9805 37.5148 57.0065 37.4438C57.0324 37.3729 57.0725 37.308 57.1243 37.2531C57.1761 37.1982 57.2385 37.1545 57.3077 37.1247C57.3769 37.0949 57.4515 37.0796 57.5268 37.0797H62.8138C65.3036 37.0797 65.3497 38.9152 65.3497 40.5193V40.9666C65.3497 42.4936 65.3036 44.3753 62.8292 44.6221C65.3036 44.8226 65.3497 46.5347 65.3497 48.0463V50.3599C65.3497 50.8689 65.3497 51.4087 65.3958 51.856C65.442 52.3033 65.2114 52.5501 64.8272 52.5501H62.9368ZM62.3527 40.9974C62.3527 40.1491 62.1222 39.6555 61.3537 39.6555H59.9705V43.2802H61.3537C62.1222 43.2802 62.3527 42.7866 62.3527 41.9383V40.9974Z" fill="url(#paint28_linear_1131_13051)"/>
<path d="M69.6994 52.5501C69.6241 52.5502 69.5495 52.5349 69.4803 52.5051C69.4111 52.4753 69.3487 52.4316 69.2969 52.3767C69.2451 52.3219 69.205 52.257 69.1791 52.186C69.1531 52.115 69.1419 52.0395 69.1461 51.964V39.6555H67.686C67.6114 39.6578 67.5372 39.6445 67.468 39.6164C67.3988 39.5883 67.3363 39.5461 67.2842 39.4924C67.2322 39.4387 67.1918 39.3748 67.1658 39.3046C67.1397 39.2344 67.1284 39.1596 67.1327 39.0848V37.6658C67.1285 37.5903 67.1398 37.5148 67.1657 37.4438C67.1916 37.3729 67.2317 37.308 67.2835 37.2531C67.3353 37.1982 67.3977 37.1545 67.4669 37.1247C67.5362 37.0949 67.6107 37.0796 67.686 37.0797H73.6185C73.6951 37.0774 73.7714 37.0912 73.8424 37.12C73.9135 37.1489 73.9777 37.1923 74.0312 37.2474C74.0847 37.3025 74.1261 37.3681 74.153 37.4401C74.1798 37.5122 74.1915 37.589 74.1872 37.6658V39.0848C74.1893 39.1604 74.1761 39.2355 74.1482 39.3057C74.1204 39.3759 74.0786 39.4397 74.0254 39.4931C73.9721 39.5465 73.9086 39.5885 73.8386 39.6164C73.7687 39.6443 73.6938 39.6577 73.6185 39.6555H72.1585V51.964C72.1605 52.0402 72.1473 52.1161 72.1197 52.1871C72.092 52.2582 72.0505 52.3229 71.9974 52.3776C71.9444 52.4322 71.881 52.4756 71.811 52.5053C71.741 52.5349 71.6658 52.5502 71.5898 52.5501H69.6994Z" fill="url(#paint29_linear_1131_13051)"/>
<path d="M76.8156 52.5501C76.739 52.5524 76.6628 52.5386 76.5917 52.5098C76.5207 52.4809 76.4564 52.4376 76.403 52.3825C76.3495 52.3274 76.308 52.2617 76.2812 52.1897C76.2543 52.1176 76.2427 52.0408 76.247 51.964V37.6658C76.2427 37.589 76.2543 37.5122 76.2812 37.4401C76.308 37.3681 76.3495 37.3025 76.403 37.2474C76.4564 37.1923 76.5207 37.1489 76.5917 37.12C76.6628 37.0912 76.739 37.0774 76.8156 37.0797H78.6907C78.7667 37.0797 78.8419 37.0949 78.9119 37.1246C78.9819 37.1542 79.0453 37.1976 79.0983 37.2523C79.1513 37.3069 79.1929 37.3716 79.2205 37.4427C79.2482 37.5137 79.2614 37.5896 79.2593 37.6658V51.964C79.2614 52.0402 79.2482 52.1161 79.2205 52.1871C79.1929 52.2582 79.1513 52.3229 79.0983 52.3776C79.0453 52.4322 78.9819 52.4756 78.9119 52.5053C78.8419 52.5349 78.7667 52.5502 78.6907 52.5501H76.8156Z" fill="url(#paint30_linear_1131_13051)"/>
<path d="M86.6673 52.5501C86.5339 52.5504 86.4054 52.4994 86.3083 52.4076C86.2111 52.3158 86.1526 52.1902 86.1447 52.0566L84.7615 40.4267V51.964C84.7658 52.0408 84.7542 52.1176 84.7273 52.1897C84.7004 52.2617 84.659 52.3274 84.6055 52.3825C84.5521 52.4376 84.4878 52.4809 84.4167 52.5098C84.3457 52.5386 84.2695 52.5524 84.1929 52.5501H82.6252C82.5486 52.5524 82.4724 52.5386 82.4013 52.5098C82.3303 52.4809 82.266 52.4376 82.2125 52.3825C82.1591 52.3274 82.1176 52.2617 82.0907 52.1897C82.0639 52.1176 82.0522 52.0408 82.0565 51.964V37.6658C82.0522 37.589 82.0639 37.5122 82.0907 37.4401C82.1176 37.3681 82.1591 37.3025 82.2125 37.2474C82.266 37.1923 82.3303 37.1489 82.4013 37.12C82.4724 37.0912 82.5486 37.0774 82.6252 37.0797H86.114C86.2434 37.0795 86.3679 37.1288 86.4622 37.2177C86.5565 37.3066 86.6134 37.4283 86.6212 37.5578L87.9429 48.5707V37.6658C87.9388 37.5903 87.95 37.5148 87.9759 37.4438C88.0018 37.3729 88.0419 37.308 88.0937 37.2531C88.1455 37.1982 88.2079 37.1545 88.2772 37.1247C88.3464 37.0949 88.4209 37.0796 88.4962 37.0797H90.0793C90.1546 37.0796 90.2291 37.0949 90.2984 37.1247C90.3676 37.1545 90.43 37.1982 90.4818 37.2531C90.5336 37.308 90.5737 37.3729 90.5996 37.4438C90.6255 37.5148 90.6367 37.5903 90.6326 37.6658V51.964C90.6367 52.0395 90.6255 52.115 90.5996 52.186C90.5737 52.257 90.5336 52.3219 90.4818 52.3767C90.43 52.4316 90.3676 52.4753 90.2984 52.5051C90.2291 52.5349 90.1546 52.5502 90.0793 52.5501H86.6673Z" fill="url(#paint31_linear_1131_13051)"/>
<path d="M93.998 52.5501C93.9227 52.5502 93.8481 52.5349 93.7789 52.5051C93.7097 52.4753 93.6473 52.4316 93.5955 52.3767C93.5437 52.3219 93.5036 52.257 93.4777 52.186C93.4517 52.115 93.4405 52.0395 93.4447 51.964V37.6658C93.4405 37.5903 93.4517 37.5148 93.4777 37.4438C93.5036 37.3729 93.5437 37.308 93.5955 37.2531C93.6473 37.1982 93.7097 37.1545 93.7789 37.1247C93.8481 37.0949 93.9227 37.0796 93.998 37.0797H99.5463C99.6216 37.0796 99.6962 37.0949 99.7654 37.1247C99.8346 37.1545 99.897 37.1982 99.9488 37.2531C100.001 37.308 100.041 37.3729 100.067 37.4438C100.093 37.5148 100.104 37.5903 100.1 37.6658V39.0848C100.104 39.1596 100.093 39.2344 100.067 39.3046C100.04 39.3748 100 39.4387 99.9481 39.4924C99.8961 39.5461 99.8335 39.5883 99.7643 39.6164C99.6951 39.6445 99.6209 39.6578 99.5463 39.6555H96.4417V43.2802H99.4387C99.514 43.2801 99.5886 43.2954 99.6578 43.3252C99.727 43.355 99.7894 43.3987 99.8412 43.4536C99.893 43.5085 99.9331 43.5734 99.959 43.6443C99.985 43.7153 99.9962 43.7909 99.992 43.8663V45.2853C99.9963 45.3601 99.9851 45.435 99.959 45.5051C99.9329 45.5753 99.8926 45.6392 99.8405 45.6929C99.7885 45.7466 99.7259 45.7888 99.6567 45.8169C99.5875 45.845 99.5133 45.8583 99.4387 45.856H96.4417V49.9589H99.5463C99.6216 49.9587 99.6962 49.9741 99.7654 50.0039C99.8346 50.0337 99.897 50.0774 99.9488 50.1323C100.001 50.1871 100.041 50.252 100.067 50.323C100.093 50.394 100.104 50.4695 100.1 50.545V51.964C100.104 52.0395 100.093 52.115 100.067 52.186C100.041 52.257 100.001 52.3219 99.9488 52.3767C99.897 52.4316 99.8346 52.4753 99.7654 52.5051C99.6962 52.5349 99.6216 52.5502 99.5463 52.5501H93.998Z" fill="url(#paint32_linear_1131_13051)"/>
<path d="M102.82 52.5501C102.744 52.5502 102.669 52.5349 102.599 52.5053C102.529 52.4756 102.466 52.4322 102.413 52.3776C102.36 52.3229 102.318 52.2582 102.29 52.1871C102.263 52.1161 102.25 52.0402 102.252 51.964V50.0514C102.256 49.9875 102.272 49.9248 102.298 49.8663L106.755 39.6555H102.866C102.792 39.6578 102.718 39.6445 102.648 39.6164C102.579 39.5883 102.517 39.5461 102.465 39.4924C102.413 39.4387 102.372 39.3748 102.346 39.3046C102.32 39.2344 102.309 39.1596 102.313 39.0848V37.6658C102.309 37.5903 102.32 37.5148 102.346 37.4438C102.372 37.3729 102.412 37.308 102.464 37.2531C102.516 37.1982 102.578 37.1545 102.647 37.1247C102.717 37.0949 102.791 37.0796 102.866 37.0797H109.291C109.366 37.0796 109.441 37.0949 109.51 37.1247C109.579 37.1545 109.642 37.1982 109.693 37.2531C109.745 37.308 109.785 37.3729 109.811 37.4438C109.837 37.5148 109.848 37.5903 109.844 37.6658V39.563C109.84 39.6256 109.83 39.6876 109.813 39.7481L105.356 49.9589H109.229C109.305 49.9588 109.381 49.9741 109.451 50.0037C109.521 50.0334 109.584 50.0768 109.637 50.1314C109.69 50.1861 109.732 50.2508 109.759 50.3219C109.787 50.3929 109.8 50.4688 109.798 50.545V51.964C109.8 52.0402 109.787 52.1161 109.759 52.1871C109.732 52.2582 109.69 52.3229 109.637 52.3776C109.584 52.4322 109.521 52.4756 109.451 52.5053C109.381 52.5349 109.305 52.5502 109.229 52.5501H102.82Z" fill="url(#paint33_linear_1131_13051)"/>
<path d="M13.6323 47.1825H10.666V42.0771H13.6015V42.6941H11.2039V44.2519H13.4171V44.8689H11.2039V46.5656H13.6323V47.1825Z" fill="url(#paint34_linear_1131_13051)"/>
<path d="M17.3057 43.5733C17.3044 43.3582 17.2517 43.1466 17.152 42.9563C17.0609 42.8165 16.935 42.7031 16.7867 42.6273C16.6384 42.5515 16.4729 42.5161 16.3067 42.5244C15.738 42.5244 15.3999 42.8638 15.3999 43.4036C15.3999 43.9434 15.5382 43.9743 15.861 44.0668L17.0136 44.4062C17.6284 44.5758 17.9358 45.054 17.9358 45.7789C17.9358 46.7352 17.3364 47.3213 16.3528 47.3213C15.738 47.3213 15.3384 47.1208 15.031 46.6735C14.7236 46.2262 14.739 46.072 14.7236 45.5321H15.2462C15.2275 45.7737 15.281 46.0153 15.3999 46.2262C15.5843 46.5501 15.9224 46.7198 16.3681 46.7198C16.8138 46.7198 17.4132 46.4113 17.4132 45.8406C17.4132 45.2699 17.2134 45.162 16.5526 44.9614L15.7226 44.7147C15.154 44.5604 14.862 44.144 14.862 43.4961C14.8542 43.1088 14.9729 42.7296 15.2001 42.4165C15.446 42.0925 15.8148 41.9383 16.3067 41.9383C16.7985 41.9383 17.3825 42.2005 17.6284 42.6478C17.8743 43.0951 17.7975 43.1105 17.8282 43.5733H17.3057Z" fill="url(#paint35_linear_1131_13051)"/>
<path d="M18.8887 42.0771H22.1623V42.6941H20.7945V47.1825H20.2565V42.6941H18.8887V42.0771Z" fill="url(#paint36_linear_1131_13051)"/>
<path d="M116.837 43.9743C116.852 43.4036 116.914 43.1105 117.083 42.8021C117.192 42.6094 117.351 42.4502 117.543 42.3415C117.735 42.2328 117.953 42.1787 118.174 42.1851C118.942 42.1851 119.45 42.7712 119.45 43.6812C119.462 44.0334 119.359 44.38 119.158 44.6684C119.019 44.8689 118.819 45.054 118.389 45.347L117.974 45.6247C117.575 45.9023 117.329 46.2416 117.298 46.5964H119.45V47.1825H116.745C116.775 46.2416 117.052 45.6555 117.667 45.1928L118.189 44.8072C118.402 44.6776 118.589 44.5103 118.743 44.3136C118.86 44.1184 118.918 43.8935 118.912 43.6658C118.912 43.0951 118.604 42.7404 118.128 42.7404C117.651 42.7404 117.375 43.1105 117.329 43.9743H116.837Z" fill="url(#paint37_linear_1131_13051)"/>
<path d="M123.323 44.7609C123.323 46.3805 122.831 47.3213 121.97 47.3213C121.11 47.3213 120.603 46.3805 120.603 44.7455C120.603 43.1105 121.094 42.1851 121.97 42.1851C122.846 42.1851 123.323 43.126 123.323 44.7609ZM121.14 44.7455C121.14 46.072 121.417 46.7661 121.97 46.7661C122.524 46.7661 122.785 46.072 122.785 44.7301C122.785 43.3882 122.508 42.7404 121.955 42.7404C121.402 42.7404 121.14 43.4344 121.14 44.7455Z" fill="url(#paint38_linear_1131_13051)"/>
<path d="M124.46 43.9743C124.475 43.4036 124.537 43.1105 124.706 42.8021C124.815 42.6094 124.974 42.4502 125.166 42.3415C125.359 42.2328 125.577 42.1787 125.797 42.1851C126.55 42.1851 127.058 42.7712 127.058 43.6812C127.067 44.0308 126.971 44.375 126.781 44.6684C126.563 44.9406 126.297 45.1706 125.997 45.347L125.597 45.6247C125.198 45.9023 124.952 46.2416 124.906 46.5964H127.058V47.1825H124.353C124.383 46.2416 124.66 45.6555 125.275 45.1928L125.813 44.8072C126.022 44.6786 126.204 44.5111 126.351 44.3136C126.479 44.123 126.544 43.896 126.535 43.6658C126.535 43.0951 126.228 42.7404 125.751 42.7404C125.275 42.7404 124.983 43.1105 124.952 43.9743H124.46Z" fill="url(#paint39_linear_1131_13051)"/>
<path d="M128.256 43.9743C128.272 43.4036 128.333 43.1105 128.518 42.8021C128.624 42.6106 128.78 42.452 128.97 42.3433C129.159 42.2345 129.375 42.1798 129.593 42.1851C130.362 42.1851 130.869 42.7712 130.869 43.6812C130.879 44.0308 130.782 44.375 130.592 44.6684C130.371 44.9368 130.106 45.1662 129.809 45.347L129.394 45.6247C129.009 45.9023 128.763 46.2416 128.717 46.5964H130.869V47.1825H128.164C128.195 46.2416 128.471 45.6555 129.086 45.1928L129.609 44.8072C129.825 44.6822 130.013 44.5143 130.162 44.3136C130.279 44.1184 130.338 43.8936 130.331 43.6658C130.331 43.0951 130.024 42.7404 129.563 42.7404C129.102 42.7404 128.794 43.1105 128.763 43.9743H128.256Z" fill="url(#paint40_linear_1131_13051)"/>
<path d="M64.0742 27.2853H65.5189C66.0107 27.2853 66.2413 27.3316 66.4718 27.5013C66.6016 27.6004 66.7044 27.7307 66.7706 27.8803C66.8368 28.0299 66.8642 28.1938 66.8504 28.3569C66.8366 28.52 66.782 28.6769 66.6917 28.8132C66.6013 28.9494 66.4781 29.0605 66.3335 29.1362C66.531 29.1867 66.7044 29.3058 66.8226 29.4724C66.9408 29.6391 66.9962 29.8424 66.979 30.0463C66.9839 30.2191 66.9473 30.3905 66.8724 30.5462C66.7976 30.7019 66.6865 30.8372 66.5487 30.9409C66.3028 31.1105 66.0107 31.1722 65.4421 31.1722H64.0742V27.2853ZM65.5804 28.9512C65.7775 28.9703 65.9747 28.9153 66.1337 28.7969C66.1952 28.7405 66.2436 28.6712 66.2755 28.5939C66.3074 28.5166 66.3219 28.4332 66.3181 28.3496C66.3158 28.1869 66.2495 28.0317 66.1337 27.9177C65.9747 27.7993 65.7775 27.7443 65.5804 27.7635H64.5814V28.9512H65.5804ZM65.6572 30.6787C66.1337 30.6787 66.4257 30.4319 66.4257 30.0308C66.4257 29.6298 66.1798 29.3985 65.7187 29.3985H64.5814V30.6787H65.6572Z" fill="url(#paint41_linear_1131_13051)"/>
<path d="M69.8994 30L69.5306 31.1722H68.9619L70.3298 27.2853H70.8984L72.2817 31.1722H71.6976L71.3134 30H69.8994ZM70.6064 27.8869L70.0685 29.5373H71.1597L70.6064 27.8869Z" fill="url(#paint42_linear_1131_13051)"/>
<path d="M74.9864 31.1722H74.4639V27.2853H75.9854C76.4772 27.2853 76.7231 27.347 76.9537 27.5476C77.0821 27.6664 77.1802 27.8144 77.2398 27.9791C77.2994 28.1439 77.3187 28.3206 77.2961 28.4944C77.2735 28.6682 77.2097 28.834 77.11 28.9779C77.0103 29.1218 76.8776 29.2396 76.7231 29.3213C77.0152 29.4602 77.1381 29.6761 77.1689 30.1388V30.4627C77.1996 30.8329 77.2457 31.0026 77.3533 31.1722H76.7078C76.6495 30.9405 76.6236 30.7017 76.6309 30.4627L76.6002 30.1697C76.5541 29.7841 76.3543 29.5681 76.0008 29.5681H74.9711L74.9864 31.1722ZM75.8778 29.1054C76.0991 29.1258 76.3209 29.0715 76.508 28.9512C76.5862 28.885 76.6488 28.8023 76.6913 28.7089C76.7339 28.6156 76.7552 28.5139 76.7539 28.4113C76.7539 28.0103 76.4926 27.7635 76.0623 27.7635H74.9864V29.1054H75.8778Z" fill="url(#paint43_linear_1131_13051)"/>
<path d="M58.8332 62.6838H58.3106V59.2905H57.1426V58.7969H60.0013V59.2905H58.8332V62.6838Z" fill="url(#paint44_linear_1131_13051)"/>
<path d="M62.7528 62.6838H62.2148V58.7969H62.7528V62.6838Z" fill="url(#paint45_linear_1131_13051)"/>
<path d="M67.9321 59.2905H65.8419V60.4473H67.7477V60.91H65.8419V62.2057H68.009V62.6838H65.3193V58.7969H67.9321V59.2905Z" fill="url(#paint46_linear_1131_13051)"/>
<path d="M72.758 62.6838L71.2364 60.2314C71.052 59.9383 70.9444 59.7378 70.8522 59.5681C70.8522 59.7378 70.8675 60.108 70.8675 60.2931V62.6838H70.3604V58.7969H70.8983L72.3737 61.1568C72.512 61.3882 72.6965 61.7275 72.8194 61.9743C72.8041 61.7584 72.8041 61.5116 72.8041 61.2339V58.8278H73.2959V62.6838H72.758Z" fill="url(#paint47_linear_1131_13051)"/>
<path d="M75.8623 58.7969H77.2148C77.8142 58.7969 78.2445 58.9974 78.5212 59.4293C78.7619 59.8112 78.8799 60.2581 78.8593 60.7095C78.8593 61.928 78.2138 62.6838 77.1687 62.6838H75.8623V58.7969ZM77.0611 62.2057C77.9064 62.2057 78.3214 61.7275 78.3214 60.7249C78.3214 60.2776 78.2445 59.9537 78.0755 59.7069C77.9064 59.4602 77.5837 59.2905 77.0918 59.2905H76.4002V62.2057H77.0611Z" fill="url(#paint48_linear_1131_13051)"/>
<path d="M81.7027 61.5116L81.3184 62.6838H80.7651L82.133 58.7969H82.7017L84.0849 62.6838H83.5009L83.1166 61.5116H81.7027ZM82.4096 59.3985L81.8564 61.0488H82.9629L82.4096 59.3985Z" fill="url(#paint49_linear_1131_13051)"/>
<path d="M53.8998 28.8586H49.2275V29.3753H53.8998V28.8586Z" fill="url(#paint50_linear_1131_13051)"/>
<path d="M91.8309 28.8586H87.1587V29.3753H91.8309V28.8586Z" fill="url(#paint51_linear_1131_13051)"/>
<path d="M27.2653 39.563C27.2612 39.0707 27.0635 38.5999 26.7152 38.2533C26.3668 37.9066 25.8961 37.7121 25.4056 37.7121H7.0086C6.51804 37.7121 6.04734 37.9066 5.69902 38.2533C5.3507 38.5999 5.15298 39.0707 5.14893 39.563V49.6658C5.14893 49.9109 5.19703 50.1536 5.29048 50.38C5.38394 50.6065 5.52093 50.8122 5.69361 50.9855C5.8663 51.1588 6.07131 51.2963 6.29694 51.3901C6.52256 51.4839 6.76439 51.5321 7.0086 51.5321H22.716L24.2529 54.7095L24.5142 54.3239L26.9118 50.7764H26.8964C27.1358 50.456 27.2653 50.0663 27.2653 49.6658V39.563ZM26.2355 49.6658C26.2355 49.8867 26.1481 50.0986 25.9924 50.2548C25.8368 50.411 25.6257 50.4987 25.4056 50.4987H7.0086C6.78849 50.4987 6.57739 50.411 6.42175 50.2548C6.2661 50.0986 6.17866 49.8867 6.17866 49.6658V39.563C6.18269 39.3448 6.27191 39.1369 6.42711 38.984C6.58232 38.8311 6.79113 38.7455 7.0086 38.7455H25.4056C25.6231 38.7455 25.8319 38.8311 25.9871 38.984C26.1423 39.1369 26.2315 39.3448 26.2355 39.563V49.6658Z" fill="url(#paint52_linear_1131_13051)"/>
<path d="M133.067 37.7121H114.67C114.179 37.7121 113.708 37.9066 113.36 38.2533C113.012 38.5999 112.814 39.0707 112.81 39.563V49.6658C112.809 49.9165 112.859 50.1647 112.957 50.3953C113.055 50.626 113.198 50.8343 113.379 51.0077L115.761 54.5398L115.869 54.7095L117.405 51.5321H133.067C133.311 51.5321 133.553 51.4839 133.778 51.3901C134.004 51.2963 134.209 51.1588 134.382 50.9855C134.554 50.8122 134.691 50.6065 134.785 50.38C134.878 50.1536 134.926 49.9109 134.926 49.6658V39.563C134.922 39.0707 134.725 38.5999 134.376 38.2533C134.028 37.9066 133.557 37.7121 133.067 37.7121ZM133.897 49.6658C133.897 49.8867 133.809 50.0986 133.654 50.2548C133.498 50.411 133.287 50.4987 133.067 50.4987H114.67C114.45 50.4987 114.239 50.411 114.083 50.2548C113.927 50.0986 113.84 49.8867 113.84 49.6658V39.563C113.844 39.3448 113.933 39.1369 114.088 38.984C114.243 38.8311 114.452 38.7455 114.67 38.7455H133.067C133.284 38.7455 133.493 38.8311 133.648 38.984C133.803 39.1369 133.893 39.3448 133.897 39.563V49.6658Z" fill="url(#paint53_linear_1131_13051)"/>
</g>
<defs>
<linearGradient id="paint0_linear_1131_13051" x1="34.6345" y1="80.8519" x2="103.364" y2="12.0755" gradientUnits="userSpaceOnUse">
<stop offset="0.01" stop-color="#F0CC9C"/>
<stop offset="0.19" stop-color="#F4DBAD"/>
<stop offset="0.41" stop-color="#F9F3E5"/>
<stop offset="0.73" stop-color="#C78A54"/>
<stop offset="0.95" stop-color="#EFCA9B"/>
</linearGradient>
<linearGradient id="paint1_linear_1131_13051" x1="34.6347" y1="80.8519" x2="103.364" y2="12.0755" gradientUnits="userSpaceOnUse">
<stop offset="0.01" stop-color="#F0CC9C"/>
<stop offset="0.19" stop-color="#F4DBAD"/>
<stop offset="0.41" stop-color="#F9F3E5"/>
<stop offset="0.73" stop-color="#C78A54"/>
<stop offset="0.95" stop-color="#EFCA9B"/>
</linearGradient>
<linearGradient id="paint2_linear_1131_13051" x1="2.33005" y1="48.5676" x2="71.0592" y2="-20.2072" gradientUnits="userSpaceOnUse">
<stop offset="0.01" stop-color="#F0CC9C"/>
<stop offset="0.19" stop-color="#F4DBAD"/>
<stop offset="0.41" stop-color="#F9F3E5"/>
<stop offset="0.73" stop-color="#C78A54"/>
<stop offset="0.95" stop-color="#EFCA9B"/>
</linearGradient>
<linearGradient id="paint3_linear_1131_13051" x1="3.61037" y1="49.8478" x2="72.3395" y2="-18.9286" gradientUnits="userSpaceOnUse">
<stop offset="0.01" stop-color="#F0CC9C"/>
<stop offset="0.19" stop-color="#F4DBAD"/>
<stop offset="0.41" stop-color="#F9F3E5"/>
<stop offset="0.73" stop-color="#C78A54"/>
<stop offset="0.95" stop-color="#EFCA9B"/>
</linearGradient>
<linearGradient id="paint4_linear_1131_13051" x1="5.14243" y1="51.3794" x2="73.8731" y2="-17.3954" gradientUnits="userSpaceOnUse">
<stop offset="0.01" stop-color="#F0CC9C"/>
<stop offset="0.19" stop-color="#F4DBAD"/>
<stop offset="0.41" stop-color="#F9F3E5"/>
<stop offset="0.73" stop-color="#C78A54"/>
<stop offset="0.95" stop-color="#EFCA9B"/>
</linearGradient>
<linearGradient id="paint5_linear_1131_13051" x1="8.79096" y1="55.0257" x2="77.5216" y2="-13.7491" gradientUnits="userSpaceOnUse">
<stop offset="0.01" stop-color="#F0CC9C"/>
<stop offset="0.19" stop-color="#F4DBAD"/>
<stop offset="0.41" stop-color="#F9F3E5"/>
<stop offset="0.73" stop-color="#C78A54"/>
<stop offset="0.95" stop-color="#EFCA9B"/>
</linearGradient>
<linearGradient id="paint6_linear_1131_13051" x1="13.2791" y1="59.5111" x2="82.0098" y2="-9.26532" gradientUnits="userSpaceOnUse">
<stop offset="0.01" stop-color="#F0CC9C"/>
<stop offset="0.19" stop-color="#F4DBAD"/>
<stop offset="0.41" stop-color="#F9F3E5"/>
<stop offset="0.73" stop-color="#C78A54"/>
<stop offset="0.95" stop-color="#EFCA9B"/>
</linearGradient>
<linearGradient id="paint7_linear_1131_13051" x1="17.5609" y1="63.7882" x2="86.29" y2="-4.98668" gradientUnits="userSpaceOnUse">
<stop offset="0.01" stop-color="#F0CC9C"/>
<stop offset="0.19" stop-color="#F4DBAD"/>
<stop offset="0.41" stop-color="#F9F3E5"/>
<stop offset="0.73" stop-color="#C78A54"/>
<stop offset="0.95" stop-color="#EFCA9B"/>
</linearGradient>
<linearGradient id="paint8_linear_1131_13051" x1="23.5455" y1="69.7712" x2="92.2762" y2="0.994835" gradientUnits="userSpaceOnUse">
<stop offset="0.01" stop-color="#F0CC9C"/>
<stop offset="0.19" stop-color="#F4DBAD"/>
<stop offset="0.41" stop-color="#F9F3E5"/>
<stop offset="0.73" stop-color="#C78A54"/>
<stop offset="0.95" stop-color="#EFCA9B"/>
</linearGradient>
<linearGradient id="paint9_linear_1131_13051" x1="27.9369" y1="74.1579" x2="96.666" y2="5.38298" gradientUnits="userSpaceOnUse">
<stop offset="0.01" stop-color="#F0CC9C"/>
<stop offset="0.19" stop-color="#F4DBAD"/>
<stop offset="0.41" stop-color="#F9F3E5"/>
<stop offset="0.73" stop-color="#C78A54"/>
<stop offset="0.95" stop-color="#EFCA9B"/>
</linearGradient>
<linearGradient id="paint10_linear_1131_13051" x1="32.1373" y1="78.3547" x2="100.866" y2="9.57995" gradientUnits="userSpaceOnUse">
<stop offset="0.01" stop-color="#F0CC9C"/>
<stop offset="0.19" stop-color="#F4DBAD"/>
<stop offset="0.41" stop-color="#F9F3E5"/>
<stop offset="0.73" stop-color="#C78A54"/>
<stop offset="0.95" stop-color="#EFCA9B"/>
</linearGradient>
<linearGradient id="paint11_linear_1131_13051" x1="36.5406" y1="82.7568" x2="105.271" y2="13.982" gradientUnits="userSpaceOnUse">
<stop offset="0.01" stop-color="#F0CC9C"/>
<stop offset="0.19" stop-color="#F4DBAD"/>
<stop offset="0.41" stop-color="#F9F3E5"/>
<stop offset="0.73" stop-color="#C78A54"/>
<stop offset="0.95" stop-color="#EFCA9B"/>
</linearGradient>
<linearGradient id="paint12_linear_1131_13051" x1="42.7328" y1="88.9434" x2="111.462" y2="20.1686" gradientUnits="userSpaceOnUse">
<stop offset="0.01" stop-color="#F0CC9C"/>
<stop offset="0.19" stop-color="#F4DBAD"/>
<stop offset="0.41" stop-color="#F9F3E5"/>
<stop offset="0.73" stop-color="#C78A54"/>
<stop offset="0.95" stop-color="#EFCA9B"/>
</linearGradient>
<linearGradient id="paint13_linear_1131_13051" x1="48.2519" y1="94.4591" x2="116.981" y2="25.6843" gradientUnits="userSpaceOnUse">
<stop offset="0.01" stop-color="#F0CC9C"/>
<stop offset="0.19" stop-color="#F4DBAD"/>
<stop offset="0.41" stop-color="#F9F3E5"/>
<stop offset="0.73" stop-color="#C78A54"/>
<stop offset="0.95" stop-color="#EFCA9B"/>
</linearGradient>
<linearGradient id="paint14_linear_1131_13051" x1="24.0572" y1="70.2817" x2="92.7879" y2="1.5069" gradientUnits="userSpaceOnUse">
<stop offset="0.01" stop-color="#F0CC9C"/>
<stop offset="0.19" stop-color="#F4DBAD"/>
<stop offset="0.41" stop-color="#F9F3E5"/>
<stop offset="0.73" stop-color="#C78A54"/>
<stop offset="0.95" stop-color="#EFCA9B"/>
</linearGradient>
<linearGradient id="paint15_linear_1131_13051" x1="30.0099" y1="76.2293" x2="98.739" y2="7.45444" gradientUnits="userSpaceOnUse">
<stop offset="0.01" stop-color="#F0CC9C"/>
<stop offset="0.19" stop-color="#F4DBAD"/>
<stop offset="0.41" stop-color="#F9F3E5"/>
<stop offset="0.73" stop-color="#C78A54"/>
<stop offset="0.95" stop-color="#EFCA9B"/>
</linearGradient>
<linearGradient id="paint16_linear_1131_13051" x1="33.7814" y1="80.0005" x2="102.512" y2="11.2241" gradientUnits="userSpaceOnUse">
<stop offset="0.01" stop-color="#F0CC9C"/>
<stop offset="0.19" stop-color="#F4DBAD"/>
<stop offset="0.41" stop-color="#F9F3E5"/>
<stop offset="0.73" stop-color="#C78A54"/>
<stop offset="0.95" stop-color="#EFCA9B"/>
</linearGradient>
<linearGradient id="paint17_linear_1131_13051" x1="39.9956" y1="86.2087" x2="108.726" y2="17.4339" gradientUnits="userSpaceOnUse">
<stop offset="0.01" stop-color="#F0CC9C"/>
<stop offset="0.19" stop-color="#F4DBAD"/>
<stop offset="0.41" stop-color="#F9F3E5"/>
<stop offset="0.73" stop-color="#C78A54"/>
<stop offset="0.95" stop-color="#EFCA9B"/>
</linearGradient>
<linearGradient id="paint18_linear_1131_13051" x1="45.8128" y1="92.0237" x2="114.544" y2="23.2473" gradientUnits="userSpaceOnUse">
<stop offset="0.01" stop-color="#F0CC9C"/>
<stop offset="0.19" stop-color="#F4DBAD"/>
<stop offset="0.41" stop-color="#F9F3E5"/>
<stop offset="0.73" stop-color="#C78A54"/>
<stop offset="0.95" stop-color="#EFCA9B"/>
</linearGradient>
<linearGradient id="paint19_linear_1131_13051" x1="50.3943" y1="96.6" x2="119.123" y2="27.8251" gradientUnits="userSpaceOnUse">
<stop offset="0.01" stop-color="#F0CC9C"/>
<stop offset="0.19" stop-color="#F4DBAD"/>
<stop offset="0.41" stop-color="#F9F3E5"/>
<stop offset="0.73" stop-color="#C78A54"/>
<stop offset="0.95" stop-color="#EFCA9B"/>
</linearGradient>
<linearGradient id="paint20_linear_1131_13051" x1="55.8857" y1="102.089" x2="124.616" y2="33.3131" gradientUnits="userSpaceOnUse">
<stop offset="0.01" stop-color="#F0CC9C"/>
<stop offset="0.19" stop-color="#F4DBAD"/>
<stop offset="0.41" stop-color="#F9F3E5"/>
<stop offset="0.73" stop-color="#C78A54"/>
<stop offset="0.95" stop-color="#EFCA9B"/>
</linearGradient>
<linearGradient id="paint21_linear_1131_13051" x1="59.2222" y1="105.424" x2="127.953" y2="36.6478" gradientUnits="userSpaceOnUse">
<stop offset="0.01" stop-color="#F0CC9C"/>
<stop offset="0.19" stop-color="#F4DBAD"/>
<stop offset="0.41" stop-color="#F9F3E5"/>
<stop offset="0.73" stop-color="#C78A54"/>
<stop offset="0.95" stop-color="#EFCA9B"/>
</linearGradient>
<linearGradient id="paint22_linear_1131_13051" x1="61.9041" y1="108.103" x2="130.633" y2="39.327" gradientUnits="userSpaceOnUse">
<stop offset="0.01" stop-color="#F0CC9C"/>
<stop offset="0.19" stop-color="#F4DBAD"/>
<stop offset="0.41" stop-color="#F9F3E5"/>
<stop offset="0.73" stop-color="#C78A54"/>
<stop offset="0.95" stop-color="#EFCA9B"/>
</linearGradient>
<linearGradient id="paint23_linear_1131_13051" x1="64.1417" y1="110.338" x2="132.871" y2="41.5635" gradientUnits="userSpaceOnUse">
<stop offset="0.01" stop-color="#F0CC9C"/>
<stop offset="0.19" stop-color="#F4DBAD"/>
<stop offset="0.41" stop-color="#F9F3E5"/>
<stop offset="0.73" stop-color="#C78A54"/>
<stop offset="0.95" stop-color="#EFCA9B"/>
</linearGradient>
<linearGradient id="paint24_linear_1131_13051" x1="66.2798" y1="112.476" x2="135.009" y2="43.7013" gradientUnits="userSpaceOnUse">
<stop offset="0.01" stop-color="#F0CC9C"/>
<stop offset="0.19" stop-color="#F4DBAD"/>
<stop offset="0.41" stop-color="#F9F3E5"/>
<stop offset="0.73" stop-color="#C78A54"/>
<stop offset="0.95" stop-color="#EFCA9B"/>
</linearGradient>
<linearGradient id="paint25_linear_1131_13051" x1="67.0683" y1="113.264" x2="135.797" y2="44.4878" gradientUnits="userSpaceOnUse">
<stop offset="0.01" stop-color="#F0CC9C"/>
<stop offset="0.19" stop-color="#F4DBAD"/>
<stop offset="0.41" stop-color="#F9F3E5"/>
<stop offset="0.73" stop-color="#C78A54"/>
<stop offset="0.95" stop-color="#EFCA9B"/>
</linearGradient>
<linearGradient id="paint26_linear_1131_13051" x1="18.2507" y1="64.4776" x2="86.9799" y2="-4.2972" gradientUnits="userSpaceOnUse">
<stop offset="0.01" stop-color="#F0CC9C"/>
<stop offset="0.19" stop-color="#F4DBAD"/>
<stop offset="0.41" stop-color="#F9F3E5"/>
<stop offset="0.73" stop-color="#C78A54"/>
<stop offset="0.95" stop-color="#EFCA9B"/>
</linearGradient>
<linearGradient id="paint27_linear_1131_13051" x1="25.0225" y1="71.2458" x2="93.7516" y2="2.47091" gradientUnits="userSpaceOnUse">
<stop offset="0.01" stop-color="#F0CC9C"/>
<stop offset="0.19" stop-color="#F4DBAD"/>
<stop offset="0.41" stop-color="#F9F3E5"/>
<stop offset="0.73" stop-color="#C78A54"/>
<stop offset="0.95" stop-color="#EFCA9B"/>
</linearGradient>
<linearGradient id="paint28_linear_1131_13051" x1="30.0082" y1="76.2293" x2="98.7389" y2="7.45294" gradientUnits="userSpaceOnUse">
<stop offset="0.01" stop-color="#F0CC9C"/>
<stop offset="0.19" stop-color="#F4DBAD"/>
<stop offset="0.41" stop-color="#F9F3E5"/>
<stop offset="0.73" stop-color="#C78A54"/>
<stop offset="0.95" stop-color="#EFCA9B"/>
</linearGradient>
<linearGradient id="paint29_linear_1131_13051" x1="34.2564" y1="80.474" x2="102.986" y2="11.6992" gradientUnits="userSpaceOnUse">
<stop offset="0.01" stop-color="#F0CC9C"/>
<stop offset="0.19" stop-color="#F4DBAD"/>
<stop offset="0.41" stop-color="#F9F3E5"/>
<stop offset="0.73" stop-color="#C78A54"/>
<stop offset="0.95" stop-color="#EFCA9B"/>
</linearGradient>
<linearGradient id="paint30_linear_1131_13051" x1="38.3296" y1="84.5445" x2="107.059" y2="15.7682" gradientUnits="userSpaceOnUse">
<stop offset="0.01" stop-color="#F0CC9C"/>
<stop offset="0.19" stop-color="#F4DBAD"/>
<stop offset="0.41" stop-color="#F9F3E5"/>
<stop offset="0.73" stop-color="#C78A54"/>
<stop offset="0.95" stop-color="#EFCA9B"/>
</linearGradient>
<linearGradient id="paint31_linear_1131_13051" x1="42.6452" y1="88.8571" x2="111.376" y2="20.0822" gradientUnits="userSpaceOnUse">
<stop offset="0.01" stop-color="#F0CC9C"/>
<stop offset="0.19" stop-color="#F4DBAD"/>
<stop offset="0.41" stop-color="#F9F3E5"/>
<stop offset="0.73" stop-color="#C78A54"/>
<stop offset="0.95" stop-color="#EFCA9B"/>
</linearGradient>
<linearGradient id="paint32_linear_1131_13051" x1="47.878" y1="94.0874" x2="116.609" y2="25.3111" gradientUnits="userSpaceOnUse">
<stop offset="0.01" stop-color="#F0CC9C"/>
<stop offset="0.19" stop-color="#F4DBAD"/>
<stop offset="0.41" stop-color="#F9F3E5"/>
<stop offset="0.73" stop-color="#C78A54"/>
<stop offset="0.95" stop-color="#EFCA9B"/>
</linearGradient>
<linearGradient id="paint33_linear_1131_13051" x1="52.5383" y1="98.744" x2="121.267" y2="29.9676" gradientUnits="userSpaceOnUse">
<stop offset="0.01" stop-color="#F0CC9C"/>
<stop offset="0.19" stop-color="#F4DBAD"/>
<stop offset="0.41" stop-color="#F9F3E5"/>
<stop offset="0.73" stop-color="#C78A54"/>
<stop offset="0.95" stop-color="#EFCA9B"/>
</linearGradient>
<linearGradient id="paint34_linear_1131_13051" x1="5.296" y1="51.5337" x2="74.0266" y2="-17.2427" gradientUnits="userSpaceOnUse">
<stop offset="0.01" stop-color="#F0CC9C"/>
<stop offset="0.19" stop-color="#F4DBAD"/>
<stop offset="0.41" stop-color="#F9F3E5"/>
<stop offset="0.73" stop-color="#C78A54"/>
<stop offset="0.95" stop-color="#EFCA9B"/>
</linearGradient>
<linearGradient id="paint35_linear_1131_13051" x1="7.42479" y1="53.6591" x2="76.1539" y2="-15.1157" gradientUnits="userSpaceOnUse">
<stop offset="0.01" stop-color="#F0CC9C"/>
<stop offset="0.19" stop-color="#F4DBAD"/>
<stop offset="0.41" stop-color="#F9F3E5"/>
<stop offset="0.73" stop-color="#C78A54"/>
<stop offset="0.95" stop-color="#EFCA9B"/>
</linearGradient>
<linearGradient id="paint36_linear_1131_13051" x1="9.15841" y1="55.3928" x2="77.8875" y2="-13.3836" gradientUnits="userSpaceOnUse">
<stop offset="0.01" stop-color="#F0CC9C"/>
<stop offset="0.19" stop-color="#F4DBAD"/>
<stop offset="0.41" stop-color="#F9F3E5"/>
<stop offset="0.73" stop-color="#C78A54"/>
<stop offset="0.95" stop-color="#EFCA9B"/>
</linearGradient>
<linearGradient id="paint37_linear_1131_13051" x1="58.7443" y1="104.946" x2="127.475" y2="36.1712" gradientUnits="userSpaceOnUse">
<stop offset="0.01" stop-color="#F0CC9C"/>
<stop offset="0.19" stop-color="#F4DBAD"/>
<stop offset="0.41" stop-color="#F9F3E5"/>
<stop offset="0.73" stop-color="#C78A54"/>
<stop offset="0.95" stop-color="#EFCA9B"/>
</linearGradient>
<linearGradient id="paint38_linear_1131_13051" x1="60.4965" y1="106.697" x2="129.226" y2="37.9202" gradientUnits="userSpaceOnUse">
<stop offset="0.01" stop-color="#F0CC9C"/>
<stop offset="0.19" stop-color="#F4DBAD"/>
<stop offset="0.41" stop-color="#F9F3E5"/>
<stop offset="0.73" stop-color="#C78A54"/>
<stop offset="0.95" stop-color="#EFCA9B"/>
</linearGradient>
<linearGradient id="paint39_linear_1131_13051" x1="62.5683" y1="108.767" x2="131.299" y2="39.9918" gradientUnits="userSpaceOnUse">
<stop offset="0.01" stop-color="#F0CC9C"/>
<stop offset="0.19" stop-color="#F4DBAD"/>
<stop offset="0.41" stop-color="#F9F3E5"/>
<stop offset="0.73" stop-color="#C78A54"/>
<stop offset="0.95" stop-color="#EFCA9B"/>
</linearGradient>
<linearGradient id="paint40_linear_1131_13051" x1="64.4802" y1="110.678" x2="133.209" y2="41.9028" gradientUnits="userSpaceOnUse">
<stop offset="0.01" stop-color="#F0CC9C"/>
<stop offset="0.19" stop-color="#F4DBAD"/>
<stop offset="0.41" stop-color="#F9F3E5"/>
<stop offset="0.73" stop-color="#C78A54"/>
<stop offset="0.95" stop-color="#EFCA9B"/>
</linearGradient>
<linearGradient id="paint41_linear_1131_13051" x1="24.2633" y1="70.4884" x2="92.9939" y2="1.71204" gradientUnits="userSpaceOnUse">
<stop offset="0.01" stop-color="#F0CC9C"/>
<stop offset="0.19" stop-color="#F4DBAD"/>
<stop offset="0.41" stop-color="#F9F3E5"/>
<stop offset="0.73" stop-color="#C78A54"/>
<stop offset="0.95" stop-color="#EFCA9B"/>
</linearGradient>
<linearGradient id="paint42_linear_1131_13051" x1="27.3267" y1="73.5486" x2="96.0558" y2="4.77225" gradientUnits="userSpaceOnUse">
<stop offset="0.01" stop-color="#F0CC9C"/>
<stop offset="0.19" stop-color="#F4DBAD"/>
<stop offset="0.41" stop-color="#F9F3E5"/>
<stop offset="0.73" stop-color="#C78A54"/>
<stop offset="0.95" stop-color="#EFCA9B"/>
</linearGradient>
<linearGradient id="paint43_linear_1131_13051" x1="29.6411" y1="75.8622" x2="98.3717" y2="7.08583" gradientUnits="userSpaceOnUse">
<stop offset="0.01" stop-color="#F0CC9C"/>
<stop offset="0.19" stop-color="#F4DBAD"/>
<stop offset="0.41" stop-color="#F9F3E5"/>
<stop offset="0.73" stop-color="#C78A54"/>
<stop offset="0.95" stop-color="#EFCA9B"/>
</linearGradient>
<linearGradient id="paint44_linear_1131_13051" x1="36.3434" y1="82.5609" x2="105.074" y2="13.7845" gradientUnits="userSpaceOnUse">
<stop offset="0.01" stop-color="#F0CC9C"/>
<stop offset="0.19" stop-color="#F4DBAD"/>
<stop offset="0.41" stop-color="#F9F3E5"/>
<stop offset="0.73" stop-color="#C78A54"/>
<stop offset="0.95" stop-color="#EFCA9B"/>
</linearGradient>
<linearGradient id="paint45_linear_1131_13051" x1="38.6" y1="84.8143" x2="107.331" y2="16.0395" gradientUnits="userSpaceOnUse">
<stop offset="0.01" stop-color="#F0CC9C"/>
<stop offset="0.19" stop-color="#F4DBAD"/>
<stop offset="0.41" stop-color="#F9F3E5"/>
<stop offset="0.73" stop-color="#C78A54"/>
<stop offset="0.95" stop-color="#EFCA9B"/>
</linearGradient>
<linearGradient id="paint46_linear_1131_13051" x1="40.6963" y1="86.9089" x2="109.427" y2="18.1341" gradientUnits="userSpaceOnUse">
<stop offset="0.01" stop-color="#F0CC9C"/>
<stop offset="0.19" stop-color="#F4DBAD"/>
<stop offset="0.41" stop-color="#F9F3E5"/>
<stop offset="0.73" stop-color="#C78A54"/>
<stop offset="0.95" stop-color="#EFCA9B"/>
</linearGradient>
<linearGradient id="paint47_linear_1131_13051" x1="43.2936" y1="89.5048" x2="112.023" y2="20.7284" gradientUnits="userSpaceOnUse">
<stop offset="0.01" stop-color="#F0CC9C"/>
<stop offset="0.19" stop-color="#F4DBAD"/>
<stop offset="0.41" stop-color="#F9F3E5"/>
<stop offset="0.73" stop-color="#C78A54"/>
<stop offset="0.95" stop-color="#EFCA9B"/>
</linearGradient>
<linearGradient id="paint48_linear_1131_13051" x1="45.8247" y1="92.0344" x2="114.555" y2="23.2595" gradientUnits="userSpaceOnUse">
<stop offset="0.01" stop-color="#F0CC9C"/>
<stop offset="0.19" stop-color="#F4DBAD"/>
<stop offset="0.41" stop-color="#F9F3E5"/>
<stop offset="0.73" stop-color="#C78A54"/>
<stop offset="0.95" stop-color="#EFCA9B"/>
</linearGradient>
<linearGradient id="paint49_linear_1131_13051" x1="48.9538" y1="95.1624" x2="117.684" y2="26.3874" gradientUnits="userSpaceOnUse">
<stop offset="0.01" stop-color="#F0CC9C"/>
<stop offset="0.19" stop-color="#F4DBAD"/>
<stop offset="0.41" stop-color="#F9F3E5"/>
<stop offset="0.73" stop-color="#C78A54"/>
<stop offset="0.95" stop-color="#EFCA9B"/>
</linearGradient>
<linearGradient id="paint50_linear_1131_13051" x1="17.364" y1="63.5845" x2="86.0945" y2="-5.19042" gradientUnits="userSpaceOnUse">
<stop offset="0.01" stop-color="#F0CC9C"/>
<stop offset="0.19" stop-color="#F4DBAD"/>
<stop offset="0.41" stop-color="#F9F3E5"/>
<stop offset="0.73" stop-color="#C78A54"/>
<stop offset="0.95" stop-color="#EFCA9B"/>
</linearGradient>
<linearGradient id="paint51_linear_1131_13051" x1="36.4079" y1="82.6163" x2="105.137" y2="13.8399" gradientUnits="userSpaceOnUse">
<stop offset="0.01" stop-color="#F0CC9C"/>
<stop offset="0.19" stop-color="#F4DBAD"/>
<stop offset="0.41" stop-color="#F9F3E5"/>
<stop offset="0.73" stop-color="#C78A54"/>
<stop offset="0.95" stop-color="#EFCA9B"/>
</linearGradient>
<linearGradient id="paint52_linear_1131_13051" x1="7.63874" y1="53.8735" x2="76.3694" y2="-14.9013" gradientUnits="userSpaceOnUse">
<stop offset="0.01" stop-color="#F0CC9C"/>
<stop offset="0.19" stop-color="#F4DBAD"/>
<stop offset="0.41" stop-color="#F9F3E5"/>
<stop offset="0.73" stop-color="#C78A54"/>
<stop offset="0.95" stop-color="#EFCA9B"/>
</linearGradient>
<linearGradient id="paint53_linear_1131_13051" x1="61.3877" y1="107.588" x2="130.118" y2="38.8118" gradientUnits="userSpaceOnUse">
<stop offset="0.01" stop-color="#F0CC9C"/>
<stop offset="0.19" stop-color="#F4DBAD"/>
<stop offset="0.41" stop-color="#F9F3E5"/>
<stop offset="0.73" stop-color="#C78A54"/>
<stop offset="0.95" stop-color="#EFCA9B"/>
</linearGradient>
<clipPath id="clip0_1131_13051">
<rect width="140.075" height="90" fill="white"/>
</clipPath>
</defs>
</svg>
