<svg width="44" height="44" viewBox="0 0 44 44" fill="none" xmlns="http://www.w3.org/2000/svg">
<path d="M29.125 27.5781C29.5469 28.0469 29.5469 28.75 29.125 29.1719C28.6562 29.6406 27.9531 29.6406 27.5312 29.1719L22 23.5938L16.4219 29.1719C15.9531 29.6406 15.25 29.6406 14.8281 29.1719C14.3594 28.75 14.3594 28.0469 14.8281 27.5781L20.4062 22L14.8281 16.4219C14.3594 15.9531 14.3594 15.25 14.8281 14.8281C15.25 14.3594 15.9531 14.3594 16.375 14.8281L22 20.4531L27.5781 14.875C28 14.4062 28.7031 14.4062 29.125 14.875C29.5938 15.2969 29.5938 16 29.125 16.4688L23.5469 22L29.125 27.5781Z" fill="black"/>
</svg>
