<svg width="25" height="24" viewBox="0 0 25 24" fill="none" xmlns="http://www.w3.org/2000/svg">
<path d="M23.7969 10.4531C24.2656 10.875 24.4531 11.4375 24.5 12C24.5 12.5625 24.2656 13.125 23.7969 13.5469L14.0469 23.3438C13.625 23.7656 13.0625 24 12.5 24C11.8906 24 11.3281 23.8125 10.9062 23.3438L1.15625 13.5938C0.6875 13.1719 0.5 12.6094 0.5 12C0.5 11.4375 0.6875 10.875 1.15625 10.4531L10.9062 0.703125C11.3281 0.234375 11.8438 0 12.4531 0C13.0156 0 13.5781 0.234375 14.0469 0.65625L23.7969 10.4531ZM22.7656 12.5625C23.0469 12.2344 23.0469 11.7656 22.7656 11.4844L13.0156 1.73438C12.8281 1.54688 12.5938 1.5 12.5 1.5C12.3594 1.5 12.125 1.54688 11.9375 1.73438L2.1875 11.4844C1.90625 11.8125 1.90625 12.2812 2.1875 12.5625L11.9375 22.3125C12.125 22.5 12.3594 22.5 12.5 22.5C12.5938 22.5 12.8281 22.5 13.0156 22.3125L22.7656 12.5625ZM15.2656 6.98438L19.0156 10.7344C19.2969 11.0156 19.2969 11.5312 19.0156 11.8125L15.2656 15.5625C15.125 15.7031 14.9375 15.75 14.75 15.75C14.5156 15.75 14.3281 15.7031 14.1875 15.5625C13.9062 15.2812 13.9062 14.7656 14.1875 14.4844L16.6719 12H11.75C11.3281 12 10.9531 12.375 11 12.75V15.75C11 16.1719 10.625 16.5 10.25 16.5C9.82812 16.5 9.5 16.1719 9.5 15.75V12.75C9.5 11.5312 10.4844 10.5 11.75 10.5H16.6719L14.1875 8.0625C13.9062 7.78125 13.9062 7.26562 14.1875 6.98438C14.4688 6.70312 14.9844 6.70312 15.2656 6.98438Z" fill="#A36928"/>
</svg>
